<?xml version="1.0" encoding="UTF-8"?>
<!-- Generated by Pixelmator Pro 3.6.13 -->
<svg width="3173" height="1115" viewBox="0 0 3173 1115" xmlns="http://www.w3.org/2000/svg">
    <g id="OUTPUT">
        <path id="path1" fill="#000000" fill-rule="evenodd" stroke="#ffffff" stroke-width="8" stroke-linecap="round" stroke-linejoin="round" d="M 3048.130859 697.830994 L 3145.14502 697.830994 L 3145.14502 754.640991 L 2883.381836 754.640991 L 2883.381836 697.830994 L 2981.27002 697.830994 L 2981.27002 677.291992 L 2903.483887 677.291992 L 2903.483887 644.080017 L 2877.701172 630.969971 C 2877.992188 636.213989 2878.137939 644.371277 2878.137939 655.442017 C 2878.137939 686.323486 2876.317139 709.047241 2872.675537 723.614014 C 2869.033691 738.180725 2862.98877 748.013123 2854.540039 753.111511 C 2846.091309 758.209839 2832.981445 761.341675 2815.209961 762.507019 L 2785.931152 764.692017 L 2767.140137 693.023987 L 2789.427002 690.838989 C 2798.166992 689.964966 2804.35791 688.217041 2807.999512 685.594971 C 2811.641113 682.973022 2814.19043 677.219238 2815.646973 668.333496 C 2817.103516 659.447754 2817.832031 644.808472 2817.832031 624.414978 C 2817.832031 618.879639 2817.686279 614.655334 2817.39502 611.742004 C 2802.245605 629.513428 2781.706787 648.158569 2755.777832 667.677979 L 2740.045898 588.580994 C 2770.63623 568.187561 2792.777344 551.144775 2806.469971 537.452026 L 2799.915039 512.105957 C 2792.631592 518.223999 2781.415527 526.818237 2766.266113 537.889038 L 2745.727051 466.657959 C 2755.341064 460.248657 2765.246338 452.528381 2775.442871 443.497009 C 2766.994141 423.103577 2758.108887 403.875732 2748.786133 385.812988 L 2801.663086 359.156006 C 2810.694336 374.014038 2818.123291 387.269653 2823.949951 398.922974 C 2837.934082 384.647583 2848.567627 372.411743 2855.851074 362.214966 L 2896.055176 401.545044 L 2896.055176 367.021973 L 3125.042969 367.021973 L 3125.042969 530.02301 L 2910.913086 530.02301 L 2955.923828 545.755005 C 2955.050049 548.668335 2953.884766 551.872986 2952.427979 555.369019 L 2981.27002 555.369019 L 2981.27002 537.889038 L 3048.130859 539.636963 L 3048.130859 555.369019 L 3130.287109 555.369019 L 3130.287109 607.372009 L 3048.130859 607.372009 L 3048.130859 628.348022 L 3123.294922 628.348022 L 3123.294922 677.291992 L 3048.130859 677.291992 Z M 2876.390137 595.135986 C 2888.625977 569.207214 2897.365967 547.503052 2902.609863 530.02301 L 2896.055176 530.02301 L 2896.055176 414.655029 C 2880.614258 433.591797 2866.047852 449.90625 2852.35498 463.598999 C 2859.347168 483.40979 2864.80957 503.875732 2868.742676 524.997498 C 2872.675537 546.119263 2875.224609 569.498535 2876.390137 595.135986 Z M 3057.745117 432.13501 L 3057.745117 415.092041 L 2962.479004 415.092041 L 2962.479004 432.13501 Z M 2962.479004 471.028015 L 2962.479004 487.197021 L 3057.745117 487.197021 L 3057.745117 471.028015 Z M 2981.27002 628.348022 L 2981.27002 607.372009 L 2931.88916 607.372009 L 2922.711914 628.348022 Z M 2554.321045 697.830994 L 2651.334961 697.830994 L 2651.334961 754.640991 L 2389.572021 754.640991 L 2389.572021 697.830994 L 2487.459961 697.830994 L 2487.459961 677.291992 L 2409.673828 677.291992 L 2409.673828 644.080017 L 2383.891113 630.969971 C 2384.182373 636.213989 2384.328125 644.371277 2384.328125 655.442017 C 2384.328125 686.323486 2382.507324 709.047241 2378.865479 723.614014 C 2375.223633 738.180725 2369.178711 748.013123 2360.72998 753.111511 C 2352.28125 758.209839 2339.171387 761.341675 2321.399902 762.507019 L 2292.121094 764.692017 L 2273.330078 693.023987 L 2295.616943 690.838989 C 2304.356934 689.964966 2310.547852 688.217041 2314.189453 685.594971 C 2317.831055 682.973022 2320.380371 677.219238 2321.836914 668.333496 C 2323.293701 659.447754 2324.021973 644.808472 2324.021973 624.414978 C 2324.021973 618.879639 2323.876465 614.655334 2323.584961 611.742004 C 2308.435547 629.513428 2287.896973 648.158569 2261.968018 667.677979 L 2246.236084 588.580994 C 2276.826172 568.187561 2298.967285 551.144775 2312.660156 537.452026 L 2306.10498 512.105957 C 2298.821777 518.223999 2287.605469 526.818237 2272.456055 537.889038 L 2251.916992 466.657959 C 2261.531006 460.248657 2271.436279 452.528381 2281.633057 443.497009 C 2273.184326 423.103577 2264.298828 403.875732 2254.976074 385.812988 L 2307.853027 359.156006 C 2316.884277 374.014038 2324.313477 387.269653 2330.140137 398.922974 C 2344.124023 384.647583 2354.757813 372.411743 2362.041016 362.214966 L 2402.245117 401.545044 L 2402.245117 367.021973 L 2631.23291 367.021973 L 2631.23291 530.02301 L 2417.103027 530.02301 L 2462.114014 545.755005 C 2461.23999 548.668335 2460.074707 551.872986 2458.618164 555.369019 L 2487.459961 555.369019 L 2487.459961 537.889038 L 2554.321045 539.636963 L 2554.321045 555.369019 L 2636.477051 555.369019 L 2636.477051 607.372009 L 2554.321045 607.372009 L 2554.321045 628.348022 L 2629.484863 628.348022 L 2629.484863 677.291992 L 2554.321045 677.291992 Z M 2382.580078 595.135986 C 2394.815918 569.207214 2403.556152 547.503052 2408.800049 530.02301 L 2402.245117 530.02301 L 2402.245117 414.655029 C 2386.804199 433.591797 2372.237793 449.90625 2358.544922 463.598999 C 2365.537109 483.40979 2370.999512 503.875732 2374.932617 524.997498 C 2378.865479 546.119263 2381.414551 569.498535 2382.580078 595.135986 Z M 2563.935059 432.13501 L 2563.935059 415.092041 L 2468.668945 415.092041 L 2468.668945 432.13501 Z M 2468.668945 471.028015 L 2468.668945 487.197021 L 2563.935059 487.197021 L 2563.935059 471.028015 Z M 2487.459961 628.348022 L 2487.459961 607.372009 L 2438.079102 607.372009 L 2428.901855 628.348022 Z M 2156.650879 585.958984 L 2081.050049 585.958984 L 2081.050049 607.809021 L 2140.044922 607.809021 L 2140.044922 757.263 L 1959.563965 757.263 L 1959.563965 637.962036 C 1955.776611 663.016785 1950.678223 685.667725 1944.269043 705.915527 C 1937.859619 726.163269 1929.556641 745.609558 1919.359863 764.255005 L 1861.676025 724.488037 C 1860.802002 734.684692 1858.398438 742.259277 1854.465576 747.211975 C 1850.532471 752.164673 1844.778809 755.660645 1837.204102 757.700012 C 1829.629395 759.739319 1817.539063 761.632996 1800.933105 763.380981 L 1779.957031 765.565979 L 1761.166016 696.083008 L 1775.149902 693.89801 C 1781.268066 693.023987 1785.710938 692.150024 1788.478516 691.276001 C 1791.246094 690.401978 1793.431152 688.653992 1795.033447 686.031982 C 1796.635742 683.409973 1797.437012 679.477051 1797.437012 674.233032 L 1797.437012 624.414978 C 1784.909668 627.328369 1779.665527 628.493652 1781.705078 627.911011 C 1771.216797 629.950317 1763.351074 631.698303 1758.106934 633.155029 L 1752.863037 561.049988 L 1797.437012 552.747009 L 1797.437012 491.130005 L 1765.973145 491.130005 L 1765.973145 422.958008 L 1797.437012 422.958008 L 1797.437012 359.156006 L 1862.113037 360.903992 L 1862.113037 422.958008 L 1890.955078 422.958008 L 1890.955078 491.130005 L 1862.113037 491.130005 L 1862.113037 540.510986 L 1889.644043 534.393005 L 1890.081055 570.664001 L 1890.081055 605.624023 L 1862.113037 611.742004 L 1862.113037 709.630005 L 1862.113037 718.807007 C 1873.183594 698.413574 1881.632324 678.384583 1887.458984 658.719482 C 1893.285645 639.054382 1897.437012 616.184937 1899.913574 590.110474 C 1902.389893 564.036011 1903.773682 530.751526 1904.064941 490.255981 L 1904.064941 370.080994 L 2144.415039 370.080994 L 2144.415039 505.114014 L 2081.050049 505.114014 L 2081.050049 528.275024 L 2156.650879 528.275024 Z M 2080.176025 453.110962 L 2080.176025 429.513 L 1967.429932 429.513 L 1967.429932 453.110962 Z M 1967.429932 528.275024 L 2018.996094 528.275024 L 2018.996094 505.114014 L 1967.429932 505.114014 Z M 2018.996094 607.809021 L 2018.996094 585.958984 L 1964.808105 585.958984 C 1964.225342 595.86438 1963.642578 603.147644 1963.060059 607.809021 Z M 2020.744141 700.015991 L 2077.553955 700.015991 L 2077.553955 662.434021 L 2020.744141 662.434021 Z M 1669.833008 697.830994 L 1630.939941 761.632996 C 1605.01123 737.160889 1583.598389 713.56311 1566.700928 690.838989 C 1547.181641 714.728455 1521.981445 739.200195 1491.099976 764.255005 L 1465.754028 732.354004 L 1450.458984 759.447998 C 1437.348877 751.58197 1416.518799 739.49176 1387.968018 723.177002 C 1363.49585 736.578369 1330.866821 750.270935 1290.079956 764.255005 L 1256.43103 710.504028 C 1284.981812 702.346619 1307.851196 695.354675 1325.040039 689.528015 L 1283.525024 669.863037 C 1289.934326 658.500977 1296.197998 646.556396 1302.31604 634.028992 L 1271.725952 634.028992 L 1271.725952 585.084961 L 1322.85498 585.084961 C 1324.603027 580.423645 1326.642334 573.431702 1328.973022 564.109009 L 1394.522949 570.22699 L 1390.152954 585.084961 L 1472.30896 585.084961 L 1472.30896 632.718018 C 1463.56897 652.528748 1452.789795 669.571594 1439.970947 683.846985 L 1468.812988 696.957031 C 1492.993774 678.311584 1513.386963 657.481445 1529.993042 634.466003 C 1517.756958 611.741882 1508.434326 589.74646 1502.025024 568.479004 L 1491.099976 583.337036 L 1478.427002 546.192017 L 1454.828979 575.033997 C 1444.632324 565.711304 1429.191772 553.038452 1408.506958 537.015015 L 1408.506958 558.86499 L 1350.385986 558.86499 L 1350.385986 534.393005 C 1334.071289 550.999084 1313.82373 565.274292 1289.642944 577.218994 L 1262.54895 526.963989 C 1275.076416 522.302612 1287.312256 516.548828 1299.256958 509.702515 C 1311.201782 502.85614 1321.689575 495.791382 1330.720947 488.507996 L 1271.28894 488.507996 L 1271.28894 434.320007 L 1296.63501 434.320007 C 1284.690308 404.3125 1277.115723 386.395691 1273.911011 380.56897 L 1321.543945 362.651978 C 1323.874634 367.022034 1327.297852 374.232422 1331.813477 384.283508 C 1336.329224 394.334595 1339.606689 401.544983 1341.645996 405.915039 L 1348.637939 421.209961 L 1317.610962 434.320007 L 1350.385986 434.320007 L 1350.385986 358.718994 L 1408.506958 360.467041 L 1408.506958 414.218018 C 1425.987061 385.084534 1436.037964 367.895996 1438.660034 362.651978 L 1486.72998 384.502014 C 1485.273315 387.706665 1478.718384 399.068604 1467.064941 418.588013 C 1460.947021 428.493408 1457.74231 433.737305 1457.45105 434.320007 L 1479.301025 434.320007 L 1479.301025 488.507996 L 1408.506958 488.507996 L 1408.506958 521.719971 L 1433.853027 492.004028 C 1444.049683 498.996033 1455.702881 507.590271 1468.812988 517.786987 L 1467.938965 514.728027 C 1492.993774 473.358459 1510.473633 421.064636 1520.379028 357.844971 L 1583.307007 363.526001 C 1579.811035 382.754089 1576.606323 397.90332 1573.692993 408.973999 L 1656.286011 408.973999 L 1656.286011 481.515991 L 1643.613037 481.515991 C 1640.408325 512.688843 1635.74707 540.510864 1629.629028 564.983032 C 1623.510986 589.455078 1615.062378 612.178894 1604.282959 633.155029 C 1620.306396 652.674438 1642.15625 674.23291 1669.833008 697.830994 Z M 1428.171997 434.320007 L 1408.506958 423.39502 L 1408.506958 434.320007 Z M 1564.515991 567.167969 C 1573.838745 542.11322 1580.539307 513.562866 1584.618042 481.515991 L 1550.968994 481.515991 L 1544.414063 496.374023 C 1549.075317 522.885498 1555.776001 546.483215 1564.515991 567.167969 Z M 1368.302979 634.028992 L 1358.251953 651.072021 L 1386.219971 663.744995 C 1393.794678 656.461609 1401.078003 646.556396 1408.070068 634.028992 Z"/>
        <g id="g1">
            <path id="path2" fill="#000000" fill-opacity="0.286374" fill-rule="evenodd" stroke="none" d="M 1107 557 C 1107 258.766235 865.233765 17 567 17 C 268.766235 17 27 258.766235 27 557 C 27 855.233765 268.766235 1097 567 1097 C 865.233765 1097 1107 855.233765 1107 557 Z"/>
            <path id="path3" fill="#ffffff" fill-rule="evenodd" stroke="none" d="M 567 17 C 865.233765 17 1107 258.766235 1107 557 C 1107 855.233765 865.233765 1097 567 1097 C 268.766235 1097 27 855.233765 27 557 C 27 258.766235 268.766235 17 567 17 Z M 1091 557 C 1091 846.397217 856.397217 1081 567 1081 C 277.602783 1081 43 846.397217 43 557 C 43 267.602783 277.602783 33 567 33 C 856.397217 33 1091 267.602783 1091 557 Z"/>
        </g>
        <path id="BG" fill="#ffffff" fill-rule="evenodd" stroke="none" d="M 567 1006.537598 C 567 1006.537598 508.881897 1010.268188 453 996.536133 C 404.024231 984.501221 353 949.529297 353 949.529297 C 353 949.529297 364.572449 935.219727 369 927.526062 C 373.239349 920.159546 379 904.522705 379 904.522705 C 379 904.522705 337.959442 882.103943 319 868.517456 C 298.0448 853.500732 260 818.510132 260 818.510132 L 292 769.50293 C 292 769.50293 274.251007 786.133667 257 789.505859 C 239.053345 793.014038 223 779.504395 223 779.504395 C 223 779.504395 235.416504 776.295105 248 768.502808 C 256.045166 763.520813 264.479034 756.147949 271 750.500183 C 278.69577 743.8349 286.633575 735.178284 293 726.496643 C 303.840149 711.714478 311 697.492371 311 697.492371 C 311 697.492371 301.092041 704.291382 296 706.493713 C 290.954132 708.676086 279 711.494446 279 711.494446 C 279 711.494446 293.202148 699.007935 308 676.489319 C 314.5242 666.561096 315.907227 662.759094 319 655.486267 C 322.300415 647.725037 327 631.482727 327 631.482727 C 327 631.482727 332.84433 665.416992 339 683.490356 C 346.213745 704.670349 363 727.496765 363 727.496765 C 363 727.496765 344.991699 689.440613 340 655.486267 C 335.774414 626.743164 335 568.473511 335 568.473511 C 335 568.473511 324.97937 591.201904 319 600.47821 C 314.004456 608.228149 303 619.480957 303 619.480957 C 303 619.480957 309.514893 601.80127 309 579.475098 C 308.531891 559.177124 314 524.467102 314 524.467102 C 314 524.467102 262.230042 502.432373 245 454.456848 C 223.269318 393.949707 235.216949 353.482361 253 333.439148 C 271.192413 312.93457 296 314.436401 296 314.436401 C 296 314.436401 282.837616 320.486206 278 323.437744 C 273.50061 326.182861 268 331.438843 268 331.438843 C 268 331.438843 286.397797 325.330322 302 333.439148 C 325.276489 345.536499 337 377.445618 337 377.445618 C 337 377.445618 347.186707 353.444275 343 337.439758 C 338.705017 321.021362 319 311.435913 319 311.435913 C 319 311.435913 333.851471 291.644897 343 282.431641 C 353.475525 271.88208 380 251.427124 380 251.427124 C 380 251.427124 363.802002 258.061035 358 261.428589 C 350.723541 265.651855 337 275.430664 337 275.430664 C 337 275.430664 362.11969 225.247803 428 190.418213 C 502.926086 150.806396 567 157.41333 567 157.41333 C 567 157.41333 631.073914 150.806274 706 190.418213 C 771.88031 225.247803 797 275.430664 797 275.430664 C 797 275.430664 783.276489 265.651855 776 261.428589 C 770.197998 258.061035 754 251.427124 754 251.427124 C 754 251.427124 780.524475 271.881958 791 282.431641 C 800.14856 291.644897 815 311.435913 815 311.435913 C 815 311.435913 795.294983 321.02124 791 337.439758 C 786.813293 353.444275 797 377.445618 797 377.445618 C 797 377.445618 808.723511 345.536499 832 333.439148 C 847.602173 325.330322 866 331.438843 866 331.438843 C 866 331.438843 860.49939 326.182861 856 323.437622 C 851.162354 320.486206 838 314.436279 838 314.436279 C 838 314.436279 862.807617 312.93457 881 333.439148 C 898.783081 353.482361 910.730713 393.949707 889 454.456848 C 871.769958 502.432312 820 524.467041 820 524.467041 C 820 524.467041 825.46814 559.177124 825 579.475098 C 824.485107 601.80127 831 619.480957 831 619.480957 C 831 619.480957 819.995544 608.228149 815 600.47821 C 809.02063 591.201843 799 568.473511 799 568.473511 C 799 568.473511 798.225586 626.743164 794 655.486206 C 789.008301 689.440613 771 727.496765 771 727.496765 C 771 727.496765 787.786255 704.670288 795 683.490356 C 801.15564 665.416931 807 631.482727 807 631.482727 C 807 631.482727 811.699585 647.725037 815 655.486206 C 818.092773 662.759094 819.47583 666.561096 826 676.489319 C 840.797852 699.007935 855 711.494446 855 711.494446 C 855 711.494446 843.045898 708.676086 838 706.493713 C 832.907959 704.291321 823 697.492371 823 697.492371 C 823 697.492371 830.159851 711.714417 841 726.496643 C 847.366455 735.178284 855.304199 743.834839 863 750.500122 C 869.520996 756.147949 877.954834 763.520813 886 768.502808 C 898.583496 776.295105 911 779.504395 911 779.504395 C 911 779.504395 894.946655 793.014038 877 789.505859 C 859.749023 786.133667 842 769.50293 842 769.50293 L 874 818.510071 C 874 818.510071 835.9552 853.500732 815 868.517456 C 796.040527 882.103943 775.20813 894.291382 754 904 C 739.002502 910.865479 708 920 708 920 C 708 920 685.055847 951.33606 657 977 C 626.762573 1004.659546 567 1006.537598 567 1006.537598 Z"/>
        <path id="STROCK" fill="#ffffff" fill-rule="evenodd" stroke="none" d="M 566.093628 1014.59967 C 566.673767 1014.570435 567.105225 1014.546143 567.381836 1014.529297 C 568.348694 1014.496094 569.982544 1014.409851 572.193359 1014.245911 C 575.998596 1013.963745 580.226135 1013.539063 584.773621 1012.942688 C 597.788147 1011.236023 610.816162 1008.488281 623.0578 1004.44165 C 638.90448 999.203369 652.287903 992.152527 662.399658 982.902893 C 666.643799 979.020508 670.909302 974.888794 675.182068 970.540039 C 685.028076 960.519165 694.479675 949.807922 703.215088 939.098083 C 706.272583 935.349487 709.024658 931.865784 711.429688 928.73407 C 711.930847 928.081482 712.395935 927.471375 712.823975 926.906067 C 714.639893 926.356934 716.651245 925.739746 718.810852 925.065918 C 725.205811 923.070801 731.60321 920.986084 737.590759 918.910278 C 740.699402 917.832581 743.621643 916.782898 746.32666 915.768188 C 750.610657 914.161194 754.300781 912.660706 757.329895 911.274048 C 778.80188 901.444641 800.093445 889.041626 819.659912 875.020203 C 825.855225 870.580505 833.727112 864.300293 842.924377 856.551392 C 844.313416 855.381042 845.727234 854.181824 847.163635 852.955627 C 854.486145 846.705017 862.096191 840.016602 869.554871 833.329346 C 872.164551 830.989502 874.56958 828.816406 876.714539 826.865173 C 877.46637 826.181335 878.132324 825.573669 878.705505 825.049194 C 879.051147 824.732971 879.290161 824.513672 879.415588 824.398315 L 884.403687 819.810669 L 880.698486 814.13623 L 868.49353 795.444702 C 870.254272 796.059143 872.006897 796.575684 873.749451 796.986877 C 874.323486 797.122314 874.895386 797.24585 875.46521 797.357239 C 886.122498 799.440491 896.651001 797.035706 906.501953 791.885437 C 909.03595 790.560669 911.338379 789.142029 913.380554 787.713623 C 914.648499 786.826843 915.583069 786.103394 916.151062 785.625366 L 928.016785 775.639832 L 913.001953 771.758911 C 912.962708 771.748779 912.833069 771.713745 912.61908 771.653259 C 912.228516 771.542786 911.765564 771.40564 911.236267 771.241211 C 909.68811 770.760376 907.946045 770.163574 906.059265 769.44696 C 900.66095 767.396667 895.245667 764.818481 890.211792 761.701294 C 889.021912 760.964417 887.780334 760.142822 886.486633 759.238159 C 883.616089 757.230652 880.55188 754.861267 877.129578 752.037109 C 874.57959 749.9328 873.123718 748.684875 868.237488 744.452881 C 860.993774 738.179138 853.462769 729.963379 847.451294 721.765747 C 846.277527 720.1651 845.124817 718.539795 843.995422 716.897278 C 845.947449 717.44989 847.992065 717.993042 850.034729 718.510437 C 850.847839 718.716431 851.603638 718.903748 852.283691 719.069214 C 852.696594 719.169678 852.996277 719.241394 853.164185 719.280945 L 884.32959 726.628662 L 860.282288 705.486328 C 860.220032 705.431641 860.053406 705.281555 859.789063 705.037354 C 859.319153 704.603271 858.764709 704.077515 858.132385 703.461487 C 856.29187 701.668396 854.219055 699.528748 851.96698 697.053101 C 845.486938 689.929626 838.919128 681.581726 832.685669 672.095886 C 829.06311 666.583313 827.065063 663.036072 825.283997 659.141846 C 825.014282 658.552124 824.739502 657.933777 824.440308 657.244873 C 824.158264 656.595581 823.870056 655.920166 823.459351 654.949097 C 823.348511 654.687073 822.957336 653.760864 822.929626 653.695313 C 822.710083 653.175781 822.536316 652.765442 822.362 652.35553 C 821.727173 650.862732 820.972168 648.862549 820.132385 646.462097 C 819.750854 645.371582 819.355286 644.208252 818.948181 642.982239 C 817.954163 639.988098 816.939148 636.765198 815.960144 633.540283 C 815.617004 632.409973 815.303162 631.360962 815.025452 630.420959 C 814.92865 630.093262 814.843445 629.803162 814.77063 629.553955 C 814.697815 629.304321 814.697815 629.304321 814.684814 629.259216 L 807.027466 602.794495 C 807.45929 603.518188 807.875549 604.191406 808.275879 604.8125 C 809.561157 606.806396 811.18512 609.005981 813.107727 611.400757 C 813.923096 612.416321 814.787048 613.460266 815.693726 614.528198 C 817.794678 617.002808 820.031494 619.498474 822.266785 621.899902 C 823.04834 622.739563 823.775146 623.508789 824.429443 624.192383 C 824.827515 624.608276 825.117065 624.907349 825.280396 625.074341 L 851.446838 651.83136 L 838.506592 616.714844 C 838.484619 616.655273 838.420837 616.474792 838.321167 616.179199 C 838.141113 615.645569 837.936646 615.008179 837.713684 614.272949 C 837.062927 612.126892 836.406982 609.657532 835.792114 606.91217 C 833.860474 598.286865 832.781494 589.040833 832.997864 579.659546 C 833.13269 573.814026 832.819641 566.667236 832.139709 558.467041 C 831.706421 553.240967 831.134644 547.720764 830.457947 542.044495 C 829.921143 537.541138 829.347656 533.182617 828.772583 529.117615 C 830.9245 528.009277 833.233337 526.746948 835.668213 525.32843 C 844.842224 519.983765 854.009827 513.491638 862.591614 505.797974 C 878.014038 491.971619 889.834229 475.802246 896.529175 457.160889 C 907.114014 427.688263 910.622681 400.989655 907.757324 377.793274 C 905.242065 357.430878 897.825989 340.349548 886.984192 328.129761 C 882.841858 323.460968 878.20636 319.573608 873.173828 316.417969 C 865.99585 311.917023 858.34613 309.085754 850.632263 307.588715 C 845.592102 306.610535 841.276123 306.326019 838.043274 306.428009 C 837.819641 306.435059 837.643433 306.443207 837.516602 306.450897 L 821.967529 307.392151 L 821.398743 306.634216 C 821.344543 306.561981 821.243713 306.42807 821.099121 306.236633 C 820.860962 305.921356 820.584595 305.556763 820.272705 305.146851 C 819.384521 303.979645 818.387634 302.680603 817.304077 301.282288 C 816.393677 300.107513 815.476379 298.932556 814.55658 297.763977 L 818.549805 300.609406 L 804.153809 271.849731 C 803.993103 271.528748 803.711731 270.992157 803.306091 270.254364 C 802.659912 269.079224 801.882385 267.731812 800.96991 266.22644 C 798.400635 261.987885 795.248718 257.291626 791.484985 252.252975 C 780.796936 237.944473 767.317444 223.666794 750.814148 210.355377 C 738.406738 200.347687 724.731262 191.271851 709.739075 183.345764 C 679.757385 167.495056 649.357666 157.642258 619.679504 152.655304 C 599.596863 149.280716 582.490479 148.510239 569.468384 149.21843 C 568.44989 149.273819 567.624634 149.330536 567 149.381271 C 566.375366 149.330536 565.550171 149.273819 564.531677 149.21843 C 551.509583 148.510269 534.403259 149.280762 514.320618 152.655334 C 484.642456 157.642288 454.242676 167.495071 424.260956 183.345764 C 409.268707 191.271851 395.593292 200.347687 383.185883 210.355377 C 366.682556 223.666794 353.203033 237.944473 342.514984 252.252975 C 338.751251 257.291626 335.599335 261.987885 333.03009 266.22644 C 332.117584 267.731812 331.340057 269.079224 330.693939 270.254364 C 330.288269 270.992157 330.006866 271.528748 329.846191 271.849731 L 315.450195 300.609314 L 319.443604 297.763794 C 318.523743 298.932434 317.606415 300.107422 316.695953 301.282288 C 315.612366 302.680603 314.615479 303.979614 313.727295 305.146851 C 313.415405 305.556732 313.139008 305.921356 312.900879 306.236633 C 312.756287 306.42807 312.655487 306.561981 312.601288 306.634216 L 312.032379 307.392334 L 296.483429 306.451019 C 296.356598 306.443329 296.180359 306.435181 295.956696 306.428131 C 292.723785 306.326141 288.407806 306.610626 283.367584 307.588806 C 275.653778 309.085846 268.004059 311.917084 260.82608 316.41803 C 255.793579 319.573669 251.158127 323.460968 247.015823 328.129761 C 236.173996 340.349548 228.75798 357.430878 226.242691 377.793274 C 223.377335 400.989655 226.885971 427.688263 237.47084 457.160889 C 244.165756 475.802277 255.985992 491.971649 271.408386 505.798004 C 279.990204 513.491699 289.157776 519.983826 298.331818 525.328491 C 300.766663 526.747009 303.075562 528.009338 305.227478 529.117676 C 304.652374 533.182739 304.078918 537.54126 303.542023 542.044617 C 302.865326 547.720825 302.293579 553.241028 301.86026 558.467102 C 301.180389 566.667236 300.86731 573.814026 301.002136 579.659546 C 301.218475 589.040833 300.139526 598.286865 298.207855 606.91217 C 297.593048 609.657532 296.937103 612.126892 296.286316 614.272949 C 296.063324 615.008179 295.858917 615.645569 295.678864 616.179199 C 295.579132 616.474792 295.515381 616.655273 295.493439 616.714844 L 282.553131 651.83136 L 308.719604 625.074341 C 308.882904 624.907349 309.172485 624.608276 309.570557 624.192383 C 310.224884 623.508789 310.95163 622.739563 311.733215 621.899902 C 313.968536 619.498474 316.205322 617.002808 318.306274 614.528198 C 319.212982 613.460266 320.076935 612.416321 320.892273 611.400757 C 322.81488 609.005981 324.438873 606.806396 325.724121 604.8125 C 326.124481 604.191406 326.54071 603.51825 326.972565 602.794556 L 319.315216 629.259216 L 319.22937 629.553955 C 319.156555 629.803162 319.07132 630.093323 318.974518 630.420959 C 318.696808 631.360962 318.382965 632.409973 318.039856 633.540283 C 317.060852 636.765259 316.045837 639.988159 315.051788 642.9823 C 314.644745 644.208313 314.249115 645.371643 313.867584 646.462158 C 313.027802 648.86261 312.272827 650.862793 311.638 652.355652 C 311.463684 652.765503 311.289886 653.175842 311.070343 653.695374 C 311.042419 653.761475 310.651459 654.687195 310.540649 654.949158 C 310.129944 655.920227 309.841736 656.595642 309.559692 657.244934 C 309.260498 657.933777 308.985718 658.552063 308.716034 659.141785 C 306.934967 663.036072 304.93689 666.583313 301.314331 672.095947 C 295.080841 681.581726 288.513092 689.929626 282.03302 697.053101 C 279.780945 699.528748 277.708099 701.668396 275.867645 703.461487 C 275.235321 704.077515 274.680847 704.603271 274.210907 705.037354 C 273.946564 705.281555 273.779938 705.431641 273.717682 705.486328 L 249.670471 726.628662 L 280.835785 719.280945 C 281.003723 719.241394 281.303406 719.169678 281.716339 719.069214 C 282.396393 718.903748 283.15213 718.716431 283.96524 718.510437 C 286.007874 717.993042 288.052551 717.449951 290.004608 716.897339 C 288.875183 718.539856 287.722534 720.1651 286.548737 721.765747 C 280.537323 729.963318 273.006256 738.179199 265.762512 744.452942 C 260.875946 748.685181 259.420258 749.932922 256.870239 752.037292 C 253.448059 754.861328 250.383972 757.230591 247.513489 759.238037 C 246.219742 760.142761 244.978134 760.964417 243.788147 761.701294 C 238.754349 764.818481 233.339035 767.396667 227.940735 769.44696 C 226.05397 770.163574 224.311859 770.760376 222.763702 771.241211 C 222.234451 771.40564 221.771469 771.542786 221.38092 771.653259 C 221.166931 771.713745 221.037277 771.748779 220.998032 771.758911 L 205.9832 775.639832 L 217.848907 785.625366 C 218.416931 786.103394 219.351471 786.826843 220.619415 787.713623 C 222.661636 789.142029 224.964066 790.560669 227.498032 791.885437 C 237.349014 797.035706 247.877518 799.440491 258.53479 797.357239 C 259.104523 797.245911 259.676392 797.122375 260.250336 796.986938 C 261.992981 796.575745 263.745697 796.059204 265.506531 795.444702 L 253.301544 814.136292 L 249.596329 819.81073 L 254.584442 824.398376 C 254.709854 824.513733 254.948853 824.733032 255.29451 825.049255 C 255.867691 825.57373 256.533661 826.181396 257.285431 826.865234 C 259.43045 828.816467 261.83548 830.989563 264.44516 833.329407 C 271.903839 840.016663 279.513885 846.705017 286.836365 852.955688 C 288.272827 854.181824 289.686584 855.381104 291.075592 856.551392 C 300.272858 864.300293 308.144745 870.580505 314.340088 875.020142 C 319.511261 878.725891 326.428131 883.192322 334.779236 888.280029 C 336.531799 889.347717 338.339722 890.437866 340.198364 891.548279 C 347.853668 896.121765 356.042847 900.846558 364.230255 905.458679 C 365.903168 906.401001 367.50647 907.299438 369.026733 908.147217 C 368.127014 910.403198 367.208984 912.626648 366.300873 914.727722 C 365.691803 916.136902 365.102295 917.455261 364.538544 918.664978 C 363.612762 920.651489 362.775269 922.30365 362.066223 923.535767 C 360.943634 925.486389 359.112915 928.213135 356.766266 931.459045 C 356.329254 932.063477 355.876831 932.682556 355.410461 933.314575 C 353.525726 935.868469 351.497406 938.520813 349.468048 941.110352 C 348.757111 942.017517 348.097473 942.851196 347.506653 943.591797 C 347.300934 943.84967 347.118896 944.076965 346.962677 944.271362 C 346.870758 944.385742 346.806641 944.465271 346.779602 944.498718 L 341.334076 951.232239 L 348.477203 956.128113 C 348.647278 956.24469 348.957428 956.454712 349.401978 956.752075 C 350.127777 957.237488 350.976593 957.797729 351.942749 958.426514 C 354.686035 960.211914 357.830292 962.196655 361.330475 964.331116 C 371.316193 970.420532 382.178314 976.507446 393.562225 982.195068 C 411.332031 991.073181 428.716675 998.146729 445.168213 1002.747803 C 447.161133 1003.305115 449.13559 1003.824524 451.090942 1004.304993 C 453.199127 1004.823059 455.32843 1005.32135 457.478119 1005.800232 C 477.711578 1010.307617 499.233429 1013.006592 521.151489 1014.240356 C 536.587585 1015.109253 550.576172 1015.174744 562.209106 1014.763794 C 563.68158 1014.711792 564.979797 1014.655884 566.093628 1014.59967 Z M 453 996.536133 C 508.881897 1010.268188 567 1006.537598 567 1006.537598 C 567 1006.537598 626.762573 1004.659546 657 977 C 685.055847 951.33606 708 920 708 920 C 708 920 739.002502 910.865479 754 904 C 775.20813 894.291382 796.040527 882.103943 815 868.517456 C 835.9552 853.500732 874 818.510071 874 818.510071 L 842 769.50293 C 842 769.50293 859.749023 786.133667 877 789.505859 C 894.946655 793.014038 911 779.504395 911 779.504395 C 911 779.504395 898.583496 776.295105 886 768.502808 C 877.954834 763.520813 869.520996 756.147949 863 750.500122 C 855.304199 743.834839 847.366455 735.178284 841 726.496643 C 830.159851 711.714417 823 697.492371 823 697.492371 C 823 697.492371 832.907959 704.291321 838 706.493713 C 843.045898 708.676086 855 711.494446 855 711.494446 C 855 711.494446 840.797852 699.007935 826 676.489319 C 819.47583 666.561096 818.092773 662.759094 815 655.486206 C 811.699585 647.725037 807 631.482727 807 631.482727 C 807 631.482727 801.15564 665.416931 795 683.490356 C 787.786255 704.670288 771 727.496765 771 727.496765 C 771 727.496765 789.008301 689.440613 794 655.486206 C 798.225586 626.743164 799 568.473511 799 568.473511 C 799 568.473511 809.02063 591.201843 815 600.47821 C 819.995544 608.228149 831 619.480957 831 619.480957 C 831 619.480957 824.485107 601.80127 825 579.475098 C 825.46814 559.177124 820 524.467041 820 524.467041 C 820 524.467041 871.769958 502.432312 889 454.456848 C 910.730713 393.949707 898.783081 353.482361 881 333.439148 C 862.807617 312.93457 838 314.436279 838 314.436279 C 838 314.436279 851.162354 320.486206 856 323.437622 C 860.49939 326.182861 866 331.438843 866 331.438843 C 866 331.438843 847.602173 325.330322 832 333.439148 C 808.723511 345.536499 797 377.445618 797 377.445618 C 797 377.445618 786.813293 353.444275 791 337.439758 C 795.294983 321.02124 815 311.435913 815 311.435913 C 815 311.435913 800.14856 291.644897 791 282.431641 C 780.524475 271.881958 754 251.427124 754 251.427124 C 754 251.427124 770.197998 258.061035 776 261.428589 C 783.276489 265.651855 797 275.430664 797 275.430664 C 797 275.430664 771.88031 225.247803 706 190.418213 C 631.073914 150.806274 567 157.41333 567 157.41333 C 567 157.41333 502.926086 150.806396 428 190.418213 C 362.11969 225.247803 337 275.430664 337 275.430664 C 337 275.430664 350.723541 265.651855 358 261.428589 C 363.802002 258.061035 380 251.427124 380 251.427124 C 380 251.427124 353.475525 271.88208 343 282.431641 C 333.851471 291.644897 319 311.435913 319 311.435913 C 319 311.435913 338.705017 321.021362 343 337.439758 C 347.186707 353.444275 337 377.445618 337 377.445618 C 337 377.445618 325.276489 345.536499 302 333.439148 C 286.397797 325.330322 268 331.438843 268 331.438843 C 268 331.438843 273.50061 326.182861 278 323.437744 C 282.837616 320.486206 296 314.436401 296 314.436401 C 296 314.436401 271.192413 312.93457 253 333.439148 C 235.216949 353.482361 223.269318 393.949707 245 454.456848 C 262.230042 502.432373 314 524.467102 314 524.467102 C 314 524.467102 308.531891 559.177124 309 579.475098 C 309.514893 601.80127 303 619.480957 303 619.480957 C 303 619.480957 314.004456 608.228149 319 600.47821 C 324.97937 591.201904 335 568.473511 335 568.473511 C 335 568.473511 335.774414 626.743164 340 655.486267 C 344.991699 689.440613 363 727.496765 363 727.496765 C 363 727.496765 346.213745 704.670349 339 683.490356 C 332.84433 665.416992 327 631.482727 327 631.482727 C 327 631.482727 322.300415 647.725037 319 655.486267 C 315.907227 662.759094 314.5242 666.561096 308 676.489319 C 293.202148 699.007935 279 711.494446 279 711.494446 C 279 711.494446 290.954132 708.676086 296 706.493713 C 301.092041 704.291382 311 697.492371 311 697.492371 C 311 697.492371 303.840149 711.714478 293 726.496643 C 286.633575 735.178284 278.69577 743.8349 271 750.500183 C 264.479034 756.147949 256.045166 763.520813 248 768.502808 C 235.416504 776.295105 223 779.504395 223 779.504395 C 223 779.504395 239.053345 793.014038 257 789.505859 C 274.251007 786.133667 292 769.50293 292 769.50293 L 260 818.510132 C 260 818.510132 298.0448 853.500732 319 868.517456 C 337.959442 882.103943 379 904.522705 379 904.522705 C 379 904.522705 373.239349 920.159546 369 927.526062 C 364.572449 935.219727 353 949.529297 353 949.529297 C 353 949.529297 404.024231 984.501221 453 996.536133 Z M 818.499451 318.629913 L 823.099731 316.392151 L 834.658936 321.7052 C 834.803894 321.771851 835.083679 321.901062 835.478882 322.084625 C 836.018372 322.335205 836.608704 322.61087 837.239441 322.907135 C 836.828308 323.016632 836.417786 323.131775 836.007935 323.252686 C 833.338867 324.04007 830.767029 325.064026 828.31073 326.340607 C 819.020996 331.168732 810.932495 338.804016 803.889893 348.431519 C 802.133667 350.832367 800.486389 353.297455 798.945984 355.799774 C 798.573669 353.735504 798.301758 351.723938 798.144531 349.789764 C 797.815979 345.747833 798.011536 342.247345 798.739563 339.464386 C 799.965332 334.778687 803.195435 330.196686 807.923523 325.967346 C 810.2677 323.870514 812.810059 322.011292 815.349426 320.430634 C 816.231995 319.881256 817.044067 319.40979 817.760437 319.019531 C 817.999634 318.889221 818.206055 318.780121 818.376465 318.692596 C 818.457458 318.651001 818.499451 318.629974 818.499451 318.629913 Z M 297.992188 323.252716 C 297.582336 323.131805 297.171814 323.016663 296.760712 322.907166 C 297.391357 322.610931 297.981659 322.335327 298.521088 322.084747 C 298.91626 321.901215 299.196045 321.771973 299.341003 321.705353 L 310.900513 316.392273 L 315.500488 318.629913 C 315.500488 318.629913 315.54248 318.65094 315.623535 318.692596 C 315.793945 318.780121 316.000305 318.889221 316.239532 319.019531 C 316.955902 319.40979 317.767944 319.881256 318.650513 320.430634 C 321.189911 322.011322 323.7323 323.870544 326.076447 325.967377 C 330.804596 330.196747 334.034698 334.778748 335.260437 339.464386 C 335.988434 342.247345 336.184052 345.747833 335.855438 349.789764 C 335.698212 351.723938 335.426331 353.735504 335.053986 355.799774 C 333.513611 353.297455 331.866333 350.832367 330.110107 348.431519 C 323.067474 338.804016 314.979034 331.168732 305.68927 326.340607 C 303.233032 325.064056 300.661194 324.0401 297.992188 323.252716 Z"/>
        <path id="FRONT" fill="#000000" fill-rule="evenodd" stroke="none" d="M 567 1006.537598 C 567 1006.537598 508.881897 1010.268188 453 996.536133 C 404.024231 984.501221 353 949.529297 353 949.529297 C 353 949.529297 364.572449 935.219727 369 927.526062 C 373.239349 920.159546 379 904.522705 379 904.522705 C 379 904.522705 337.959442 882.103943 319 868.517456 C 298.0448 853.500732 260 818.510132 260 818.510132 L 292 769.50293 C 292 769.50293 274.251007 786.133667 257 789.505859 C 239.053345 793.014038 223 779.504395 223 779.504395 C 223 779.504395 235.416504 776.295105 248 768.502808 C 256.045166 763.520813 264.479034 756.147949 271 750.500183 C 278.69577 743.8349 286.633575 735.178284 293 726.496643 C 303.840149 711.714478 311 697.492371 311 697.492371 C 311 697.492371 301.092041 704.291382 296 706.493713 C 290.954132 708.676086 279 711.494446 279 711.494446 C 279 711.494446 293.202148 699.007935 308 676.489319 C 314.5242 666.561096 315.907227 662.759094 319 655.486267 C 322.300415 647.725037 327 631.482727 327 631.482727 C 327 631.482727 332.84433 665.416992 339 683.490356 C 346.213745 704.670349 363 727.496765 363 727.496765 C 363 727.496765 344.991699 689.440613 340 655.486267 C 335.774414 626.743164 335 568.473511 335 568.473511 C 335 568.473511 324.97937 591.201904 319 600.47821 C 314.004456 608.228149 303 619.480957 303 619.480957 C 303 619.480957 309.514893 601.80127 309 579.475098 C 308.531891 559.177124 314 524.467102 314 524.467102 C 314 524.467102 262.230042 502.432373 245 454.456848 C 223.269318 393.949707 235.216949 353.482361 253 333.439148 C 271.192413 312.93457 296 314.436401 296 314.436401 C 296 314.436401 282.837616 320.486206 278 323.437744 C 273.50061 326.182861 268 331.438843 268 331.438843 C 268 331.438843 286.397797 325.330322 302 333.439148 C 325.276489 345.536499 337 377.445618 337 377.445618 C 337 377.445618 347.186707 353.444275 343 337.439758 C 338.705017 321.021362 319 311.435913 319 311.435913 C 319 311.435913 333.851471 291.644897 343 282.431641 C 353.475525 271.88208 380 251.427124 380 251.427124 C 380 251.427124 363.802002 258.061035 358 261.428589 C 350.723541 265.651855 337 275.430664 337 275.430664 C 337 275.430664 362.11969 225.247803 428 190.418213 C 502.926086 150.806396 567 157.41333 567 157.41333 C 567 157.41333 631.073914 150.806274 706 190.418213 C 771.88031 225.247803 797 275.430664 797 275.430664 C 797 275.430664 783.276489 265.651855 776 261.428589 C 770.197998 258.061035 754 251.427124 754 251.427124 C 754 251.427124 780.524475 271.881958 791 282.431641 C 800.14856 291.644897 815 311.435913 815 311.435913 C 815 311.435913 795.294983 321.02124 791 337.439758 C 786.813293 353.444275 797 377.445618 797 377.445618 C 797 377.445618 808.723511 345.536499 832 333.439148 C 847.602173 325.330322 866 331.438843 866 331.438843 C 866 331.438843 860.49939 326.182861 856 323.437622 C 851.162354 320.486206 838 314.436279 838 314.436279 C 838 314.436279 862.807617 312.93457 881 333.439148 C 898.783081 353.482361 910.730713 393.949707 889 454.456848 C 871.769958 502.432312 820 524.467041 820 524.467041 C 820 524.467041 825.46814 559.177124 825 579.475098 C 824.485107 601.80127 831 619.480957 831 619.480957 C 831 619.480957 819.995544 608.228149 815 600.47821 C 809.02063 591.201843 799 568.473511 799 568.473511 C 799 568.473511 798.225586 626.743164 794 655.486206 C 789.008301 689.440613 771 727.496765 771 727.496765 C 771 727.496765 787.786255 704.670288 795 683.490356 C 801.15564 665.416931 807 631.482727 807 631.482727 C 807 631.482727 811.699585 647.725037 815 655.486206 C 818.092773 662.759094 819.47583 666.561096 826 676.489319 C 840.797852 699.007935 855 711.494446 855 711.494446 C 855 711.494446 843.045898 708.676086 838 706.493713 C 832.907959 704.291321 823 697.492371 823 697.492371 C 823 697.492371 830.159851 711.714417 841 726.496643 C 847.366455 735.178284 855.304199 743.834839 863 750.500122 C 869.520996 756.147949 877.954834 763.520813 886 768.502808 C 898.583496 776.295105 911 779.504395 911 779.504395 C 911 779.504395 894.946655 793.014038 877 789.505859 C 859.749023 786.133667 842 769.50293 842 769.50293 L 874 818.510071 C 874 818.510071 835.9552 853.500732 815 868.517456 C 796.040527 882.103943 775.20813 894.291382 754 904 C 739.002502 910.865479 708 920 708 920 C 708 920 685.055847 951.33606 657 977 C 626.762573 1004.659546 567 1006.537598 567 1006.537598 Z M 421 769 C 401.818787 828.063965 395 938 395 938 C 395 938 405.075836 918.313965 409 908 C 416.115295 889.298584 419.7948 863.904724 426.192932 850.487183 C 428.212769 846.251343 446 818 446 818 C 446 818 442.156799 831.376892 441.276947 838.150513 C 440.551392 843.736206 441 855 441 855 C 441 855 454.841827 822.31842 464 808 C 474.772827 791.157104 492 775 492 775 C 492 775 486.916718 786.854248 485 793 C 482.857605 799.869324 480 814 480 814 C 480 814 499.333832 786.806641 510 774 C 513.774109 769.468567 517.538208 764.85614 522 761 C 527.80603 755.982117 559.554321 739.352051 595 723 C 625.7099 708.832703 661.78656 687.012268 666 686 C 670.225891 684.984741 679 685 679 685 L 712 689 C 712 689 725.3927 692.278015 728 681 C 730.041382 672.169983 718 668 718 668 C 718 668 680.13678 660.521545 661 661 C 653.220703 661.194519 642.142639 663.445068 638 665 C 613.296814 674.272278 590.177856 688.027405 567 700 C 551.896057 707.802002 534.865295 715.904785 523 724 C 510.216064 732.721924 486 754 486 754 L 449 782 C 449 782 491.525421 739.751465 471 698 C 463.610321 682.968445 455.558807 673.63324 427 672 C 423.542999 671.802307 409.874542 673.982544 407 689 C 405.296356 697.90033 422 711 422 711 C 422 711 427.393463 707.759216 430 706 C 433.757996 703.463623 441 698 441 698 C 441 698 444.405029 704.828918 438 710 C 429.137939 717.154724 429 727 429 727 C 429 727 435.867737 722.204956 439 721 C 441.904175 719.882813 448 719 448 719 C 448 719 440.058258 724.013916 434 733 C 431.993103 735.976746 430 744 430 744 C 430 744 434.696747 741.269592 437.045135 740.404419 C 441.03009 738.936279 449 737 449 737 C 449 737 428.764832 745.090088 421 769 Z M 693 889 C 693 889 708.169312 878.089478 716 873 C 726.78479 865.99054 749 853 749 853 C 749 853 762.128174 841.226196 752 827 C 743.622253 815.232483 729 820 729 820 C 729 820 694.90332 832.244507 677 842 C 673.251648 844.04248 669.520508 846.55481 667 850 C 664.258667 853.74707 662 863 662 863 C 662 863 660.110779 873.626343 660 879 C 659.917297 883.013 661 891 661 891 C 661 891 673.563538 884.771729 680 882 C 685.912781 879.453735 698 875 698 875 C 698 875 696.812927 879.713501 696 882 C 695.149597 884.391907 693 889 693 889 Z M 635 849 C 635 849 660.426758 830.702698 673.521484 822.653625 C 693.31543 810.486694 734 789 734 789 C 734 789 734.948181 792.222107 735 793.882629 C 735.074768 796.277222 734 801 734 801 C 734 801 751.226196 780.687805 737 765 C 723.136963 749.712646 701 762 701 762 C 701 762 682.131165 770.5578 673 775 C 654.890869 783.809875 628.894531 792.661255 620 803 C 617.276062 806.166199 615.411194 810.06897 614 814 C 611.018005 822.306396 609 840 609 840 C 609 840 621.129639 835.96759 627.194458 834.451416 C 633.129639 832.96759 645 831 645 831 C 645 831 640.74939 836.823486 639.015137 839.972717 C 637.426514 842.857544 635 849 635 849 Z M 553 802 C 553 802 566.485413 796.317383 573 793 C 580.184387 789.341553 594 781 594 781 C 594 781 590.965515 789.793762 589 794 C 587.547119 797.109192 585 804 585 804 C 585 804 604.071838 783.60376 617 774 C 627.405212 766.270447 645.178162 758.058472 658 751 C 672.497925 743.01886 699 729 699 729 C 699 729 695.152039 737.079712 693 741 C 691.129395 744.407654 687 751 687 751 C 687 751 694.571655 748.203369 702 741 C 706.26062 736.868408 712 727 712 727 C 712 727 719.563965 732.738403 723 736 C 726.593994 739.41156 733 747 733 747 C 733 747 740.954468 736.076355 730 725 C 726.171631 721.129028 719.635742 716.206177 713 711 C 705.210205 704.888367 696.928894 699.023804 688 698 C 679.500427 697.025452 662.856323 705.728027 646.499512 714.280518 C 639.001953 718.200684 631.564758 722.089355 625 725 C 608.910034 732.133789 594.013245 738.327576 577 748 C 564.20575 755.273804 560.78064 767.224915 558 777 C 554.432068 789.542847 553 802 553 802 Z M 567 636.655334 C 537.012268 636.674866 477 647 477 647 C 477 647 487 617.000427 567 617.000427 C 647 617.000427 657 647 657 647 C 657 647 597.328796 636.635498 567 636.655334 Z M 483 515 C 485.722229 520.51062 497 527 497 527 C 497 527 485.270477 531.729553 480 537 C 474.729523 542.270447 470.138763 550.239563 467 557 C 453.998413 585.00354 454 610 454 610 C 454 610 457.986023 592.774536 462 585 C 465.058411 579.076294 474 569 474 569 C 474 569 468.338715 583.421753 467 591 C 465.607117 598.884888 466 615 466 615 C 466 615 468.797699 604.788269 471 600 C 473.436493 594.702515 480 585 480 585 C 480 585 475.147034 598.312988 476 605 C 477.012756 612.939758 482 618 482 618 C 482 618 538.03833 600 567 600 C 595.96167 600 652 618 652 618 C 652 618 657.020203 612.997742 658 605 C 658.819763 598.308777 654 585 654 585 L 663 600 L 668 615 C 668 615 668.392883 598.884888 667 591 C 665.661316 583.421753 660 569 660 569 C 660 569 668.941589 579.076294 672 585 C 676.013977 592.774536 680 610 680 610 C 680 610 680.015747 585.008972 667 557 C 663.858887 550.240601 659.270447 542.270447 654 537 C 648.729553 531.729553 637 527 637 527 C 637 527 648.277771 520.51062 651 515 C 653.661499 509.612305 653.714111 502.759583 652 497 C 647.987366 483.517151 637.302795 472.578186 627 463 C 616.907654 453.617432 605.778503 441.20282 592 441 C 585.426331 440.903259 579.329102 446.052124 575 451 C 570.475037 456.171753 567 470 567 470 C 567 470 563.800049 456.339966 559 451 C 554.713684 446.231506 548.573669 440.903259 542 441 C 528.221497 441.20282 517.092346 453.617432 507 463 C 496.697235 472.578186 486.012634 483.517151 482 497 C 480.285889 502.759583 480.33847 509.612305 483 515 Z M 533.173767 467.06488 C 533.173767 467.06488 533.298157 471.621216 528.03064 476.322449 C 523.168335 480.662109 510.872742 487.063843 508.486847 491.75177 C 503.516266 501.518372 512.601318 509.238342 512.601318 509.238342 C 512.601318 509.238342 510.019958 499.424011 513.629944 497.923523 C 516.042969 496.920532 518.134521 499.534424 520.147888 502.050537 C 520.722717 502.76886 521.291138 503.479248 521.858887 504.095215 C 525.112305 507.625061 529.414246 509.936218 534.202393 513.352844 C 538.011169 516.070557 543.603027 517.974792 547.574463 519.524536 C 554.949951 522.402649 559.917908 523.639038 559.917908 523.639038 C 559.917908 523.639038 562.94989 509.037903 561.975098 501.009399 C 561.389038 496.182251 553.792175 493.998169 544.577332 487.107117 C 536.169678 480.819702 533.173767 467.06488 533.173767 467.06488 Z M 601.338257 467.06488 C 601.338257 467.06488 601.211487 471.621216 606.577271 476.32251 C 611.530151 480.662109 624.055054 487.063843 626.485474 491.75177 C 631.548706 501.518372 622.29425 509.238342 622.29425 509.238342 C 622.29425 509.238342 624.923706 499.424011 621.24646 497.923523 C 618.788452 496.920532 616.657898 499.534363 614.606934 502.050537 C 614.021362 502.768921 613.442383 503.479309 612.864014 504.095276 C 609.550049 507.625061 605.167847 509.936279 600.290405 513.352844 C 596.410645 516.070557 590.714478 517.974792 586.669067 519.524597 C 579.156006 522.40271 574.095459 523.639038 574.095459 523.639038 C 574.095459 523.639038 571.006958 509.037903 571.999878 501.009399 C 572.596802 496.182251 580.335327 493.99823 589.722046 487.107117 C 598.286377 480.819702 601.338257 467.06488 601.338257 467.06488 Z M 304 387.241943 C 304 387.241943 297.021149 374.431519 279.659576 385.22583 C 264.507813 394.646179 263.432617 410.427429 263.432617 410.427429 C 263.432617 410.427429 261.96991 394.166199 263.432617 386.233887 C 265.322906 375.982544 274.588654 357 274.588654 357 C 274.588654 357 245.627579 375.322144 253.290771 424.540344 C 260.334839 469.782104 291.829773 482 291.829773 482 C 291.829773 482 283.292572 470.763367 280.038116 465.145081 C 276.869385 459.674683 272.560272 448.733887 272.560272 448.733887 C 272.560272 448.733887 281.83194 456.11377 286.75885 458.814514 C 291.658997 461.500549 301.971619 464.862915 301.971619 464.862915 C 301.971619 464.862915 278.189941 446.102417 278.645386 423.532288 C 279.364288 387.905762 304 387.241943 304 387.241943 Z M 830 387.241943 C 830 387.241943 836.978882 374.431519 854.340454 385.22583 C 869.492188 394.646179 870.567383 410.427429 870.567383 410.427429 C 870.567383 410.427429 872.03009 394.166199 870.567383 386.233887 C 868.677063 375.982544 859.411377 357 859.411377 357 C 859.411377 357 888.372437 375.322144 880.709229 424.540344 C 873.665161 469.782104 842.170227 482 842.170227 482 C 842.170227 482 850.707458 470.763367 853.961853 465.145081 C 857.130615 459.674683 861.439697 448.733887 861.439697 448.733887 C 861.439697 448.733887 852.16803 456.11377 847.24115 458.814514 C 842.341003 461.500549 832.028381 464.862915 832.028381 464.862915 C 832.028381 464.862915 855.810059 446.102417 855.354614 423.532288 C 854.635742 387.905762 830 387.241943 830 387.241943 Z M 456 437 C 447.678497 433.397949 434 421 434 421 C 434 421 436.025299 430.778687 439 436 C 441.569427 440.509949 447 446 447 446 C 447 446 437.391632 442.295471 433 440 C 427.917542 437.343445 419 430 419 430 C 419 430 423.765717 443.622986 430 450 C 435.954559 456.090881 449 462 449 462 C 449 462 437.082581 460.211548 431 458 C 425.674408 456.063721 416 450 416 450 C 416 450 431.587402 480.575195 459 479 C 486.473816 477.421265 504 447 504 447 C 504 447 485.24115 460.730286 475 465 C 469.326935 467.365173 458 469 458 469 C 458 469 469.6875 462.163269 475 458 C 481.125 453.200012 492 442 492 442 C 492 442 479.290771 447.903076 473 450 C 468.290771 451.569763 459 453 459 453 L 469 448 L 477 441 C 477 441 462.53949 439.830688 456 437 Z M 678 437 C 686.321533 433.397949 700 421 700 421 C 700 421 697.974731 430.778687 695 436 C 692.430542 440.509949 687 446 687 446 C 687 446 696.608398 442.295471 701 440 C 706.082458 437.343445 715 430 715 430 C 715 430 710.234253 443.622986 704 450 C 698.04541 456.090881 685 462 685 462 C 685 462 696.917419 460.211548 703 458 C 708.325562 456.063721 718 450 718 450 C 718 450 702.412598 480.575195 675 479 C 647.526184 477.421265 630 447 630 447 C 630 447 648.75885 460.730286 659 465 C 664.673096 467.365173 676 469 676 469 C 676 469 664.3125 462.163269 659 458 C 652.875 453.200012 642 442 642 442 C 642 442 654.709229 447.903076 661 450 C 665.709229 451.569763 675 453 675 453 L 665 448 L 657 441 C 657 441 671.46051 439.830688 678 437 Z M 505 407 L 502 412 L 507 411 C 507 411 498.23938 424.040955 482 424 C 465.26004 423.957764 459 411 459 411 L 464 413 L 461 404 C 461 404 473.422699 415.312012 481 416 C 489.398193 416.762512 505 407 505 407 Z M 629 407 L 632 412 L 627 411 C 627 411 635.76062 424.040955 652 424 C 668.73999 423.957764 675 411 675 411 L 670 413 L 673 404 C 673 404 660.577271 415.312012 653 416 C 644.601807 416.762512 629 407 629 407 Z M 567 336 C 567 336 516.856323 302.235962 453.849792 313 C 427.544342 317.494019 412.369446 329.844238 399.778015 347 C 384.885162 367.291443 389.764709 406 389.764709 406 C 389.764709 406 395.839142 361.077271 424.811249 352 C 444.580261 345.806152 464.886444 347.830383 483.889679 353 C 498.745178 357.04126 529.950806 365 529.950806 365 C 529.950806 365 529.94104 360.90802 528.949463 358 C 526.853577 351.853149 523.658325 349.15863 522.437744 348.312927 C 524.612793 349.689209 533.337402 355.299988 536.960144 359 C 540.460388 362.575012 544.970764 371 544.970764 371 C 544.970764 371 548.321594 368.841248 549.977417 362 C 551.270752 356.656433 546.97345 347 546.97345 347 C 546.97345 347 553.369202 355.608276 556.986694 359 C 560.102966 361.921753 567 366 567 366 C 567 366 573.897034 361.921753 577.013306 359 C 580.630859 355.608276 587.026611 347 587.026611 347 C 587.026611 347 582.729248 356.656433 584.022583 362 C 585.678406 368.841248 589.029236 371 589.029236 371 C 589.029236 371 593.539612 362.575012 597.039917 359 C 600.662598 355.299988 609.387207 349.689209 611.562195 348.312927 C 610.341675 349.15863 607.146423 351.853149 605.050537 358 C 604.05896 360.90802 604.049194 365 604.049194 365 C 604.049194 365 635.254822 357.04126 650.110352 353 C 669.113586 347.830383 689.4198 345.806152 709.188782 352 C 738.160889 361.077271 744.235291 406 744.235291 406 C 744.235291 406 749.114868 367.291443 734.222046 347 C 721.630554 329.844238 706.455688 317.494019 680.150208 313 C 617.143677 302.235962 567 336 567 336 Z M 484 390 C 487.986786 390.498962 489.533051 392.451721 489 395 C 488.542175 397.188721 486.335144 399.851257 483 399 C 479.416687 398.085388 478.764313 396.121338 479 394 C 479.235687 391.878662 481.03833 389.629333 484 390 Z M 650 390 C 646.013184 390.498962 644.466919 392.451721 645 395 C 645.457825 397.188721 647.664856 399.851257 651 399 C 654.583313 398.085388 655.235718 396.121338 655 394 C 654.764282 391.878662 652.96167 389.629333 650 390 Z M 450 274 C 450 274 461.482178 264.033447 485 266 C 505.568176 267.719971 522 275 522 275 C 522 275 520.464233 269.908325 519 268 C 516.910828 265.277344 512 263 512 263 C 512 263 519.477966 264.473999 524 266 C 529.93396 268.002563 541 274 541 274 C 541 274 532.685425 256.921753 497 255 C 462.449707 253.139404 450 274 450 274 Z M 684 274 C 684 274 672.517822 264.033447 649 266 C 628.431824 267.719971 612 275 612 275 C 612 275 613.535767 269.908325 615 268 C 617.089172 265.277344 622 263 622 263 C 622 263 614.522034 264.473999 610 266 C 604.06604 268.002563 593 274 593 274 C 593 274 601.314575 256.921753 637 255 C 671.550293 253.139404 684 274 684 274 Z M 504 239 C 476.026184 236.142212 448 248 448 248 C 448 248 463.364594 236.902954 484 232 C 501.48233 227.846191 505 229 505 229 C 505 229 503.200806 225.733765 497.356445 224.533936 C 491.710876 223.375 479 224 479 224 C 479 224 509.039124 214.647339 531 225 C 551.371643 234.603516 561 252 561 252 L 539 239 L 550 255 C 550 255 528.465332 241.49939 504 239 Z M 630 239 C 657.973816 236.142212 686 248 686 248 C 686 248 670.635376 236.902954 650 232 C 632.5177 227.846191 629 229 629 229 C 629 229 630.799194 225.733765 636.643555 224.533936 C 642.289124 223.375 655 224 655 224 C 655 224 624.960876 214.647339 603 225 C 582.628357 234.603516 573 252 573 252 L 595 239 L 584 255 C 584 255 605.534668 241.49939 630 239 Z M 496.455444 208.70874 C 472.335968 205.387451 450 212.766968 450 212.766968 C 450 212.766968 467.047028 204.392212 476.257416 202.621338 C 493.903259 199.228638 502.514862 200.592163 502.514862 200.592163 C 502.514862 200.592163 492.200806 197.733765 486.356445 196.533936 C 480.710876 195.375 469.18811 194.504761 469.18811 194.504761 C 469.18811 194.504761 494.692566 187.195801 516.653442 197.548462 C 537.025085 207.151978 552 229 552 229 C 552 229 539.85022 220.571411 524.732666 214.796143 C 515.467041 211.25647 504.289368 209.787476 496.455444 208.70874 Z M 637.544556 208.70874 C 661.664063 205.387451 684 212.766968 684 212.766968 C 684 212.766968 666.952942 204.392212 657.742554 202.621338 C 640.096741 199.228638 631.485168 200.592163 631.485168 200.592163 C 631.485168 200.592163 641.799194 197.733765 647.643555 196.533936 C 653.289124 195.375 664.81189 194.504761 664.81189 194.504761 C 664.81189 194.504761 639.307434 187.195801 617.346558 197.548462 C 596.974915 207.151978 582 229 582 229 C 582 229 594.14978 220.571411 609.267334 214.796143 C 618.532959 211.25647 629.710632 209.787476 637.544556 208.70874 Z M 522.437744 348.312927 C 522.118347 348.11084 521.940186 348 521.940186 348 C 521.940186 348 522.123535 348.095215 522.437744 348.312927 Z M 611.562195 348.312927 C 611.876465 348.095215 612.059814 348 612.059814 348 C 612.059814 348 611.881653 348.11084 611.562195 348.312927 Z"/>
    </g>
</svg>
