<?xml version="1.0" encoding="UTF-8"?>
<!-- Generated by Pixelmator Pro 3.6.13 -->
<svg width="3126" height="1080" viewBox="0 0 3126 1080" xmlns="http://www.w3.org/2000/svg">
    <g id="OUTPUT-">
        <path id="path1" fill="#000000" fill-rule="evenodd" stroke="#ffffff" stroke-width="8" stroke-linecap="round" stroke-linejoin="round" d="M 3024.130859 680.830994 L 3121.14502 680.830994 L 3121.14502 737.640991 L 2859.381836 737.640991 L 2859.381836 680.830994 L 2957.27002 680.830994 L 2957.27002 660.291992 L 2879.483887 660.291992 L 2879.483887 627.080017 L 2853.701172 613.969971 C 2853.992188 619.213989 2854.137939 627.371277 2854.137939 638.442017 C 2854.137939 669.323486 2852.317139 692.047241 2848.675537 706.614014 C 2845.033691 721.180725 2838.98877 731.013123 2830.540039 736.111511 C 2822.091309 741.209839 2808.981445 744.341675 2791.209961 745.507019 L 2761.931152 747.692017 L 2743.140137 676.023987 L 2765.427002 673.838989 C 2774.166992 672.964966 2780.35791 671.217041 2783.999512 668.594971 C 2787.641113 665.973022 2790.19043 660.219238 2791.646973 651.333496 C 2793.103516 642.447754 2793.832031 627.808472 2793.832031 607.414978 C 2793.832031 601.879639 2793.686279 597.655334 2793.39502 594.742004 C 2778.245605 612.513428 2757.706787 631.158569 2731.777832 650.677979 L 2716.045898 571.580994 C 2746.63623 551.187561 2768.777344 534.144775 2782.469971 520.452026 L 2775.915039 495.105957 C 2768.631592 501.223999 2757.415527 509.818237 2742.266113 520.889038 L 2721.727051 449.657959 C 2731.341064 443.248657 2741.246338 435.528381 2751.442871 426.497009 C 2742.994141 406.103577 2734.108887 386.875732 2724.786133 368.812988 L 2777.663086 342.156006 C 2786.694336 357.014038 2794.123291 370.269653 2799.949951 381.922974 C 2813.934082 367.647583 2824.567627 355.411743 2831.851074 345.214966 L 2872.055176 384.545044 L 2872.055176 350.021973 L 3101.042969 350.021973 L 3101.042969 513.02301 L 2886.913086 513.02301 L 2931.923828 528.755005 C 2931.050049 531.668335 2929.884766 534.872986 2928.427979 538.369019 L 2957.27002 538.369019 L 2957.27002 520.889038 L 3024.130859 522.636963 L 3024.130859 538.369019 L 3106.287109 538.369019 L 3106.287109 590.372009 L 3024.130859 590.372009 L 3024.130859 611.348022 L 3099.294922 611.348022 L 3099.294922 660.291992 L 3024.130859 660.291992 Z M 2852.390137 578.135986 C 2864.625977 552.207214 2873.365967 530.503052 2878.609863 513.02301 L 2872.055176 513.02301 L 2872.055176 397.655029 C 2856.614258 416.591797 2842.047852 432.90625 2828.35498 446.598999 C 2835.347168 466.40979 2840.80957 486.875732 2844.742676 507.997498 C 2848.675537 529.119263 2851.224609 552.498535 2852.390137 578.135986 Z M 3033.745117 415.13501 L 3033.745117 398.092041 L 2938.479004 398.092041 L 2938.479004 415.13501 Z M 2938.479004 454.028015 L 2938.479004 470.197021 L 3033.745117 470.197021 L 3033.745117 454.028015 Z M 2957.27002 611.348022 L 2957.27002 590.372009 L 2907.88916 590.372009 L 2898.711914 611.348022 Z M 2530.321045 680.830994 L 2627.334961 680.830994 L 2627.334961 737.640991 L 2365.572021 737.640991 L 2365.572021 680.830994 L 2463.459961 680.830994 L 2463.459961 660.291992 L 2385.673828 660.291992 L 2385.673828 627.080017 L 2359.891113 613.969971 C 2360.182373 619.213989 2360.328125 627.371277 2360.328125 638.442017 C 2360.328125 669.323486 2358.507324 692.047241 2354.865479 706.614014 C 2351.223633 721.180725 2345.178711 731.013123 2336.72998 736.111511 C 2328.28125 741.209839 2315.171387 744.341675 2297.399902 745.507019 L 2268.121094 747.692017 L 2249.330078 676.023987 L 2271.616943 673.838989 C 2280.356934 672.964966 2286.547852 671.217041 2290.189453 668.594971 C 2293.831055 665.973022 2296.380371 660.219238 2297.836914 651.333496 C 2299.293701 642.447754 2300.021973 627.808472 2300.021973 607.414978 C 2300.021973 601.879639 2299.876465 597.655334 2299.584961 594.742004 C 2284.435547 612.513428 2263.896973 631.158569 2237.968018 650.677979 L 2222.236084 571.580994 C 2252.826172 551.187561 2274.967285 534.144775 2288.660156 520.452026 L 2282.10498 495.105957 C 2274.821777 501.223999 2263.605469 509.818237 2248.456055 520.889038 L 2227.916992 449.657959 C 2237.531006 443.248657 2247.436279 435.528381 2257.633057 426.497009 C 2249.184326 406.103577 2240.298828 386.875732 2230.976074 368.812988 L 2283.853027 342.156006 C 2292.884277 357.014038 2300.313477 370.269653 2306.140137 381.922974 C 2320.124023 367.647583 2330.757813 355.411743 2338.041016 345.214966 L 2378.245117 384.545044 L 2378.245117 350.021973 L 2607.23291 350.021973 L 2607.23291 513.02301 L 2393.103027 513.02301 L 2438.114014 528.755005 C 2437.23999 531.668335 2436.074707 534.872986 2434.618164 538.369019 L 2463.459961 538.369019 L 2463.459961 520.889038 L 2530.321045 522.636963 L 2530.321045 538.369019 L 2612.477051 538.369019 L 2612.477051 590.372009 L 2530.321045 590.372009 L 2530.321045 611.348022 L 2605.484863 611.348022 L 2605.484863 660.291992 L 2530.321045 660.291992 Z M 2358.580078 578.135986 C 2370.815918 552.207214 2379.556152 530.503052 2384.800049 513.02301 L 2378.245117 513.02301 L 2378.245117 397.655029 C 2362.804199 416.591797 2348.237793 432.90625 2334.544922 446.598999 C 2341.537109 466.40979 2346.999512 486.875732 2350.932617 507.997498 C 2354.865479 529.119263 2357.414551 552.498535 2358.580078 578.135986 Z M 2539.935059 415.13501 L 2539.935059 398.092041 L 2444.668945 398.092041 L 2444.668945 415.13501 Z M 2444.668945 454.028015 L 2444.668945 470.197021 L 2539.935059 470.197021 L 2539.935059 454.028015 Z M 2463.459961 611.348022 L 2463.459961 590.372009 L 2414.079102 590.372009 L 2404.901855 611.348022 Z M 2132.650879 568.958984 L 2057.050049 568.958984 L 2057.050049 590.809021 L 2116.044922 590.809021 L 2116.044922 740.263 L 1935.563965 740.263 L 1935.563965 620.962036 C 1931.776611 646.016785 1926.678223 668.667725 1920.269043 688.915527 C 1913.859619 709.163269 1905.556641 728.609558 1895.359863 747.255005 L 1837.676025 707.488037 C 1836.802002 717.684692 1834.398438 725.259277 1830.465576 730.211975 C 1826.532471 735.164673 1820.778809 738.660645 1813.204102 740.700012 C 1805.629395 742.739319 1793.539063 744.632996 1776.933105 746.380981 L 1755.957031 748.565979 L 1737.166016 679.083008 L 1751.149902 676.89801 C 1757.268066 676.023987 1761.710938 675.150024 1764.478516 674.276001 C 1767.246094 673.401978 1769.431152 671.653992 1771.033447 669.031982 C 1772.635742 666.409973 1773.437012 662.477051 1773.437012 657.233032 L 1773.437012 607.414978 C 1760.909668 610.328369 1755.665527 611.493652 1757.705078 610.911011 C 1747.216797 612.950317 1739.351074 614.698303 1734.106934 616.155029 L 1728.863037 544.049988 L 1773.437012 535.747009 L 1773.437012 474.130005 L 1741.973145 474.130005 L 1741.973145 405.958008 L 1773.437012 405.958008 L 1773.437012 342.156006 L 1838.113037 343.903992 L 1838.113037 405.958008 L 1866.955078 405.958008 L 1866.955078 474.130005 L 1838.113037 474.130005 L 1838.113037 523.510986 L 1865.644043 517.393005 L 1866.081055 553.664001 L 1866.081055 588.624023 L 1838.113037 594.742004 L 1838.113037 692.630005 L 1838.113037 701.807007 C 1849.183594 681.413574 1857.632324 661.384583 1863.458984 641.719482 C 1869.285645 622.054382 1873.437012 599.184937 1875.913574 573.110474 C 1878.389893 547.036011 1879.773682 513.751526 1880.064941 473.255981 L 1880.064941 353.080994 L 2120.415039 353.080994 L 2120.415039 488.114014 L 2057.050049 488.114014 L 2057.050049 511.275024 L 2132.650879 511.275024 Z M 2056.176025 436.110962 L 2056.176025 412.513 L 1943.429932 412.513 L 1943.429932 436.110962 Z M 1943.429932 511.275024 L 1994.996094 511.275024 L 1994.996094 488.114014 L 1943.429932 488.114014 Z M 1994.996094 590.809021 L 1994.996094 568.958984 L 1940.808105 568.958984 C 1940.225342 578.86438 1939.642578 586.147644 1939.060059 590.809021 Z M 1996.744141 683.015991 L 2053.553955 683.015991 L 2053.553955 645.434021 L 1996.744141 645.434021 Z M 1645.833008 680.830994 L 1606.939941 744.632996 C 1581.01123 720.160889 1559.598389 696.56311 1542.700928 673.838989 C 1523.181641 697.728455 1497.981445 722.200195 1467.099976 747.255005 L 1441.754028 715.354004 L 1426.458984 742.447998 C 1413.348877 734.58197 1392.518799 722.49176 1363.968018 706.177002 C 1339.49585 719.578369 1306.866821 733.270935 1266.079956 747.255005 L 1232.43103 693.504028 C 1260.981812 685.346619 1283.851196 678.354675 1301.040039 672.528015 L 1259.525024 652.863037 C 1265.934326 641.500977 1272.197998 629.556396 1278.31604 617.028992 L 1247.725952 617.028992 L 1247.725952 568.084961 L 1298.85498 568.084961 C 1300.603027 563.423645 1302.642334 556.431702 1304.973022 547.109009 L 1370.522949 553.22699 L 1366.152954 568.084961 L 1448.30896 568.084961 L 1448.30896 615.718018 C 1439.56897 635.528748 1428.789795 652.571594 1415.970947 666.846985 L 1444.812988 679.957031 C 1468.993774 661.311584 1489.386963 640.481445 1505.993042 617.466003 C 1493.756958 594.741882 1484.434326 572.74646 1478.025024 551.479004 L 1467.099976 566.337036 L 1454.427002 529.192017 L 1430.828979 558.033997 C 1420.632324 548.711304 1405.191772 536.038452 1384.506958 520.015015 L 1384.506958 541.86499 L 1326.385986 541.86499 L 1326.385986 517.393005 C 1310.071289 533.999084 1289.82373 548.274292 1265.642944 560.218994 L 1238.54895 509.963989 C 1251.076416 505.302612 1263.312256 499.548828 1275.256958 492.702515 C 1287.201782 485.85614 1297.689575 478.791382 1306.720947 471.507996 L 1247.28894 471.507996 L 1247.28894 417.320007 L 1272.63501 417.320007 C 1260.690308 387.3125 1253.115723 369.395691 1249.911011 363.56897 L 1297.543945 345.651978 C 1299.874634 350.022034 1303.297852 357.232422 1307.813477 367.283508 C 1312.329224 377.334595 1315.606689 384.544983 1317.645996 388.915039 L 1324.637939 404.209961 L 1293.610962 417.320007 L 1326.385986 417.320007 L 1326.385986 341.718994 L 1384.506958 343.467041 L 1384.506958 397.218018 C 1401.987061 368.084534 1412.037964 350.895996 1414.660034 345.651978 L 1462.72998 367.502014 C 1461.273315 370.706665 1454.718384 382.068604 1443.064941 401.588013 C 1436.947021 411.493408 1433.74231 416.737305 1433.45105 417.320007 L 1455.301025 417.320007 L 1455.301025 471.507996 L 1384.506958 471.507996 L 1384.506958 504.719971 L 1409.853027 475.004028 C 1420.049683 481.996033 1431.702881 490.590271 1444.812988 500.786987 L 1443.938965 497.728027 C 1468.993774 456.358459 1486.473633 404.064636 1496.379028 340.844971 L 1559.307007 346.526001 C 1555.811035 365.754089 1552.606323 380.90332 1549.692993 391.973999 L 1632.286011 391.973999 L 1632.286011 464.515991 L 1619.613037 464.515991 C 1616.408325 495.688843 1611.74707 523.510864 1605.629028 547.983032 C 1599.510986 572.455078 1591.062378 595.178894 1580.282959 616.155029 C 1596.306396 635.674438 1618.15625 657.23291 1645.833008 680.830994 Z M 1404.171997 417.320007 L 1384.506958 406.39502 L 1384.506958 417.320007 Z M 1540.515991 550.167969 C 1549.838745 525.11322 1556.539307 496.562866 1560.618042 464.515991 L 1526.968994 464.515991 L 1520.414063 479.374023 C 1525.075317 505.885498 1531.776001 529.483215 1540.515991 550.167969 Z M 1344.302979 617.028992 L 1334.251953 634.072021 L 1362.219971 646.744995 C 1369.794678 639.461609 1377.078003 629.556396 1384.070068 617.028992 Z"/>
        <path id="path2" fill="#00a2ff" fill-rule="evenodd" stroke="#ffffff" stroke-linecap="round" stroke-linejoin="round" visibility="hidden" d="M 543 989.537598 C 543 989.537598 484.881897 993.268188 429 979.536133 C 380.024231 967.501221 329 932.529297 329 932.529297 C 329 932.529297 340.572449 918.219727 345 910.526062 C 349.239349 903.159546 355 887.522705 355 887.522705 C 355 887.522705 313.959442 865.103943 295 851.517456 C 274.0448 836.500732 236 801.510132 236 801.510132 L 268 752.50293 C 268 752.50293 250.251007 769.133667 233 772.505859 C 215.053345 776.014038 199 762.504395 199 762.504395 C 199 762.504395 211.416504 759.295105 224 751.502808 C 232.045166 746.520813 240.479034 739.147949 247 733.500183 C 254.69577 726.8349 262.633575 718.178284 269 709.496643 C 279.840149 694.714478 287 680.492371 287 680.492371 C 287 680.492371 277.092041 687.291382 272 689.493713 C 266.954132 691.676086 255 694.494446 255 694.494446 C 255 694.494446 269.202148 682.007935 284 659.489319 C 290.5242 649.561096 291.907227 645.759094 295 638.486267 C 298.300415 630.725037 303 614.482727 303 614.482727 C 303 614.482727 308.84433 648.416992 315 666.490356 C 322.213745 687.670349 339 710.496765 339 710.496765 C 339 710.496765 320.991699 672.440613 316 638.486267 C 311.774414 609.743164 311 551.473511 311 551.473511 C 311 551.473511 300.97937 574.201904 295 583.47821 C 290.004456 591.228149 279 602.480957 279 602.480957 C 279 602.480957 285.514893 584.80127 285 562.475098 C 284.531891 542.177124 290 507.467102 290 507.467102 C 290 507.467102 238.230042 485.432373 221 437.456848 C 199.269318 376.949707 211.216949 336.482361 229 316.439148 C 247.192413 295.93457 272 297.436401 272 297.436401 C 272 297.436401 258.837616 303.486206 254 306.437744 C 249.50061 309.182861 244 314.438843 244 314.438843 C 244 314.438843 262.397797 308.330322 278 316.439148 C 301.276489 328.536499 313 360.445618 313 360.445618 C 313 360.445618 323.186707 336.444275 319 320.439758 C 314.705017 304.021362 295 294.435913 295 294.435913 C 295 294.435913 309.851471 274.644897 319 265.431641 C 329.475525 254.88208 356 234.427124 356 234.427124 C 356 234.427124 339.802002 241.061035 334 244.428589 C 326.723541 248.651855 313 258.430664 313 258.430664 C 313 258.430664 338.11969 208.247803 404 173.418213 C 478.926086 133.806396 543 140.41333 543 140.41333 C 543 140.41333 607.073914 133.806274 682 173.418213 C 747.88031 208.247803 773 258.430664 773 258.430664 C 773 258.430664 759.276489 248.651855 752 244.428589 C 746.197998 241.061035 730 234.427124 730 234.427124 C 730 234.427124 756.524475 254.881958 767 265.431641 C 776.14856 274.644897 791 294.435913 791 294.435913 C 791 294.435913 771.294983 304.02124 767 320.439758 C 762.813293 336.444275 773 360.445618 773 360.445618 C 773 360.445618 784.723511 328.536499 808 316.439148 C 823.602173 308.330322 842 314.438843 842 314.438843 C 842 314.438843 836.49939 309.182861 832 306.437622 C 827.162354 303.486206 814 297.436279 814 297.436279 C 814 297.436279 838.807617 295.93457 857 316.439148 C 874.783081 336.482361 886.730713 376.949707 865 437.456848 C 847.769958 485.432312 796 507.467041 796 507.467041 C 796 507.467041 801.46814 542.177124 801 562.475098 C 800.485107 584.80127 807 602.480957 807 602.480957 C 807 602.480957 795.995544 591.228149 791 583.47821 C 785.02063 574.201843 775 551.473511 775 551.473511 C 775 551.473511 774.225586 609.743164 770 638.486206 C 765.008301 672.440613 747 710.496765 747 710.496765 C 747 710.496765 763.786255 687.670288 771 666.490356 C 777.15564 648.416931 783 614.482727 783 614.482727 C 783 614.482727 787.699585 630.725037 791 638.486206 C 794.092773 645.759094 795.47583 649.561096 802 659.489319 C 816.797852 682.007935 831 694.494446 831 694.494446 C 831 694.494446 819.045898 691.676086 814 689.493713 C 808.907959 687.291321 799 680.492371 799 680.492371 C 799 680.492371 806.159851 694.714417 817 709.496643 C 823.366455 718.178284 831.304199 726.834839 839 733.500122 C 845.520996 739.147949 853.954834 746.520813 862 751.502808 C 874.583496 759.295105 887 762.504395 887 762.504395 C 887 762.504395 870.946655 776.014038 853 772.505859 C 835.749023 769.133667 818 752.50293 818 752.50293 L 850 801.510071 C 850 801.510071 811.9552 836.500732 791 851.517456 C 772.040527 865.103943 751.20813 877.291382 730 887 C 715.002502 893.865479 684 903 684 903 C 684 903 661.055847 934.33606 633 960 C 602.762573 987.659546 543 989.537598 543 989.537598 Z M 397 752 C 377.818787 811.063965 371 921 371 921 C 371 921 381.075836 901.313965 385 891 C 392.115295 872.298584 395.7948 846.904724 402.192932 833.487183 C 404.212769 829.251343 422 801 422 801 C 422 801 418.156799 814.376892 417.276947 821.150513 C 416.551392 826.736206 417 838 417 838 C 417 838 430.841827 805.31842 440 791 C 450.772827 774.157104 468 758 468 758 C 468 758 462.916718 769.854248 461 776 C 458.857605 782.869324 456 797 456 797 C 456 797 475.333832 769.806641 486 757 C 489.774109 752.468567 493.538208 747.85614 498 744 C 503.80603 738.982117 535.554321 722.352051 571 706 C 601.7099 691.832703 637.78656 670.012268 642 669 C 646.225891 667.984741 655 668 655 668 L 688 672 C 688 672 701.3927 675.278015 704 664 C 706.041382 655.169983 694 651 694 651 C 694 651 656.13678 643.521545 637 644 C 629.220703 644.194519 618.142639 646.445068 614 648 C 589.296814 657.272278 566.177856 671.027405 543 683 C 527.896057 690.802002 510.865295 698.904785 499 707 C 486.216064 715.721924 462 737 462 737 L 425 765 C 425 765 467.525421 722.751465 447 681 C 439.610321 665.968445 431.558807 656.63324 403 655 C 399.542999 654.802307 385.874542 656.982544 383 672 C 381.296356 680.90033 398 694 398 694 C 398 694 403.393463 690.759216 406 689 C 409.757996 686.463623 417 681 417 681 C 417 681 420.405029 687.828918 414 693 C 405.137939 700.154724 405 710 405 710 C 405 710 411.867737 705.204956 415 704 C 417.904175 702.882813 424 702 424 702 C 424 702 416.058258 707.013916 410 716 C 407.993103 718.976746 406 727 406 727 C 406 727 410.696747 724.269592 413.045135 723.404419 C 417.03009 721.936279 425 720 425 720 C 425 720 404.764832 728.090088 397 752 Z M 669 872 C 669 872 684.169312 861.089478 692 856 C 702.78479 848.99054 725 836 725 836 C 725 836 738.128174 824.226196 728 810 C 719.622253 798.232483 705 803 705 803 C 705 803 670.90332 815.244507 653 825 C 649.251648 827.04248 645.520508 829.55481 643 833 C 640.258667 836.74707 638 846 638 846 C 638 846 636.110779 856.626343 636 862 C 635.917297 866.013 637 874 637 874 C 637 874 649.563538 867.771729 656 865 C 661.912781 862.453735 674 858 674 858 C 674 858 672.812927 862.713501 672 865 C 671.149597 867.391907 669 872 669 872 Z M 611 832 C 611 832 636.426758 813.702698 649.521484 805.653625 C 669.31543 793.486694 710 772 710 772 C 710 772 710.948181 775.222107 711 776.882629 C 711.074768 779.277222 710 784 710 784 C 710 784 727.226196 763.687805 713 748 C 699.136963 732.712646 677 745 677 745 C 677 745 658.131165 753.5578 649 758 C 630.890869 766.809875 604.894531 775.661255 596 786 C 593.276062 789.166199 591.411194 793.06897 590 797 C 587.018005 805.306396 585 823 585 823 C 585 823 597.129639 818.96759 603.194458 817.451416 C 609.129639 815.96759 621 814 621 814 C 621 814 616.74939 819.823486 615.015137 822.972717 C 613.426514 825.857544 611 832 611 832 Z M 529 785 C 529 785 542.485413 779.317383 549 776 C 556.184387 772.341553 570 764 570 764 C 570 764 566.965515 772.793762 565 777 C 563.547119 780.109192 561 787 561 787 C 561 787 580.071838 766.60376 593 757 C 603.405212 749.270447 621.178162 741.058472 634 734 C 648.497925 726.01886 675 712 675 712 C 675 712 671.152039 720.079712 669 724 C 667.129395 727.407654 663 734 663 734 C 663 734 670.571655 731.203369 678 724 C 682.26062 719.868408 688 710 688 710 C 688 710 695.563965 715.738403 699 719 C 702.593994 722.41156 709 730 709 730 C 709 730 716.954468 719.076355 706 708 C 702.171631 704.129028 695.635742 699.206177 689 694 C 681.210205 687.888367 672.928894 682.023804 664 681 C 655.500427 680.025452 638.856323 688.728027 622.499512 697.280518 C 615.001953 701.200684 607.564758 705.089355 601 708 C 584.910034 715.133789 570.013245 721.327576 553 731 C 540.20575 738.273804 536.78064 750.224915 534 760 C 530.432068 772.542847 529 785 529 785 Z M 543 619.655334 C 513.012268 619.674866 453 630 453 630 C 453 630 463 600.000427 543 600.000427 C 623 600.000427 633 630 633 630 C 633 630 573.328796 619.635498 543 619.655334 Z M 459 498 C 461.722229 503.51062 473 510 473 510 C 473 510 461.270477 514.729553 456 520 C 450.729523 525.270447 446.138763 533.239563 443 540 C 429.998413 568.00354 430 593 430 593 C 430 593 433.986023 575.774536 438 568 C 441.058411 562.076294 450 552 450 552 C 450 552 444.338715 566.421753 443 574 C 441.607117 581.884888 442 598 442 598 C 442 598 444.797699 587.788269 447 583 C 449.436493 577.702515 456 568 456 568 C 456 568 451.147034 581.312988 452 588 C 453.012756 595.939758 458 601 458 601 C 458 601 514.03833 583 543 583 C 571.96167 583 628 601 628 601 C 628 601 633.020203 595.997742 634 588 C 634.819763 581.308777 630 568 630 568 L 639 583 L 644 598 C 644 598 644.392883 581.884888 643 574 C 641.661316 566.421753 636 552 636 552 C 636 552 644.941589 562.076294 648 568 C 652.013977 575.774536 656 593 656 593 C 656 593 656.015747 568.008972 643 540 C 639.858887 533.240601 635.270447 525.270447 630 520 C 624.729553 514.729553 613 510 613 510 C 613 510 624.277771 503.51062 627 498 C 629.661499 492.612305 629.714111 485.759583 628 480 C 623.987366 466.517151 613.302795 455.578186 603 446 C 592.907654 436.617432 581.778503 424.20282 568 424 C 561.426331 423.903259 555.329102 429.052124 551 434 C 546.475037 439.171753 543 453 543 453 C 543 453 539.800049 439.339966 535 434 C 530.713684 429.231506 524.573669 423.903259 518 424 C 504.221497 424.20282 493.092346 436.617432 483 446 C 472.697235 455.578186 462.012634 466.517151 458 480 C 456.285889 485.759583 456.33847 492.612305 459 498 Z M 509.173767 450.06488 C 509.173767 450.06488 509.298157 454.621216 504.03064 459.322449 C 499.168335 463.662109 486.872742 470.063843 484.486847 474.75177 C 479.516266 484.518372 488.601318 492.238342 488.601318 492.238342 C 488.601318 492.238342 486.019958 482.424011 489.629944 480.923523 C 492.042938 479.920532 494.134552 482.534424 496.147888 485.050537 C 496.722717 485.76886 497.291168 486.479248 497.858887 487.095215 C 501.112305 490.625061 505.414246 492.936218 510.202393 496.352844 C 514.011169 499.070557 519.603027 500.974792 523.574463 502.524536 C 530.949951 505.402649 535.917908 506.639038 535.917908 506.639038 C 535.917908 506.639038 538.94989 492.037903 537.975098 484.009399 C 537.389038 479.182251 529.792175 476.998169 520.577332 470.107117 C 512.169678 463.819702 509.173767 450.06488 509.173767 450.06488 Z M 577.338257 450.06488 C 577.338257 450.06488 577.211487 454.621216 582.577271 459.32251 C 587.530151 463.662109 600.055054 470.063843 602.485474 474.75177 C 607.548706 484.518372 598.29425 492.238342 598.29425 492.238342 C 598.29425 492.238342 600.923706 482.424011 597.24646 480.923523 C 594.788452 479.920532 592.657898 482.534363 590.606934 485.050537 C 590.021362 485.768921 589.442383 486.479309 588.864014 487.095276 C 585.550049 490.625061 581.167847 492.936279 576.290405 496.352844 C 572.410645 499.070557 566.714478 500.974792 562.669067 502.524597 C 555.156006 505.40271 550.095459 506.639038 550.095459 506.639038 C 550.095459 506.639038 547.006958 492.037903 547.999878 484.009399 C 548.596802 479.182251 556.335327 476.99823 565.722046 470.107117 C 574.286377 463.819702 577.338257 450.06488 577.338257 450.06488 Z M 280 370.241943 C 280 370.241943 273.021149 357.431519 255.659576 368.22583 C 240.507813 377.646179 239.432617 393.427429 239.432617 393.427429 C 239.432617 393.427429 237.96991 377.166199 239.432617 369.233887 C 241.322906 358.982544 250.588654 340 250.588654 340 C 250.588654 340 221.627579 358.322144 229.290771 407.540344 C 236.334839 452.782104 267.829773 465 267.829773 465 C 267.829773 465 259.292572 453.763367 256.038116 448.145081 C 252.869385 442.674683 248.560272 431.733887 248.560272 431.733887 C 248.560272 431.733887 257.83194 439.11377 262.75885 441.814514 C 267.658997 444.500549 277.971619 447.862915 277.971619 447.862915 C 277.971619 447.862915 254.189941 429.102417 254.645386 406.532288 C 255.364288 370.905762 280 370.241943 280 370.241943 Z M 806 370.241943 C 806 370.241943 812.978882 357.431519 830.340454 368.22583 C 845.492188 377.646179 846.567383 393.427429 846.567383 393.427429 C 846.567383 393.427429 848.03009 377.166199 846.567383 369.233887 C 844.677063 358.982544 835.411377 340 835.411377 340 C 835.411377 340 864.372437 358.322144 856.709229 407.540344 C 849.665161 452.782104 818.170227 465 818.170227 465 C 818.170227 465 826.707458 453.763367 829.961853 448.145081 C 833.130615 442.674683 837.439697 431.733887 837.439697 431.733887 C 837.439697 431.733887 828.16803 439.11377 823.24115 441.814514 C 818.341003 444.500549 808.028381 447.862915 808.028381 447.862915 C 808.028381 447.862915 831.810059 429.102417 831.354614 406.532288 C 830.635742 370.905762 806 370.241943 806 370.241943 Z M 432 420 C 423.678497 416.397949 410 404 410 404 C 410 404 412.025299 413.778687 415 419 C 417.569427 423.509949 423 429 423 429 C 423 429 413.391632 425.295471 409 423 C 403.917542 420.343445 395 413 395 413 C 395 413 399.765717 426.622986 406 433 C 411.954559 439.090881 425 445 425 445 C 425 445 413.082581 443.211548 407 441 C 401.674408 439.063721 392 433 392 433 C 392 433 407.587402 463.575195 435 462 C 462.473816 460.421265 480 430 480 430 C 480 430 461.24115 443.730286 451 448 C 445.326935 450.365173 434 452 434 452 C 434 452 445.6875 445.163269 451 441 C 457.125 436.200012 468 425 468 425 C 468 425 455.290771 430.903076 449 433 C 444.290771 434.569763 435 436 435 436 L 445 431 L 453 424 C 453 424 438.53949 422.830688 432 420 Z M 654 420 C 662.321533 416.397949 676 404 676 404 C 676 404 673.974731 413.778687 671 419 C 668.430542 423.509949 663 429 663 429 C 663 429 672.608398 425.295471 677 423 C 682.082458 420.343445 691 413 691 413 C 691 413 686.234253 426.622986 680 433 C 674.04541 439.090881 661 445 661 445 C 661 445 672.917419 443.211548 679 441 C 684.325562 439.063721 694 433 694 433 C 694 433 678.412598 463.575195 651 462 C 623.526184 460.421265 606 430 606 430 C 606 430 624.75885 443.730286 635 448 C 640.673096 450.365173 652 452 652 452 C 652 452 640.3125 445.163269 635 441 C 628.875 436.200012 618 425 618 425 C 618 425 630.709229 430.903076 637 433 C 641.709229 434.569763 651 436 651 436 L 641 431 L 633 424 C 633 424 647.46051 422.830688 654 420 Z M 481 390 L 478 395 L 483 394 C 483 394 474.23938 407.040955 458 407 C 441.26004 406.957764 435 394 435 394 L 440 396 L 437 387 C 437 387 449.422699 398.312012 457 399 C 465.398193 399.762512 481 390 481 390 Z M 605 390 L 608 395 L 603 394 C 603 394 611.76062 407.040955 628 407 C 644.73999 406.957764 651 394 651 394 L 646 396 L 649 387 C 649 387 636.577271 398.312012 629 399 C 620.601807 399.762512 605 390 605 390 Z M 543 319 C 543 319 492.856323 285.235962 429.849792 296 C 403.544342 300.494019 388.369446 312.844238 375.778015 330 C 360.885162 350.291443 365.764709 389 365.764709 389 C 365.764709 389 371.839142 344.077271 400.811249 335 C 420.580261 328.806152 440.886444 330.830383 459.889679 336 C 474.745178 340.04126 505.950806 348 505.950806 348 C 505.950806 348 505.94104 343.90802 504.949463 341 C 502.853577 334.853149 499.658325 332.15863 498.437775 331.312927 C 500.612793 332.689209 509.337433 338.299988 512.960144 342 C 516.460388 345.575012 520.970764 354 520.970764 354 C 520.970764 354 524.321594 351.841248 525.977417 345 C 527.270752 339.656433 522.97345 330 522.97345 330 C 522.97345 330 529.369202 338.608276 532.986694 342 C 536.102966 344.921753 543 349 543 349 C 543 349 549.897034 344.921753 553.013306 342 C 556.630859 338.608276 563.026611 330 563.026611 330 C 563.026611 330 558.729248 339.656433 560.022583 345 C 561.678406 351.841248 565.029236 354 565.029236 354 C 565.029236 354 569.539612 345.575012 573.039917 342 C 576.662598 338.299988 585.387207 332.689209 587.562195 331.312927 C 586.341675 332.15863 583.146423 334.853149 581.050537 341 C 580.05896 343.90802 580.049194 348 580.049194 348 C 580.049194 348 611.254822 340.04126 626.110352 336 C 645.113586 330.830383 665.4198 328.806152 685.188782 335 C 714.160889 344.077271 720.235291 389 720.235291 389 C 720.235291 389 725.114868 350.291443 710.222046 330 C 697.630554 312.844238 682.455688 300.494019 656.150208 296 C 593.143677 285.235962 543 319 543 319 Z M 460 373 C 463.986786 373.498962 465.533051 375.451721 465 378 C 464.542175 380.188721 462.335144 382.851257 459 382 C 455.416687 381.085388 454.764313 379.121338 455 377 C 455.235687 374.878662 457.03833 372.629333 460 373 Z M 626 373 C 622.013184 373.498962 620.466919 375.451721 621 378 C 621.457825 380.188721 623.664856 382.851257 627 382 C 630.583313 381.085388 631.235718 379.121338 631 377 C 630.764282 374.878662 628.96167 372.629333 626 373 Z M 426 257 C 426 257 437.482178 247.033447 461 249 C 481.568176 250.719971 498 258 498 258 C 498 258 496.464233 252.908325 495 251 C 492.910828 248.277344 488 246 488 246 C 488 246 495.477966 247.473999 500 249 C 505.93396 251.002563 517 257 517 257 C 517 257 508.685425 239.921753 473 238 C 438.449707 236.139404 426 257 426 257 Z M 660 257 C 660 257 648.517822 247.033447 625 249 C 604.431824 250.719971 588 258 588 258 C 588 258 589.535767 252.908325 591 251 C 593.089172 248.277344 598 246 598 246 C 598 246 590.522034 247.473999 586 249 C 580.06604 251.002563 569 257 569 257 C 569 257 577.314575 239.921753 613 238 C 647.550293 236.139404 660 257 660 257 Z M 480 222 C 452.026184 219.142212 424 231 424 231 C 424 231 439.364594 219.902954 460 215 C 477.48233 210.846191 481 212 481 212 C 481 212 479.200806 208.733765 473.356445 207.533936 C 467.710876 206.375 455 207 455 207 C 455 207 485.039124 197.647339 507 208 C 527.371643 217.603516 537 235 537 235 L 515 222 L 526 238 C 526 238 504.465332 224.49939 480 222 Z M 606 222 C 633.973816 219.142212 662 231 662 231 C 662 231 646.635376 219.902954 626 215 C 608.5177 210.846191 605 212 605 212 C 605 212 606.799194 208.733765 612.643555 207.533936 C 618.289124 206.375 631 207 631 207 C 631 207 600.960876 197.647339 579 208 C 558.628357 217.603516 549 235 549 235 L 571 222 L 560 238 C 560 238 581.534668 224.49939 606 222 Z M 472.455444 191.70874 C 448.335968 188.387451 426 195.766968 426 195.766968 C 426 195.766968 443.047028 187.392212 452.257416 185.621338 C 469.903259 182.228638 478.514862 183.592163 478.514862 183.592163 C 478.514862 183.592163 468.200806 180.733765 462.356445 179.533936 C 456.710876 178.375 445.18811 177.504761 445.18811 177.504761 C 445.18811 177.504761 470.692566 170.195801 492.653442 180.548462 C 513.025085 190.151978 528 212 528 212 C 528 212 515.85022 203.571411 500.732666 197.796143 C 491.467041 194.25647 480.289368 192.787476 472.455444 191.70874 Z M 613.544556 191.70874 C 637.664063 188.387451 660 195.766968 660 195.766968 C 660 195.766968 642.952942 187.392212 633.742554 185.621338 C 616.096741 182.228638 607.485168 183.592163 607.485168 183.592163 C 607.485168 183.592163 617.799194 180.733765 623.643555 179.533936 C 629.289124 178.375 640.81189 177.504761 640.81189 177.504761 C 640.81189 177.504761 615.307434 170.195801 593.346558 180.548462 C 572.974915 190.151978 558 212 558 212 C 558 212 570.14978 203.571411 585.267334 197.796143 C 594.532959 194.25647 605.710632 192.787476 613.544556 191.70874 Z M 498.437775 331.312927 C 498.118347 331.11084 497.940186 331 497.940186 331 C 497.940186 331 498.123535 331.095215 498.437775 331.312927 Z M 587.562195 331.312927 C 587.876465 331.095215 588.059814 331 588.059814 331 C 588.059814 331 587.881653 331.11084 587.562195 331.312927 Z"/>
        <g id="g1">
            <path id="path3" fill="#000000" fill-opacity="0.286374" fill-rule="evenodd" stroke="none" d="M 1083 540 C 1083 241.766235 841.233765 0 543 0 C 244.766235 0 3 241.766235 3 540 C 3 838.233765 244.766235 1080 543 1080 C 841.233765 1080 1083 838.233765 1083 540 Z"/>
            <path id="path4" fill="#ffffff" fill-rule="evenodd" stroke="none" d="M 543 0 C 841.233765 0 1083 241.766235 1083 540 C 1083 838.233765 841.233765 1080 543 1080 C 244.766235 1080 3 838.233765 3 540 C 3 241.766235 244.766235 0 543 0 Z M 1067 540 C 1067 829.397217 832.397217 1064 543 1064 C 253.602798 1064 19 829.397217 19 540 C 19 250.602798 253.602798 16 543 16 C 832.397217 16 1067 250.602798 1067 540 Z"/>
        </g>
        <path id="BG" fill="#ffffff" fill-rule="evenodd" stroke="none" d="M 543 989.537598 C 543 989.537598 484.881897 993.268188 429 979.536133 C 380.024231 967.501221 329 932.529297 329 932.529297 C 329 932.529297 340.572449 918.219727 345 910.526062 C 349.239349 903.159546 355 887.522705 355 887.522705 C 355 887.522705 313.959442 865.103943 295 851.517456 C 274.0448 836.500732 236 801.510132 236 801.510132 L 268 752.50293 C 268 752.50293 250.251007 769.133667 233 772.505859 C 215.053345 776.014038 199 762.504395 199 762.504395 C 199 762.504395 211.416504 759.295105 224 751.502808 C 232.045166 746.520813 240.479034 739.147949 247 733.500183 C 254.69577 726.8349 262.633575 718.178284 269 709.496643 C 279.840149 694.714478 287 680.492371 287 680.492371 C 287 680.492371 277.092041 687.291382 272 689.493713 C 266.954132 691.676086 255 694.494446 255 694.494446 C 255 694.494446 269.202148 682.007935 284 659.489319 C 290.5242 649.561096 291.907227 645.759094 295 638.486267 C 298.300415 630.725037 303 614.482727 303 614.482727 C 303 614.482727 308.84433 648.416992 315 666.490356 C 322.213745 687.670349 339 710.496765 339 710.496765 C 339 710.496765 320.991699 672.440613 316 638.486267 C 311.774414 609.743164 311 551.473511 311 551.473511 C 311 551.473511 300.97937 574.201904 295 583.47821 C 290.004456 591.228149 279 602.480957 279 602.480957 C 279 602.480957 285.514893 584.80127 285 562.475098 C 284.531891 542.177124 290 507.467102 290 507.467102 C 290 507.467102 238.230042 485.432373 221 437.456848 C 199.269318 376.949707 211.216949 336.482361 229 316.439148 C 247.192413 295.93457 272 297.436401 272 297.436401 C 272 297.436401 258.837616 303.486206 254 306.437744 C 249.50061 309.182861 244 314.438843 244 314.438843 C 244 314.438843 262.397797 308.330322 278 316.439148 C 301.276489 328.536499 313 360.445618 313 360.445618 C 313 360.445618 323.186707 336.444275 319 320.439758 C 314.705017 304.021362 295 294.435913 295 294.435913 C 295 294.435913 309.851471 274.644897 319 265.431641 C 329.475525 254.88208 356 234.427124 356 234.427124 C 356 234.427124 339.802002 241.061035 334 244.428589 C 326.723541 248.651855 313 258.430664 313 258.430664 C 313 258.430664 338.11969 208.247803 404 173.418213 C 478.926086 133.806396 543 140.41333 543 140.41333 C 543 140.41333 607.073914 133.806274 682 173.418213 C 747.88031 208.247803 773 258.430664 773 258.430664 C 773 258.430664 759.276489 248.651855 752 244.428589 C 746.197998 241.061035 730 234.427124 730 234.427124 C 730 234.427124 756.524475 254.881958 767 265.431641 C 776.14856 274.644897 791 294.435913 791 294.435913 C 791 294.435913 771.294983 304.02124 767 320.439758 C 762.813293 336.444275 773 360.445618 773 360.445618 C 773 360.445618 784.723511 328.536499 808 316.439148 C 823.602173 308.330322 842 314.438843 842 314.438843 C 842 314.438843 836.49939 309.182861 832 306.437622 C 827.162354 303.486206 814 297.436279 814 297.436279 C 814 297.436279 838.807617 295.93457 857 316.439148 C 874.783081 336.482361 886.730713 376.949707 865 437.456848 C 847.769958 485.432312 796 507.467041 796 507.467041 C 796 507.467041 801.46814 542.177124 801 562.475098 C 800.485107 584.80127 807 602.480957 807 602.480957 C 807 602.480957 795.995544 591.228149 791 583.47821 C 785.02063 574.201843 775 551.473511 775 551.473511 C 775 551.473511 774.225586 609.743164 770 638.486206 C 765.008301 672.440613 747 710.496765 747 710.496765 C 747 710.496765 763.786255 687.670288 771 666.490356 C 777.15564 648.416931 783 614.482727 783 614.482727 C 783 614.482727 787.699585 630.725037 791 638.486206 C 794.092773 645.759094 795.47583 649.561096 802 659.489319 C 816.797852 682.007935 831 694.494446 831 694.494446 C 831 694.494446 819.045898 691.676086 814 689.493713 C 808.907959 687.291321 799 680.492371 799 680.492371 C 799 680.492371 806.159851 694.714417 817 709.496643 C 823.366455 718.178284 831.304199 726.834839 839 733.500122 C 845.520996 739.147949 853.954834 746.520813 862 751.502808 C 874.583496 759.295105 887 762.504395 887 762.504395 C 887 762.504395 870.946655 776.014038 853 772.505859 C 835.749023 769.133667 818 752.50293 818 752.50293 L 850 801.510071 C 850 801.510071 811.9552 836.500732 791 851.517456 C 772.040527 865.103943 751.20813 877.291382 730 887 C 715.002502 893.865479 684 903 684 903 C 684 903 661.055847 934.33606 633 960 C 602.762573 987.659546 543 989.537598 543 989.537598 Z"/>
        <path id="STROCK" fill="#ffffff" fill-rule="evenodd" stroke="none" d="M 542.093628 997.59967 C 542.673767 997.570435 543.105225 997.546143 543.381836 997.529297 C 544.348694 997.496094 545.982544 997.409851 548.193359 997.245911 C 551.998596 996.963745 556.226135 996.539063 560.773621 995.942688 C 573.788147 994.236023 586.816162 991.488281 599.0578 987.44165 C 614.90448 982.203369 628.287903 975.152527 638.399658 965.902893 C 642.643799 962.020508 646.909302 957.888794 651.182068 953.540039 C 661.028076 943.519165 670.479675 932.807922 679.215088 922.098083 C 682.272583 918.349487 685.024658 914.865784 687.429688 911.73407 C 687.930847 911.081482 688.395935 910.471375 688.823975 909.906067 C 690.639893 909.356934 692.651245 908.739746 694.810852 908.065918 C 701.205811 906.070801 707.60321 903.986084 713.590759 901.910278 C 716.699402 900.832581 719.621643 899.782898 722.32666 898.768188 C 726.610657 897.161194 730.300781 895.660706 733.329895 894.274048 C 754.80188 884.444641 776.093445 872.041626 795.659912 858.020203 C 801.855225 853.580505 809.727112 847.300293 818.924377 839.551392 C 820.313416 838.381042 821.727234 837.181824 823.163635 835.955627 C 830.486145 829.705017 838.096191 823.016602 845.554871 816.329346 C 848.164551 813.989502 850.56958 811.816406 852.714539 809.865173 C 853.46637 809.181335 854.132324 808.573669 854.705505 808.049194 C 855.051147 807.732971 855.290161 807.513672 855.415588 807.398315 L 860.403687 802.810669 L 856.698486 797.13623 L 844.49353 778.444702 C 846.254272 779.059143 848.006897 779.575684 849.749451 779.986877 C 850.323486 780.122314 850.895386 780.24585 851.46521 780.357239 C 862.122498 782.440491 872.651001 780.035706 882.501953 774.885437 C 885.03595 773.560669 887.338379 772.142029 889.380554 770.713623 C 890.648499 769.826843 891.583069 769.103394 892.151062 768.625366 L 904.016785 758.639832 L 889.001953 754.758911 C 888.962708 754.748779 888.833069 754.713745 888.61908 754.653259 C 888.228516 754.542786 887.765564 754.40564 887.236267 754.241211 C 885.68811 753.760376 883.946045 753.163574 882.059265 752.44696 C 876.66095 750.396667 871.245667 747.818481 866.211792 744.701294 C 865.021912 743.964417 863.780334 743.142822 862.486633 742.238159 C 859.616089 740.230652 856.55188 737.861267 853.129578 735.037109 C 850.57959 732.9328 849.123718 731.684875 844.237488 727.452881 C 836.993774 721.179138 829.462769 712.963379 823.451294 704.765747 C 822.277527 703.1651 821.124817 701.539795 819.995422 699.897278 C 821.947449 700.44989 823.992065 700.993042 826.034729 701.510437 C 826.847839 701.716431 827.603638 701.903748 828.283691 702.069214 C 828.696594 702.169678 828.996277 702.241394 829.164185 702.280945 L 860.32959 709.628662 L 836.282288 688.486328 C 836.220032 688.431641 836.053406 688.281555 835.789063 688.037354 C 835.319153 687.603271 834.764709 687.077515 834.132385 686.461487 C 832.29187 684.668396 830.219055 682.528748 827.96698 680.053101 C 821.486938 672.929626 814.919128 664.581726 808.685669 655.095886 C 805.06311 649.583313 803.065063 646.036072 801.283997 642.141846 C 801.014282 641.552124 800.739502 640.933777 800.440308 640.244873 C 800.158264 639.595581 799.870056 638.920166 799.459351 637.949097 C 799.348511 637.687073 798.957336 636.760864 798.929626 636.695313 C 798.710083 636.175781 798.536316 635.765442 798.362 635.35553 C 797.727173 633.862732 796.972168 631.862549 796.132385 629.462097 C 795.750854 628.371582 795.355286 627.208252 794.948181 625.982239 C 793.954163 622.988098 792.939148 619.765198 791.960144 616.540283 C 791.617004 615.409973 791.303162 614.360962 791.025452 613.420959 C 790.92865 613.093262 790.843445 612.803162 790.77063 612.553955 C 790.697815 612.304321 790.697815 612.304321 790.684814 612.259216 L 783.027466 585.794495 C 783.45929 586.518188 783.875549 587.191406 784.275879 587.8125 C 785.561157 589.806396 787.18512 592.005981 789.107727 594.400757 C 789.923096 595.416321 790.787048 596.460266 791.693726 597.528198 C 793.794678 600.002808 796.031494 602.498474 798.266785 604.899902 C 799.04834 605.739563 799.775146 606.508789 800.429443 607.192383 C 800.827515 607.608276 801.117065 607.907349 801.280396 608.074341 L 827.446838 634.83136 L 814.506592 599.714844 C 814.484619 599.655273 814.420837 599.474792 814.321167 599.179199 C 814.141113 598.645569 813.936646 598.008179 813.713684 597.272949 C 813.062927 595.126892 812.406982 592.657532 811.792114 589.91217 C 809.860474 581.286865 808.781494 572.040833 808.997864 562.659546 C 809.13269 556.814026 808.819641 549.667236 808.139709 541.467041 C 807.706421 536.240967 807.134644 530.720764 806.457947 525.044495 C 805.921143 520.541138 805.347656 516.182617 804.772583 512.117615 C 806.9245 511.009277 809.233337 509.746948 811.668213 508.32843 C 820.842224 502.983734 830.009827 496.491669 838.591614 488.797974 C 854.014038 474.971619 865.834229 458.802246 872.529175 440.160889 C 883.114014 410.688263 886.622681 383.989655 883.757324 360.793274 C 881.242065 340.430878 873.825989 323.349548 862.984192 311.129761 C 858.841858 306.460968 854.20636 302.573608 849.173828 299.417969 C 841.99585 294.917023 834.34613 292.085754 826.632263 290.588715 C 821.592102 289.610535 817.276123 289.326019 814.043274 289.428009 C 813.819641 289.435059 813.643433 289.443207 813.516602 289.450897 L 797.967529 290.392151 L 797.398743 289.634216 C 797.344543 289.561981 797.243713 289.42807 797.099121 289.236633 C 796.860962 288.921356 796.584595 288.556763 796.272705 288.146851 C 795.384521 286.979645 794.387634 285.680603 793.304077 284.282288 C 792.393677 283.107513 791.476379 281.932556 790.55658 280.763977 L 794.549805 283.609406 L 780.153809 254.849731 C 779.993103 254.528748 779.711731 253.992172 779.306091 253.254364 C 778.659912 252.079239 777.882385 250.731812 776.96991 249.22644 C 774.400635 244.9879 771.248718 240.291626 767.484985 235.252975 C 756.796936 220.944473 743.317444 206.666794 726.814148 193.355377 C 714.406738 183.347687 700.731262 174.271851 685.739075 166.345764 C 655.757385 150.495056 625.357666 140.642258 595.679504 135.655304 C 575.596863 132.280716 558.490479 131.510239 545.468384 132.21843 C 544.44989 132.273819 543.624634 132.330536 543 132.381271 C 542.375366 132.330536 541.550171 132.273819 540.531677 132.21843 C 527.509583 131.510269 510.40329 132.280762 490.320648 135.655334 C 460.642456 140.642288 430.242676 150.495071 400.260956 166.345764 C 385.268707 174.271851 371.593292 183.347687 359.185883 193.355377 C 342.682556 206.666794 329.203033 220.944473 318.514984 235.252975 C 314.751251 240.291626 311.599335 244.9879 309.03009 249.22644 C 308.117584 250.731812 307.340057 252.079239 306.693939 253.254364 C 306.288269 253.992172 306.006866 254.528748 305.846191 254.849731 L 291.450195 283.609314 L 295.443604 280.763794 C 294.523743 281.932434 293.606415 283.107422 292.695953 284.282288 C 291.612366 285.680603 290.615479 286.979614 289.727295 288.146851 C 289.415405 288.556732 289.139008 288.921356 288.900879 289.236633 C 288.756287 289.42807 288.655487 289.561981 288.601288 289.634216 L 288.032379 290.392334 L 272.483429 289.451019 C 272.356598 289.443329 272.180359 289.435181 271.956696 289.428131 C 268.723785 289.326141 264.407806 289.610626 259.367584 290.588806 C 251.653763 292.085846 244.004044 294.917084 236.82608 299.41803 C 231.793579 302.573669 227.158127 306.460968 223.015823 311.129761 C 212.173996 323.349548 204.75798 340.430878 202.242691 360.793274 C 199.377335 383.989655 202.885971 410.688263 213.47084 440.160889 C 220.165756 458.802277 231.985992 474.971649 247.408386 488.798004 C 255.990204 496.491699 265.157776 502.983795 274.331818 508.328491 C 276.766663 509.747009 279.075562 511.009338 281.227478 512.117676 C 280.652374 516.182678 280.078918 520.54126 279.542023 525.044617 C 278.865326 530.720825 278.293579 536.241028 277.86026 541.467102 C 277.180389 549.667236 276.86731 556.814026 277.002136 562.659546 C 277.218475 572.040833 276.139526 581.286865 274.207855 589.91217 C 273.593048 592.657532 272.937103 595.126892 272.286316 597.272949 C 272.063324 598.008179 271.858917 598.645569 271.678864 599.179199 C 271.579132 599.474792 271.515381 599.655273 271.493439 599.714844 L 258.553131 634.83136 L 284.719604 608.074341 C 284.882904 607.907349 285.172485 607.608276 285.570557 607.192383 C 286.224884 606.508789 286.95163 605.739563 287.733215 604.899902 C 289.968536 602.498474 292.205322 600.002808 294.306274 597.528198 C 295.212982 596.460266 296.076935 595.416321 296.892273 594.400757 C 298.81488 592.005981 300.438873 589.806396 301.724121 587.8125 C 302.124481 587.191406 302.54071 586.51825 302.972565 585.794556 L 295.315216 612.259216 L 295.22937 612.553955 C 295.156555 612.803162 295.07132 613.093323 294.974518 613.420959 C 294.696808 614.360962 294.382965 615.409973 294.039856 616.540283 C 293.060852 619.765259 292.045837 622.988159 291.051788 625.9823 C 290.644745 627.208313 290.249115 628.371643 289.867584 629.462158 C 289.027802 631.86261 288.272827 633.862793 287.638 635.355652 C 287.463684 635.765503 287.289886 636.175842 287.070343 636.695374 C 287.042419 636.761475 286.651459 637.687195 286.540649 637.949158 C 286.129944 638.920227 285.841736 639.595642 285.559692 640.244934 C 285.260498 640.933777 284.985718 641.552063 284.716034 642.141785 C 282.934967 646.036072 280.93689 649.583313 277.314331 655.095947 C 271.080841 664.581726 264.513092 672.929626 258.03302 680.053101 C 255.78096 682.528748 253.708115 684.668396 251.867645 686.461487 C 251.235321 687.077515 250.680862 687.603271 250.210907 688.037354 C 249.946564 688.281555 249.779938 688.431641 249.717697 688.486328 L 225.670471 709.628662 L 256.835785 702.280945 C 257.003723 702.241394 257.303406 702.169678 257.716339 702.069214 C 258.396393 701.903748 259.15213 701.716431 259.96524 701.510437 C 262.007874 700.993042 264.052551 700.449951 266.004608 699.897339 C 264.875183 701.539856 263.722534 703.1651 262.548737 704.765747 C 256.537323 712.963318 249.006241 721.179199 241.762527 727.452942 C 236.875961 731.685181 235.420273 732.932922 232.870239 735.037292 C 229.448059 737.861328 226.383972 740.230591 223.513489 742.238037 C 222.219742 743.142761 220.978134 743.964417 219.788147 744.701294 C 214.754349 747.818481 209.339035 750.396667 203.940735 752.44696 C 202.05397 753.163574 200.311859 753.760376 198.763702 754.241211 C 198.234451 754.40564 197.771469 754.542786 197.38092 754.653259 C 197.166931 754.713745 197.037277 754.748779 196.998032 754.758911 L 181.9832 758.639832 L 193.848907 768.625366 C 194.416931 769.103394 195.351471 769.826843 196.619415 770.713623 C 198.661636 772.142029 200.964066 773.560669 203.498032 774.885437 C 213.349014 780.035706 223.877518 782.440491 234.534775 780.357239 C 235.104523 780.245911 235.676376 780.122375 236.25032 779.986938 C 237.992966 779.575745 239.745682 779.059143 241.506531 778.444641 L 229.301544 797.136292 L 225.596329 802.81073 L 230.584442 807.398376 C 230.709854 807.513733 230.948853 807.733032 231.29451 808.049255 C 231.867691 808.57373 232.533646 809.181396 233.285446 809.865234 C 235.43045 811.816467 237.835464 813.989563 240.445175 816.329407 C 247.903839 823.016663 255.513885 829.705017 262.836365 835.955688 C 264.272827 837.181824 265.686584 838.381104 267.075592 839.551392 C 276.272858 847.300293 284.144745 853.580505 290.340088 858.020142 C 295.511261 861.725891 302.428131 866.192322 310.779236 871.280029 C 312.531799 872.347717 314.339722 873.437866 316.198364 874.548279 C 323.853668 879.121765 332.042847 883.846558 340.230255 888.458679 C 341.903168 889.401001 343.50647 890.299438 345.026733 891.147217 C 344.127014 893.403198 343.208984 895.626648 342.300873 897.727722 C 341.691803 899.136902 341.102295 900.455261 340.538544 901.664978 C 339.612762 903.651489 338.775269 905.30365 338.066223 906.535767 C 336.943634 908.486389 335.112915 911.213135 332.766266 914.459045 C 332.329254 915.063477 331.876831 915.682556 331.410461 916.314575 C 329.525726 918.868469 327.497406 921.520813 325.468048 924.110352 C 324.757111 925.017517 324.097473 925.851196 323.506653 926.591797 C 323.300934 926.84967 323.118896 927.076965 322.962677 927.271362 C 322.870758 927.385742 322.806641 927.465271 322.779602 927.498718 L 317.334076 934.232239 L 324.477203 939.128113 C 324.647278 939.24469 324.957428 939.454712 325.401978 939.752075 C 326.127777 940.237488 326.976593 940.797729 327.942749 941.426514 C 330.686035 943.211914 333.830292 945.196655 337.330475 947.331116 C 347.316193 953.420532 358.178314 959.507446 369.562225 965.195068 C 387.332031 974.073181 404.716675 981.146729 421.168213 985.747803 C 423.161133 986.305115 425.13559 986.824524 427.090942 987.304993 C 429.199127 987.823059 431.32843 988.32135 433.478119 988.800232 C 453.711578 993.307617 475.233429 996.006592 497.151489 997.240356 C 512.587585 998.109253 526.576172 998.174744 538.209106 997.763794 C 539.68158 997.711792 540.979797 997.655884 542.093628 997.59967 Z M 429 979.536133 C 484.881897 993.268188 543 989.537598 543 989.537598 C 543 989.537598 602.762573 987.659546 633 960 C 661.055847 934.33606 684 903 684 903 C 684 903 715.002502 893.865479 730 887 C 751.20813 877.291382 772.040527 865.103943 791 851.517456 C 811.9552 836.500732 850 801.510071 850 801.510071 L 818 752.50293 C 818 752.50293 835.749023 769.133667 853 772.505859 C 870.946655 776.014038 887 762.504395 887 762.504395 C 887 762.504395 874.583496 759.295105 862 751.502808 C 853.954834 746.520813 845.520996 739.147949 839 733.500122 C 831.304199 726.834839 823.366455 718.178284 817 709.496643 C 806.159851 694.714417 799 680.492371 799 680.492371 C 799 680.492371 808.907959 687.291321 814 689.493713 C 819.045898 691.676086 831 694.494446 831 694.494446 C 831 694.494446 816.797852 682.007935 802 659.489319 C 795.47583 649.561096 794.092773 645.759094 791 638.486206 C 787.699585 630.725037 783 614.482727 783 614.482727 C 783 614.482727 777.15564 648.416931 771 666.490356 C 763.786255 687.670288 747 710.496765 747 710.496765 C 747 710.496765 765.008301 672.440613 770 638.486206 C 774.225586 609.743164 775 551.473511 775 551.473511 C 775 551.473511 785.02063 574.201843 791 583.47821 C 795.995544 591.228149 807 602.480957 807 602.480957 C 807 602.480957 800.485107 584.80127 801 562.475098 C 801.46814 542.177124 796 507.467041 796 507.467041 C 796 507.467041 847.769958 485.432312 865 437.456848 C 886.730713 376.949707 874.783081 336.482361 857 316.439148 C 838.807617 295.93457 814 297.436279 814 297.436279 C 814 297.436279 827.162354 303.486206 832 306.437622 C 836.49939 309.182861 842 314.438843 842 314.438843 C 842 314.438843 823.602173 308.330322 808 316.439148 C 784.723511 328.536499 773 360.445618 773 360.445618 C 773 360.445618 762.813293 336.444275 767 320.439758 C 771.294983 304.02124 791 294.435913 791 294.435913 C 791 294.435913 776.14856 274.644897 767 265.431641 C 756.524475 254.881958 730 234.427124 730 234.427124 C 730 234.427124 746.197998 241.061035 752 244.428589 C 759.276489 248.651855 773 258.430664 773 258.430664 C 773 258.430664 747.88031 208.247803 682 173.418213 C 607.073914 133.806274 543 140.41333 543 140.41333 C 543 140.41333 478.926086 133.806396 404 173.418213 C 338.11969 208.247803 313 258.430664 313 258.430664 C 313 258.430664 326.723541 248.651855 334 244.428589 C 339.802002 241.061035 356 234.427124 356 234.427124 C 356 234.427124 329.475525 254.88208 319 265.431641 C 309.851471 274.644897 295 294.435913 295 294.435913 C 295 294.435913 314.705017 304.021362 319 320.439758 C 323.186707 336.444275 313 360.445618 313 360.445618 C 313 360.445618 301.276489 328.536499 278 316.439148 C 262.397797 308.330322 244 314.438843 244 314.438843 C 244 314.438843 249.50061 309.182861 254 306.437744 C 258.837616 303.486206 272 297.436401 272 297.436401 C 272 297.436401 247.192413 295.93457 229 316.439148 C 211.216949 336.482361 199.269318 376.949707 221 437.456848 C 238.230042 485.432373 290 507.467102 290 507.467102 C 290 507.467102 284.531891 542.177124 285 562.475098 C 285.514893 584.80127 279 602.480957 279 602.480957 C 279 602.480957 290.004456 591.228149 295 583.47821 C 300.97937 574.201904 311 551.473511 311 551.473511 C 311 551.473511 311.774414 609.743164 316 638.486267 C 320.991699 672.440613 339 710.496765 339 710.496765 C 339 710.496765 322.213745 687.670349 315 666.490356 C 308.84433 648.416992 303 614.482727 303 614.482727 C 303 614.482727 298.300415 630.725037 295 638.486267 C 291.907227 645.759094 290.5242 649.561096 284 659.489319 C 269.202148 682.007935 255 694.494446 255 694.494446 C 255 694.494446 266.954132 691.676086 272 689.493713 C 277.092041 687.291382 287 680.492371 287 680.492371 C 287 680.492371 279.840149 694.714478 269 709.496643 C 262.633575 718.178284 254.69577 726.8349 247 733.500183 C 240.479034 739.147949 232.045166 746.520813 224 751.502808 C 211.416504 759.295105 199 762.504395 199 762.504395 C 199 762.504395 215.053345 776.014038 233 772.505859 C 250.251007 769.133667 268 752.50293 268 752.50293 L 236 801.510132 C 236 801.510132 274.0448 836.500732 295 851.517456 C 313.959442 865.103943 355 887.522705 355 887.522705 C 355 887.522705 349.239349 903.159546 345 910.526062 C 340.572449 918.219727 329 932.529297 329 932.529297 C 329 932.529297 380.024231 967.501221 429 979.536133 Z M 794.499451 301.629913 L 799.099731 299.392151 L 810.658936 304.7052 C 810.803894 304.771851 811.083679 304.901062 811.478882 305.084625 C 812.018372 305.335205 812.608704 305.61087 813.239441 305.907135 C 812.828308 306.016632 812.417786 306.131775 812.007935 306.252686 C 809.338867 307.04007 806.767029 308.064026 804.31073 309.340607 C 795.020996 314.168732 786.932495 321.804016 779.889893 331.431519 C 778.133667 333.832367 776.486389 336.297455 774.945984 338.799774 C 774.573669 336.735504 774.301758 334.723938 774.144531 332.789764 C 773.815979 328.747833 774.011536 325.247345 774.739563 322.464386 C 775.965332 317.778687 779.195435 313.196686 783.923523 308.967346 C 786.2677 306.870514 788.810059 305.011292 791.349426 303.430634 C 792.231995 302.881256 793.044067 302.40979 793.760437 302.019531 C 793.999634 301.889221 794.206055 301.780121 794.376465 301.692596 C 794.457458 301.651001 794.499451 301.629974 794.499451 301.629913 Z M 273.992188 306.252716 C 273.582336 306.131805 273.171814 306.016663 272.760712 305.907166 C 273.391357 305.610931 273.981659 305.335327 274.521088 305.084747 C 274.91626 304.901215 275.196045 304.771973 275.341003 304.705353 L 286.900513 299.392273 L 291.500488 301.629913 C 291.500488 301.629913 291.54248 301.65094 291.623535 301.692596 C 291.793945 301.780121 292.000305 301.889221 292.239532 302.019531 C 292.955902 302.40979 293.767944 302.881256 294.650513 303.430634 C 297.189911 305.011322 299.7323 306.870544 302.076447 308.967377 C 306.804596 313.196747 310.034698 317.778748 311.260437 322.464386 C 311.988434 325.247345 312.184052 328.747833 311.855438 332.789764 C 311.698212 334.723938 311.426331 336.735504 311.053986 338.799774 C 309.513611 336.297455 307.866333 333.832367 306.110107 331.431519 C 299.067474 321.804016 290.979034 314.168732 281.68927 309.340607 C 279.233032 308.064056 276.661194 307.0401 273.992188 306.252716 Z"/>
        <path id="FRONT" fill="#000000" fill-rule="evenodd" stroke="none" d="M 543 989.537598 C 543 989.537598 484.881897 993.268188 429 979.536133 C 380.024231 967.501221 329 932.529297 329 932.529297 C 329 932.529297 340.572449 918.219727 345 910.526062 C 349.239349 903.159546 355 887.522705 355 887.522705 C 355 887.522705 313.959442 865.103943 295 851.517456 C 274.0448 836.500732 236 801.510132 236 801.510132 L 268 752.50293 C 268 752.50293 250.251007 769.133667 233 772.505859 C 215.053345 776.014038 199 762.504395 199 762.504395 C 199 762.504395 211.416504 759.295105 224 751.502808 C 232.045166 746.520813 240.479034 739.147949 247 733.500183 C 254.69577 726.8349 262.633575 718.178284 269 709.496643 C 279.840149 694.714478 287 680.492371 287 680.492371 C 287 680.492371 277.092041 687.291382 272 689.493713 C 266.954132 691.676086 255 694.494446 255 694.494446 C 255 694.494446 269.202148 682.007935 284 659.489319 C 290.5242 649.561096 291.907227 645.759094 295 638.486267 C 298.300415 630.725037 303 614.482727 303 614.482727 C 303 614.482727 308.84433 648.416992 315 666.490356 C 322.213745 687.670349 339 710.496765 339 710.496765 C 339 710.496765 320.991699 672.440613 316 638.486267 C 311.774414 609.743164 311 551.473511 311 551.473511 C 311 551.473511 300.97937 574.201904 295 583.47821 C 290.004456 591.228149 279 602.480957 279 602.480957 C 279 602.480957 285.514893 584.80127 285 562.475098 C 284.531891 542.177124 290 507.467102 290 507.467102 C 290 507.467102 238.230042 485.432373 221 437.456848 C 199.269318 376.949707 211.216949 336.482361 229 316.439148 C 247.192413 295.93457 272 297.436401 272 297.436401 C 272 297.436401 258.837616 303.486206 254 306.437744 C 249.50061 309.182861 244 314.438843 244 314.438843 C 244 314.438843 262.397797 308.330322 278 316.439148 C 301.276489 328.536499 313 360.445618 313 360.445618 C 313 360.445618 323.186707 336.444275 319 320.439758 C 314.705017 304.021362 295 294.435913 295 294.435913 C 295 294.435913 309.851471 274.644897 319 265.431641 C 329.475525 254.88208 356 234.427124 356 234.427124 C 356 234.427124 339.802002 241.061035 334 244.428589 C 326.723541 248.651855 313 258.430664 313 258.430664 C 313 258.430664 338.11969 208.247803 404 173.418213 C 478.926086 133.806396 543 140.41333 543 140.41333 C 543 140.41333 607.073914 133.806274 682 173.418213 C 747.88031 208.247803 773 258.430664 773 258.430664 C 773 258.430664 759.276489 248.651855 752 244.428589 C 746.197998 241.061035 730 234.427124 730 234.427124 C 730 234.427124 756.524475 254.881958 767 265.431641 C 776.14856 274.644897 791 294.435913 791 294.435913 C 791 294.435913 771.294983 304.02124 767 320.439758 C 762.813293 336.444275 773 360.445618 773 360.445618 C 773 360.445618 784.723511 328.536499 808 316.439148 C 823.602173 308.330322 842 314.438843 842 314.438843 C 842 314.438843 836.49939 309.182861 832 306.437622 C 827.162354 303.486206 814 297.436279 814 297.436279 C 814 297.436279 838.807617 295.93457 857 316.439148 C 874.783081 336.482361 886.730713 376.949707 865 437.456848 C 847.769958 485.432312 796 507.467041 796 507.467041 C 796 507.467041 801.46814 542.177124 801 562.475098 C 800.485107 584.80127 807 602.480957 807 602.480957 C 807 602.480957 795.995544 591.228149 791 583.47821 C 785.02063 574.201843 775 551.473511 775 551.473511 C 775 551.473511 774.225586 609.743164 770 638.486206 C 765.008301 672.440613 747 710.496765 747 710.496765 C 747 710.496765 763.786255 687.670288 771 666.490356 C 777.15564 648.416931 783 614.482727 783 614.482727 C 783 614.482727 787.699585 630.725037 791 638.486206 C 794.092773 645.759094 795.47583 649.561096 802 659.489319 C 816.797852 682.007935 831 694.494446 831 694.494446 C 831 694.494446 819.045898 691.676086 814 689.493713 C 808.907959 687.291321 799 680.492371 799 680.492371 C 799 680.492371 806.159851 694.714417 817 709.496643 C 823.366455 718.178284 831.304199 726.834839 839 733.500122 C 845.520996 739.147949 853.954834 746.520813 862 751.502808 C 874.583496 759.295105 887 762.504395 887 762.504395 C 887 762.504395 870.946655 776.014038 853 772.505859 C 835.749023 769.133667 818 752.50293 818 752.50293 L 850 801.510071 C 850 801.510071 811.9552 836.500732 791 851.517456 C 772.040527 865.103943 751.20813 877.291382 730 887 C 715.002502 893.865479 684 903 684 903 C 684 903 661.055847 934.33606 633 960 C 602.762573 987.659546 543 989.537598 543 989.537598 Z M 397 752 C 377.818787 811.063965 371 921 371 921 C 371 921 381.075836 901.313965 385 891 C 392.115295 872.298584 395.7948 846.904724 402.192932 833.487183 C 404.212769 829.251343 422 801 422 801 C 422 801 418.156799 814.376892 417.276947 821.150513 C 416.551392 826.736206 417 838 417 838 C 417 838 430.841827 805.31842 440 791 C 450.772827 774.157104 468 758 468 758 C 468 758 462.916718 769.854248 461 776 C 458.857605 782.869324 456 797 456 797 C 456 797 475.333832 769.806641 486 757 C 489.774109 752.468567 493.538208 747.85614 498 744 C 503.80603 738.982117 535.554321 722.352051 571 706 C 601.7099 691.832703 637.78656 670.012268 642 669 C 646.225891 667.984741 655 668 655 668 L 688 672 C 688 672 701.3927 675.278015 704 664 C 706.041382 655.169983 694 651 694 651 C 694 651 656.13678 643.521545 637 644 C 629.220703 644.194519 618.142639 646.445068 614 648 C 589.296814 657.272278 566.177856 671.027405 543 683 C 527.896057 690.802002 510.865295 698.904785 499 707 C 486.216064 715.721924 462 737 462 737 L 425 765 C 425 765 467.525421 722.751465 447 681 C 439.610321 665.968445 431.558807 656.63324 403 655 C 399.542999 654.802307 385.874542 656.982544 383 672 C 381.296356 680.90033 398 694 398 694 C 398 694 403.393463 690.759216 406 689 C 409.757996 686.463623 417 681 417 681 C 417 681 420.405029 687.828918 414 693 C 405.137939 700.154724 405 710 405 710 C 405 710 411.867737 705.204956 415 704 C 417.904175 702.882813 424 702 424 702 C 424 702 416.058258 707.013916 410 716 C 407.993103 718.976746 406 727 406 727 C 406 727 410.696747 724.269592 413.045135 723.404419 C 417.03009 721.936279 425 720 425 720 C 425 720 404.764832 728.090088 397 752 Z M 669 872 C 669 872 684.169312 861.089478 692 856 C 702.78479 848.99054 725 836 725 836 C 725 836 738.128174 824.226196 728 810 C 719.622253 798.232483 705 803 705 803 C 705 803 670.90332 815.244507 653 825 C 649.251648 827.04248 645.520508 829.55481 643 833 C 640.258667 836.74707 638 846 638 846 C 638 846 636.110779 856.626343 636 862 C 635.917297 866.013 637 874 637 874 C 637 874 649.563538 867.771729 656 865 C 661.912781 862.453735 674 858 674 858 C 674 858 672.812927 862.713501 672 865 C 671.149597 867.391907 669 872 669 872 Z M 611 832 C 611 832 636.426758 813.702698 649.521484 805.653625 C 669.31543 793.486694 710 772 710 772 C 710 772 710.948181 775.222107 711 776.882629 C 711.074768 779.277222 710 784 710 784 C 710 784 727.226196 763.687805 713 748 C 699.136963 732.712646 677 745 677 745 C 677 745 658.131165 753.5578 649 758 C 630.890869 766.809875 604.894531 775.661255 596 786 C 593.276062 789.166199 591.411194 793.06897 590 797 C 587.018005 805.306396 585 823 585 823 C 585 823 597.129639 818.96759 603.194458 817.451416 C 609.129639 815.96759 621 814 621 814 C 621 814 616.74939 819.823486 615.015137 822.972717 C 613.426514 825.857544 611 832 611 832 Z M 529 785 C 529 785 542.485413 779.317383 549 776 C 556.184387 772.341553 570 764 570 764 C 570 764 566.965515 772.793762 565 777 C 563.547119 780.109192 561 787 561 787 C 561 787 580.071838 766.60376 593 757 C 603.405212 749.270447 621.178162 741.058472 634 734 C 648.497925 726.01886 675 712 675 712 C 675 712 671.152039 720.079712 669 724 C 667.129395 727.407654 663 734 663 734 C 663 734 670.571655 731.203369 678 724 C 682.26062 719.868408 688 710 688 710 C 688 710 695.563965 715.738403 699 719 C 702.593994 722.41156 709 730 709 730 C 709 730 716.954468 719.076355 706 708 C 702.171631 704.129028 695.635742 699.206177 689 694 C 681.210205 687.888367 672.928894 682.023804 664 681 C 655.500427 680.025452 638.856323 688.728027 622.499512 697.280518 C 615.001953 701.200684 607.564758 705.089355 601 708 C 584.910034 715.133789 570.013245 721.327576 553 731 C 540.20575 738.273804 536.78064 750.224915 534 760 C 530.432068 772.542847 529 785 529 785 Z M 543 619.655334 C 513.012268 619.674866 453 630 453 630 C 453 630 463 600.000427 543 600.000427 C 623 600.000427 633 630 633 630 C 633 630 573.328796 619.635498 543 619.655334 Z M 459 498 C 461.722229 503.51062 473 510 473 510 C 473 510 461.270477 514.729553 456 520 C 450.729523 525.270447 446.138763 533.239563 443 540 C 429.998413 568.00354 430 593 430 593 C 430 593 433.986023 575.774536 438 568 C 441.058411 562.076294 450 552 450 552 C 450 552 444.338715 566.421753 443 574 C 441.607117 581.884888 442 598 442 598 C 442 598 444.797699 587.788269 447 583 C 449.436493 577.702515 456 568 456 568 C 456 568 451.147034 581.312988 452 588 C 453.012756 595.939758 458 601 458 601 C 458 601 514.03833 583 543 583 C 571.96167 583 628 601 628 601 C 628 601 633.020203 595.997742 634 588 C 634.819763 581.308777 630 568 630 568 L 639 583 L 644 598 C 644 598 644.392883 581.884888 643 574 C 641.661316 566.421753 636 552 636 552 C 636 552 644.941589 562.076294 648 568 C 652.013977 575.774536 656 593 656 593 C 656 593 656.015747 568.008972 643 540 C 639.858887 533.240601 635.270447 525.270447 630 520 C 624.729553 514.729553 613 510 613 510 C 613 510 624.277771 503.51062 627 498 C 629.661499 492.612305 629.714111 485.759583 628 480 C 623.987366 466.517151 613.302795 455.578186 603 446 C 592.907654 436.617432 581.778503 424.20282 568 424 C 561.426331 423.903259 555.329102 429.052124 551 434 C 546.475037 439.171753 543 453 543 453 C 543 453 539.800049 439.339966 535 434 C 530.713684 429.231506 524.573669 423.903259 518 424 C 504.221497 424.20282 493.092346 436.617432 483 446 C 472.697235 455.578186 462.012634 466.517151 458 480 C 456.285889 485.759583 456.33847 492.612305 459 498 Z M 509.173767 450.06488 C 509.173767 450.06488 509.298157 454.621216 504.03064 459.322449 C 499.168335 463.662109 486.872742 470.063843 484.486847 474.75177 C 479.516266 484.518372 488.601318 492.238342 488.601318 492.238342 C 488.601318 492.238342 486.019958 482.424011 489.629944 480.923523 C 492.042938 479.920532 494.134552 482.534424 496.147888 485.050537 C 496.722717 485.76886 497.291168 486.479248 497.858887 487.095215 C 501.112305 490.625061 505.414246 492.936218 510.202393 496.352844 C 514.011169 499.070557 519.603027 500.974792 523.574463 502.524536 C 530.949951 505.402649 535.917908 506.639038 535.917908 506.639038 C 535.917908 506.639038 538.94989 492.037903 537.975098 484.009399 C 537.389038 479.182251 529.792175 476.998169 520.577332 470.107117 C 512.169678 463.819702 509.173767 450.06488 509.173767 450.06488 Z M 577.338257 450.06488 C 577.338257 450.06488 577.211487 454.621216 582.577271 459.32251 C 587.530151 463.662109 600.055054 470.063843 602.485474 474.75177 C 607.548706 484.518372 598.29425 492.238342 598.29425 492.238342 C 598.29425 492.238342 600.923706 482.424011 597.24646 480.923523 C 594.788452 479.920532 592.657898 482.534363 590.606934 485.050537 C 590.021362 485.768921 589.442383 486.479309 588.864014 487.095276 C 585.550049 490.625061 581.167847 492.936279 576.290405 496.352844 C 572.410645 499.070557 566.714478 500.974792 562.669067 502.524597 C 555.156006 505.40271 550.095459 506.639038 550.095459 506.639038 C 550.095459 506.639038 547.006958 492.037903 547.999878 484.009399 C 548.596802 479.182251 556.335327 476.99823 565.722046 470.107117 C 574.286377 463.819702 577.338257 450.06488 577.338257 450.06488 Z M 280 370.241943 C 280 370.241943 273.021149 357.431519 255.659576 368.22583 C 240.507813 377.646179 239.432617 393.427429 239.432617 393.427429 C 239.432617 393.427429 237.96991 377.166199 239.432617 369.233887 C 241.322906 358.982544 250.588654 340 250.588654 340 C 250.588654 340 221.627579 358.322144 229.290771 407.540344 C 236.334839 452.782104 267.829773 465 267.829773 465 C 267.829773 465 259.292572 453.763367 256.038116 448.145081 C 252.869385 442.674683 248.560272 431.733887 248.560272 431.733887 C 248.560272 431.733887 257.83194 439.11377 262.75885 441.814514 C 267.658997 444.500549 277.971619 447.862915 277.971619 447.862915 C 277.971619 447.862915 254.189941 429.102417 254.645386 406.532288 C 255.364288 370.905762 280 370.241943 280 370.241943 Z M 806 370.241943 C 806 370.241943 812.978882 357.431519 830.340454 368.22583 C 845.492188 377.646179 846.567383 393.427429 846.567383 393.427429 C 846.567383 393.427429 848.03009 377.166199 846.567383 369.233887 C 844.677063 358.982544 835.411377 340 835.411377 340 C 835.411377 340 864.372437 358.322144 856.709229 407.540344 C 849.665161 452.782104 818.170227 465 818.170227 465 C 818.170227 465 826.707458 453.763367 829.961853 448.145081 C 833.130615 442.674683 837.439697 431.733887 837.439697 431.733887 C 837.439697 431.733887 828.16803 439.11377 823.24115 441.814514 C 818.341003 444.500549 808.028381 447.862915 808.028381 447.862915 C 808.028381 447.862915 831.810059 429.102417 831.354614 406.532288 C 830.635742 370.905762 806 370.241943 806 370.241943 Z M 432 420 C 423.678497 416.397949 410 404 410 404 C 410 404 412.025299 413.778687 415 419 C 417.569427 423.509949 423 429 423 429 C 423 429 413.391632 425.295471 409 423 C 403.917542 420.343445 395 413 395 413 C 395 413 399.765717 426.622986 406 433 C 411.954559 439.090881 425 445 425 445 C 425 445 413.082581 443.211548 407 441 C 401.674408 439.063721 392 433 392 433 C 392 433 407.587402 463.575195 435 462 C 462.473816 460.421265 480 430 480 430 C 480 430 461.24115 443.730286 451 448 C 445.326935 450.365173 434 452 434 452 C 434 452 445.6875 445.163269 451 441 C 457.125 436.200012 468 425 468 425 C 468 425 455.290771 430.903076 449 433 C 444.290771 434.569763 435 436 435 436 L 445 431 L 453 424 C 453 424 438.53949 422.830688 432 420 Z M 654 420 C 662.321533 416.397949 676 404 676 404 C 676 404 673.974731 413.778687 671 419 C 668.430542 423.509949 663 429 663 429 C 663 429 672.608398 425.295471 677 423 C 682.082458 420.343445 691 413 691 413 C 691 413 686.234253 426.622986 680 433 C 674.04541 439.090881 661 445 661 445 C 661 445 672.917419 443.211548 679 441 C 684.325562 439.063721 694 433 694 433 C 694 433 678.412598 463.575195 651 462 C 623.526184 460.421265 606 430 606 430 C 606 430 624.75885 443.730286 635 448 C 640.673096 450.365173 652 452 652 452 C 652 452 640.3125 445.163269 635 441 C 628.875 436.200012 618 425 618 425 C 618 425 630.709229 430.903076 637 433 C 641.709229 434.569763 651 436 651 436 L 641 431 L 633 424 C 633 424 647.46051 422.830688 654 420 Z M 481 390 L 478 395 L 483 394 C 483 394 474.23938 407.040955 458 407 C 441.26004 406.957764 435 394 435 394 L 440 396 L 437 387 C 437 387 449.422699 398.312012 457 399 C 465.398193 399.762512 481 390 481 390 Z M 605 390 L 608 395 L 603 394 C 603 394 611.76062 407.040955 628 407 C 644.73999 406.957764 651 394 651 394 L 646 396 L 649 387 C 649 387 636.577271 398.312012 629 399 C 620.601807 399.762512 605 390 605 390 Z M 543 319 C 543 319 492.856323 285.235962 429.849792 296 C 403.544342 300.494019 388.369446 312.844238 375.778015 330 C 360.885162 350.291443 365.764709 389 365.764709 389 C 365.764709 389 371.839142 344.077271 400.811249 335 C 420.580261 328.806152 440.886444 330.830383 459.889679 336 C 474.745178 340.04126 505.950806 348 505.950806 348 C 505.950806 348 505.94104 343.90802 504.949463 341 C 502.853577 334.853149 499.658325 332.15863 498.437775 331.312927 C 500.612793 332.689209 509.337433 338.299988 512.960144 342 C 516.460388 345.575012 520.970764 354 520.970764 354 C 520.970764 354 524.321594 351.841248 525.977417 345 C 527.270752 339.656433 522.97345 330 522.97345 330 C 522.97345 330 529.369202 338.608276 532.986694 342 C 536.102966 344.921753 543 349 543 349 C 543 349 549.897034 344.921753 553.013306 342 C 556.630859 338.608276 563.026611 330 563.026611 330 C 563.026611 330 558.729248 339.656433 560.022583 345 C 561.678406 351.841248 565.029236 354 565.029236 354 C 565.029236 354 569.539612 345.575012 573.039917 342 C 576.662598 338.299988 585.387207 332.689209 587.562195 331.312927 C 586.341675 332.15863 583.146423 334.853149 581.050537 341 C 580.05896 343.90802 580.049194 348 580.049194 348 C 580.049194 348 611.254822 340.04126 626.110352 336 C 645.113586 330.830383 665.4198 328.806152 685.188782 335 C 714.160889 344.077271 720.235291 389 720.235291 389 C 720.235291 389 725.114868 350.291443 710.222046 330 C 697.630554 312.844238 682.455688 300.494019 656.150208 296 C 593.143677 285.235962 543 319 543 319 Z M 460 373 C 463.986786 373.498962 465.533051 375.451721 465 378 C 464.542175 380.188721 462.335144 382.851257 459 382 C 455.416687 381.085388 454.764313 379.121338 455 377 C 455.235687 374.878662 457.03833 372.629333 460 373 Z M 626 373 C 622.013184 373.498962 620.466919 375.451721 621 378 C 621.457825 380.188721 623.664856 382.851257 627 382 C 630.583313 381.085388 631.235718 379.121338 631 377 C 630.764282 374.878662 628.96167 372.629333 626 373 Z M 426 257 C 426 257 437.482178 247.033447 461 249 C 481.568176 250.719971 498 258 498 258 C 498 258 496.464233 252.908325 495 251 C 492.910828 248.277344 488 246 488 246 C 488 246 495.477966 247.473999 500 249 C 505.93396 251.002563 517 257 517 257 C 517 257 508.685425 239.921753 473 238 C 438.449707 236.139404 426 257 426 257 Z M 660 257 C 660 257 648.517822 247.033447 625 249 C 604.431824 250.719971 588 258 588 258 C 588 258 589.535767 252.908325 591 251 C 593.089172 248.277344 598 246 598 246 C 598 246 590.522034 247.473999 586 249 C 580.06604 251.002563 569 257 569 257 C 569 257 577.314575 239.921753 613 238 C 647.550293 236.139404 660 257 660 257 Z M 480 222 C 452.026184 219.142212 424 231 424 231 C 424 231 439.364594 219.902954 460 215 C 477.48233 210.846191 481 212 481 212 C 481 212 479.200806 208.733765 473.356445 207.533936 C 467.710876 206.375 455 207 455 207 C 455 207 485.039124 197.647339 507 208 C 527.371643 217.603516 537 235 537 235 L 515 222 L 526 238 C 526 238 504.465332 224.49939 480 222 Z M 606 222 C 633.973816 219.142212 662 231 662 231 C 662 231 646.635376 219.902954 626 215 C 608.5177 210.846191 605 212 605 212 C 605 212 606.799194 208.733765 612.643555 207.533936 C 618.289124 206.375 631 207 631 207 C 631 207 600.960876 197.647339 579 208 C 558.628357 217.603516 549 235 549 235 L 571 222 L 560 238 C 560 238 581.534668 224.49939 606 222 Z M 472.455444 191.70874 C 448.335968 188.387451 426 195.766968 426 195.766968 C 426 195.766968 443.047028 187.392212 452.257416 185.621338 C 469.903259 182.228638 478.514862 183.592163 478.514862 183.592163 C 478.514862 183.592163 468.200806 180.733765 462.356445 179.533936 C 456.710876 178.375 445.18811 177.504761 445.18811 177.504761 C 445.18811 177.504761 470.692566 170.195801 492.653442 180.548462 C 513.025085 190.151978 528 212 528 212 C 528 212 515.85022 203.571411 500.732666 197.796143 C 491.467041 194.25647 480.289368 192.787476 472.455444 191.70874 Z M 613.544556 191.70874 C 637.664063 188.387451 660 195.766968 660 195.766968 C 660 195.766968 642.952942 187.392212 633.742554 185.621338 C 616.096741 182.228638 607.485168 183.592163 607.485168 183.592163 C 607.485168 183.592163 617.799194 180.733765 623.643555 179.533936 C 629.289124 178.375 640.81189 177.504761 640.81189 177.504761 C 640.81189 177.504761 615.307434 170.195801 593.346558 180.548462 C 572.974915 190.151978 558 212 558 212 C 558 212 570.14978 203.571411 585.267334 197.796143 C 594.532959 194.25647 605.710632 192.787476 613.544556 191.70874 Z M 498.437775 331.312927 C 498.118347 331.11084 497.940186 331 497.940186 331 C 497.940186 331 498.123535 331.095215 498.437775 331.312927 Z M 587.562195 331.312927 C 587.876465 331.095215 588.059814 331 588.059814 331 C 588.059814 331 587.881653 331.11084 587.562195 331.312927 Z"/>
    </g>
</svg>
