<?xml version="1.0" encoding="UTF-8"?>
<!-- Generated by Pixelmator Pro 3.6.13 -->
<svg width="1080" height="1080" viewBox="0 0 1080 1080" xmlns="http://www.w3.org/2000/svg">
    <g id="OUTPUT-">
        <path id="path1" fill="#000000" fill-rule="evenodd" stroke="#ffffff" stroke-width="8" stroke-linecap="round" stroke-linejoin="round" visibility="hidden" d="M 3021.130859 680.830994 L 3118.14502 680.830994 L 3118.14502 737.640991 L 2856.381836 737.640991 L 2856.381836 680.830994 L 2954.27002 680.830994 L 2954.27002 660.291992 L 2876.483887 660.291992 L 2876.483887 627.080017 L 2850.701172 613.969971 C 2850.992188 619.213989 2851.137939 627.371277 2851.137939 638.442017 C 2851.137939 669.323486 2849.317139 692.047241 2845.675537 706.614014 C 2842.033691 721.180725 2835.98877 731.013123 2827.540039 736.111511 C 2819.091309 741.209839 2805.981445 744.341675 2788.209961 745.507019 L 2758.931152 747.692017 L 2740.140137 676.023987 L 2762.427002 673.838989 C 2771.166992 672.964966 2777.35791 671.217041 2780.999512 668.594971 C 2784.641113 665.973022 2787.19043 660.219238 2788.646973 651.333496 C 2790.103516 642.447754 2790.832031 627.808472 2790.832031 607.414978 C 2790.832031 601.879639 2790.686279 597.655334 2790.39502 594.742004 C 2775.245605 612.513428 2754.706787 631.158569 2728.777832 650.677979 L 2713.045898 571.580994 C 2743.63623 551.187561 2765.777344 534.144775 2779.469971 520.452026 L 2772.915039 495.105957 C 2765.631592 501.223999 2754.415527 509.818237 2739.266113 520.889038 L 2718.727051 449.657959 C 2728.341064 443.248657 2738.246338 435.528381 2748.442871 426.497009 C 2739.994141 406.103577 2731.108887 386.875732 2721.786133 368.812988 L 2774.663086 342.156006 C 2783.694336 357.014038 2791.123291 370.269653 2796.949951 381.922974 C 2810.934082 367.647583 2821.567627 355.411743 2828.851074 345.214966 L 2869.055176 384.545044 L 2869.055176 350.021973 L 3098.042969 350.021973 L 3098.042969 513.02301 L 2883.913086 513.02301 L 2928.923828 528.755005 C 2928.050049 531.668335 2926.884766 534.872986 2925.427979 538.369019 L 2954.27002 538.369019 L 2954.27002 520.889038 L 3021.130859 522.636963 L 3021.130859 538.369019 L 3103.287109 538.369019 L 3103.287109 590.372009 L 3021.130859 590.372009 L 3021.130859 611.348022 L 3096.294922 611.348022 L 3096.294922 660.291992 L 3021.130859 660.291992 Z M 2849.390137 578.135986 C 2861.625977 552.207214 2870.365967 530.503052 2875.609863 513.02301 L 2869.055176 513.02301 L 2869.055176 397.655029 C 2853.614258 416.591797 2839.047852 432.90625 2825.35498 446.598999 C 2832.347168 466.40979 2837.80957 486.875732 2841.742676 507.997498 C 2845.675537 529.119263 2848.224609 552.498535 2849.390137 578.135986 Z M 3030.745117 415.13501 L 3030.745117 398.092041 L 2935.479004 398.092041 L 2935.479004 415.13501 Z M 2935.479004 454.028015 L 2935.479004 470.197021 L 3030.745117 470.197021 L 3030.745117 454.028015 Z M 2954.27002 611.348022 L 2954.27002 590.372009 L 2904.88916 590.372009 L 2895.711914 611.348022 Z M 2527.321045 680.830994 L 2624.334961 680.830994 L 2624.334961 737.640991 L 2362.572021 737.640991 L 2362.572021 680.830994 L 2460.459961 680.830994 L 2460.459961 660.291992 L 2382.673828 660.291992 L 2382.673828 627.080017 L 2356.891113 613.969971 C 2357.182373 619.213989 2357.328125 627.371277 2357.328125 638.442017 C 2357.328125 669.323486 2355.507324 692.047241 2351.865479 706.614014 C 2348.223633 721.180725 2342.178711 731.013123 2333.72998 736.111511 C 2325.28125 741.209839 2312.171387 744.341675 2294.399902 745.507019 L 2265.121094 747.692017 L 2246.330078 676.023987 L 2268.616943 673.838989 C 2277.356934 672.964966 2283.547852 671.217041 2287.189453 668.594971 C 2290.831055 665.973022 2293.380371 660.219238 2294.836914 651.333496 C 2296.293701 642.447754 2297.021973 627.808472 2297.021973 607.414978 C 2297.021973 601.879639 2296.876465 597.655334 2296.584961 594.742004 C 2281.435547 612.513428 2260.896973 631.158569 2234.968018 650.677979 L 2219.236084 571.580994 C 2249.826172 551.187561 2271.967285 534.144775 2285.660156 520.452026 L 2279.10498 495.105957 C 2271.821777 501.223999 2260.605469 509.818237 2245.456055 520.889038 L 2224.916992 449.657959 C 2234.531006 443.248657 2244.436279 435.528381 2254.633057 426.497009 C 2246.184326 406.103577 2237.298828 386.875732 2227.976074 368.812988 L 2280.853027 342.156006 C 2289.884277 357.014038 2297.313477 370.269653 2303.140137 381.922974 C 2317.124023 367.647583 2327.757813 355.411743 2335.041016 345.214966 L 2375.245117 384.545044 L 2375.245117 350.021973 L 2604.23291 350.021973 L 2604.23291 513.02301 L 2390.103027 513.02301 L 2435.114014 528.755005 C 2434.23999 531.668335 2433.074707 534.872986 2431.618164 538.369019 L 2460.459961 538.369019 L 2460.459961 520.889038 L 2527.321045 522.636963 L 2527.321045 538.369019 L 2609.477051 538.369019 L 2609.477051 590.372009 L 2527.321045 590.372009 L 2527.321045 611.348022 L 2602.484863 611.348022 L 2602.484863 660.291992 L 2527.321045 660.291992 Z M 2355.580078 578.135986 C 2367.815918 552.207214 2376.556152 530.503052 2381.800049 513.02301 L 2375.245117 513.02301 L 2375.245117 397.655029 C 2359.804199 416.591797 2345.237793 432.90625 2331.544922 446.598999 C 2338.537109 466.40979 2343.999512 486.875732 2347.932617 507.997498 C 2351.865479 529.119263 2354.414551 552.498535 2355.580078 578.135986 Z M 2536.935059 415.13501 L 2536.935059 398.092041 L 2441.668945 398.092041 L 2441.668945 415.13501 Z M 2441.668945 454.028015 L 2441.668945 470.197021 L 2536.935059 470.197021 L 2536.935059 454.028015 Z M 2460.459961 611.348022 L 2460.459961 590.372009 L 2411.079102 590.372009 L 2401.901855 611.348022 Z M 2129.650879 568.958984 L 2054.050049 568.958984 L 2054.050049 590.809021 L 2113.044922 590.809021 L 2113.044922 740.263 L 1932.563965 740.263 L 1932.563965 620.962036 C 1928.776611 646.016785 1923.678223 668.667725 1917.269043 688.915527 C 1910.859619 709.163269 1902.556641 728.609558 1892.359863 747.255005 L 1834.676025 707.488037 C 1833.802002 717.684692 1831.398438 725.259277 1827.465576 730.211975 C 1823.532471 735.164673 1817.778809 738.660645 1810.204102 740.700012 C 1802.629395 742.739319 1790.539063 744.632996 1773.933105 746.380981 L 1752.957031 748.565979 L 1734.166016 679.083008 L 1748.149902 676.89801 C 1754.268066 676.023987 1758.710938 675.150024 1761.478516 674.276001 C 1764.246094 673.401978 1766.431152 671.653992 1768.033447 669.031982 C 1769.635742 666.409973 1770.437012 662.477051 1770.437012 657.233032 L 1770.437012 607.414978 C 1757.909668 610.328369 1752.665527 611.493652 1754.705078 610.911011 C 1744.216797 612.950317 1736.351074 614.698303 1731.106934 616.155029 L 1725.863037 544.049988 L 1770.437012 535.747009 L 1770.437012 474.130005 L 1738.973145 474.130005 L 1738.973145 405.958008 L 1770.437012 405.958008 L 1770.437012 342.156006 L 1835.113037 343.903992 L 1835.113037 405.958008 L 1863.955078 405.958008 L 1863.955078 474.130005 L 1835.113037 474.130005 L 1835.113037 523.510986 L 1862.644043 517.393005 L 1863.081055 553.664001 L 1863.081055 588.624023 L 1835.113037 594.742004 L 1835.113037 692.630005 L 1835.113037 701.807007 C 1846.183594 681.413574 1854.632324 661.384583 1860.458984 641.719482 C 1866.285645 622.054382 1870.437012 599.184937 1872.913574 573.110474 C 1875.389893 547.036011 1876.773682 513.751526 1877.064941 473.255981 L 1877.064941 353.080994 L 2117.415039 353.080994 L 2117.415039 488.114014 L 2054.050049 488.114014 L 2054.050049 511.275024 L 2129.650879 511.275024 Z M 2053.176025 436.110962 L 2053.176025 412.513 L 1940.429932 412.513 L 1940.429932 436.110962 Z M 1940.429932 511.275024 L 1991.996094 511.275024 L 1991.996094 488.114014 L 1940.429932 488.114014 Z M 1991.996094 590.809021 L 1991.996094 568.958984 L 1937.808105 568.958984 C 1937.225342 578.86438 1936.642578 586.147644 1936.060059 590.809021 Z M 1993.744141 683.015991 L 2050.553955 683.015991 L 2050.553955 645.434021 L 1993.744141 645.434021 Z M 1642.833008 680.830994 L 1603.939941 744.632996 C 1578.01123 720.160889 1556.598389 696.56311 1539.700928 673.838989 C 1520.181641 697.728455 1494.981445 722.200195 1464.099976 747.255005 L 1438.754028 715.354004 L 1423.458984 742.447998 C 1410.348877 734.58197 1389.518799 722.49176 1360.968018 706.177002 C 1336.49585 719.578369 1303.866821 733.270935 1263.079956 747.255005 L 1229.43103 693.504028 C 1257.981812 685.346619 1280.851196 678.354675 1298.040039 672.528015 L 1256.525024 652.863037 C 1262.934326 641.500977 1269.197998 629.556396 1275.31604 617.028992 L 1244.725952 617.028992 L 1244.725952 568.084961 L 1295.85498 568.084961 C 1297.603027 563.423645 1299.642334 556.431702 1301.973022 547.109009 L 1367.522949 553.22699 L 1363.152954 568.084961 L 1445.30896 568.084961 L 1445.30896 615.718018 C 1436.56897 635.528748 1425.789795 652.571594 1412.970947 666.846985 L 1441.812988 679.957031 C 1465.993774 661.311584 1486.386963 640.481445 1502.993042 617.466003 C 1490.756958 594.741882 1481.434326 572.74646 1475.025024 551.479004 L 1464.099976 566.337036 L 1451.427002 529.192017 L 1427.828979 558.033997 C 1417.632324 548.711304 1402.191772 536.038452 1381.506958 520.015015 L 1381.506958 541.86499 L 1323.385986 541.86499 L 1323.385986 517.393005 C 1307.071289 533.999084 1286.82373 548.274292 1262.642944 560.218994 L 1235.54895 509.963989 C 1248.076416 505.302612 1260.312256 499.548828 1272.256958 492.702515 C 1284.201782 485.85614 1294.689575 478.791382 1303.720947 471.507996 L 1244.28894 471.507996 L 1244.28894 417.320007 L 1269.63501 417.320007 C 1257.690308 387.3125 1250.115723 369.395691 1246.911011 363.56897 L 1294.543945 345.651978 C 1296.874634 350.022034 1300.297852 357.232422 1304.813477 367.283508 C 1309.329224 377.334595 1312.606689 384.544983 1314.645996 388.915039 L 1321.637939 404.209961 L 1290.610962 417.320007 L 1323.385986 417.320007 L 1323.385986 341.718994 L 1381.506958 343.467041 L 1381.506958 397.218018 C 1398.987061 368.084534 1409.037964 350.895996 1411.660034 345.651978 L 1459.72998 367.502014 C 1458.273315 370.706665 1451.718384 382.068604 1440.064941 401.588013 C 1433.947021 411.493408 1430.74231 416.737305 1430.45105 417.320007 L 1452.301025 417.320007 L 1452.301025 471.507996 L 1381.506958 471.507996 L 1381.506958 504.719971 L 1406.853027 475.004028 C 1417.049683 481.996033 1428.702881 490.590271 1441.812988 500.786987 L 1440.938965 497.728027 C 1465.993774 456.358459 1483.473633 404.064636 1493.379028 340.844971 L 1556.307007 346.526001 C 1552.811035 365.754089 1549.606323 380.90332 1546.692993 391.973999 L 1629.286011 391.973999 L 1629.286011 464.515991 L 1616.613037 464.515991 C 1613.408325 495.688843 1608.74707 523.510864 1602.629028 547.983032 C 1596.510986 572.455078 1588.062378 595.178894 1577.282959 616.155029 C 1593.306396 635.674438 1615.15625 657.23291 1642.833008 680.830994 Z M 1401.171997 417.320007 L 1381.506958 406.39502 L 1381.506958 417.320007 Z M 1537.515991 550.167969 C 1546.838745 525.11322 1553.539307 496.562866 1557.618042 464.515991 L 1523.968994 464.515991 L 1517.414063 479.374023 C 1522.075317 505.885498 1528.776001 529.483215 1537.515991 550.167969 Z M 1341.302979 617.028992 L 1331.251953 634.072021 L 1359.219971 646.744995 C 1366.794678 639.461609 1374.078003 629.556396 1381.070068 617.028992 Z"/>
        <path id="path2" fill="#00a2ff" fill-rule="evenodd" stroke="#ffffff" stroke-linecap="round" stroke-linejoin="round" visibility="hidden" d="M 540 989.537598 C 540 989.537598 481.881897 993.268188 426 979.536133 C 377.024231 967.501221 326 932.529297 326 932.529297 C 326 932.529297 337.572449 918.219727 342 910.526062 C 346.239349 903.159546 352 887.522705 352 887.522705 C 352 887.522705 310.959442 865.103943 292 851.517456 C 271.0448 836.500732 233 801.510132 233 801.510132 L 265 752.50293 C 265 752.50293 247.251007 769.133667 230 772.505859 C 212.053345 776.014038 196 762.504395 196 762.504395 C 196 762.504395 208.416504 759.295105 221 751.502808 C 229.045166 746.520813 237.479034 739.147949 244 733.500183 C 251.69577 726.8349 259.633575 718.178284 266 709.496643 C 276.840149 694.714478 284 680.492371 284 680.492371 C 284 680.492371 274.092041 687.291382 269 689.493713 C 263.954132 691.676086 252 694.494446 252 694.494446 C 252 694.494446 266.202148 682.007935 281 659.489319 C 287.5242 649.561096 288.907227 645.759094 292 638.486267 C 295.300415 630.725037 300 614.482727 300 614.482727 C 300 614.482727 305.84433 648.416992 312 666.490356 C 319.213745 687.670349 336 710.496765 336 710.496765 C 336 710.496765 317.991699 672.440613 313 638.486267 C 308.774414 609.743164 308 551.473511 308 551.473511 C 308 551.473511 297.97937 574.201904 292 583.47821 C 287.004456 591.228149 276 602.480957 276 602.480957 C 276 602.480957 282.514893 584.80127 282 562.475098 C 281.531891 542.177124 287 507.467102 287 507.467102 C 287 507.467102 235.230042 485.432373 218 437.456848 C 196.269318 376.949707 208.216949 336.482361 226 316.439148 C 244.192413 295.93457 269 297.436401 269 297.436401 C 269 297.436401 255.837616 303.486206 251 306.437744 C 246.50061 309.182861 241 314.438843 241 314.438843 C 241 314.438843 259.397797 308.330322 275 316.439148 C 298.276489 328.536499 310 360.445618 310 360.445618 C 310 360.445618 320.186707 336.444275 316 320.439758 C 311.705017 304.021362 292 294.435913 292 294.435913 C 292 294.435913 306.851471 274.644897 316 265.431641 C 326.475525 254.88208 353 234.427124 353 234.427124 C 353 234.427124 336.802002 241.061035 331 244.428589 C 323.723541 248.651855 310 258.430664 310 258.430664 C 310 258.430664 335.11969 208.247803 401 173.418213 C 475.926086 133.806396 540 140.41333 540 140.41333 C 540 140.41333 604.073914 133.806274 679 173.418213 C 744.88031 208.247803 770 258.430664 770 258.430664 C 770 258.430664 756.276489 248.651855 749 244.428589 C 743.197998 241.061035 727 234.427124 727 234.427124 C 727 234.427124 753.524475 254.881958 764 265.431641 C 773.14856 274.644897 788 294.435913 788 294.435913 C 788 294.435913 768.294983 304.02124 764 320.439758 C 759.813293 336.444275 770 360.445618 770 360.445618 C 770 360.445618 781.723511 328.536499 805 316.439148 C 820.602173 308.330322 839 314.438843 839 314.438843 C 839 314.438843 833.49939 309.182861 829 306.437622 C 824.162354 303.486206 811 297.436279 811 297.436279 C 811 297.436279 835.807617 295.93457 854 316.439148 C 871.783081 336.482361 883.730713 376.949707 862 437.456848 C 844.769958 485.432312 793 507.467041 793 507.467041 C 793 507.467041 798.46814 542.177124 798 562.475098 C 797.485107 584.80127 804 602.480957 804 602.480957 C 804 602.480957 792.995544 591.228149 788 583.47821 C 782.02063 574.201843 772 551.473511 772 551.473511 C 772 551.473511 771.225586 609.743164 767 638.486206 C 762.008301 672.440613 744 710.496765 744 710.496765 C 744 710.496765 760.786255 687.670288 768 666.490356 C 774.15564 648.416931 780 614.482727 780 614.482727 C 780 614.482727 784.699585 630.725037 788 638.486206 C 791.092773 645.759094 792.47583 649.561096 799 659.489319 C 813.797852 682.007935 828 694.494446 828 694.494446 C 828 694.494446 816.045898 691.676086 811 689.493713 C 805.907959 687.291321 796 680.492371 796 680.492371 C 796 680.492371 803.159851 694.714417 814 709.496643 C 820.366455 718.178284 828.304199 726.834839 836 733.500122 C 842.520996 739.147949 850.954834 746.520813 859 751.502808 C 871.583496 759.295105 884 762.504395 884 762.504395 C 884 762.504395 867.946655 776.014038 850 772.505859 C 832.749023 769.133667 815 752.50293 815 752.50293 L 847 801.510071 C 847 801.510071 808.9552 836.500732 788 851.517456 C 769.040527 865.103943 748.20813 877.291382 727 887 C 712.002502 893.865479 681 903 681 903 C 681 903 658.055847 934.33606 630 960 C 599.762573 987.659546 540 989.537598 540 989.537598 Z M 394 752 C 374.818787 811.063965 368 921 368 921 C 368 921 378.075836 901.313965 382 891 C 389.115295 872.298584 392.7948 846.904724 399.192932 833.487183 C 401.212769 829.251343 419 801 419 801 C 419 801 415.156799 814.376892 414.276947 821.150513 C 413.551392 826.736206 414 838 414 838 C 414 838 427.841827 805.31842 437 791 C 447.772827 774.157104 465 758 465 758 C 465 758 459.916718 769.854248 458 776 C 455.857605 782.869324 453 797 453 797 C 453 797 472.333832 769.806641 483 757 C 486.774109 752.468567 490.538208 747.85614 495 744 C 500.80603 738.982117 532.554321 722.352051 568 706 C 598.7099 691.832703 634.78656 670.012268 639 669 C 643.225891 667.984741 652 668 652 668 L 685 672 C 685 672 698.3927 675.278015 701 664 C 703.041382 655.169983 691 651 691 651 C 691 651 653.13678 643.521545 634 644 C 626.220703 644.194519 615.142639 646.445068 611 648 C 586.296814 657.272278 563.177856 671.027405 540 683 C 524.896057 690.802002 507.865295 698.904785 496 707 C 483.216064 715.721924 459 737 459 737 L 422 765 C 422 765 464.525421 722.751465 444 681 C 436.610321 665.968445 428.558807 656.63324 400 655 C 396.542999 654.802307 382.874542 656.982544 380 672 C 378.296356 680.90033 395 694 395 694 C 395 694 400.393463 690.759216 403 689 C 406.757996 686.463623 414 681 414 681 C 414 681 417.405029 687.828918 411 693 C 402.137939 700.154724 402 710 402 710 C 402 710 408.867737 705.204956 412 704 C 414.904175 702.882813 421 702 421 702 C 421 702 413.058258 707.013916 407 716 C 404.993103 718.976746 403 727 403 727 C 403 727 407.696747 724.269592 410.045135 723.404419 C 414.03009 721.936279 422 720 422 720 C 422 720 401.764832 728.090088 394 752 Z M 666 872 C 666 872 681.169312 861.089478 689 856 C 699.78479 848.99054 722 836 722 836 C 722 836 735.128174 824.226196 725 810 C 716.622253 798.232483 702 803 702 803 C 702 803 667.90332 815.244507 650 825 C 646.251648 827.04248 642.520508 829.55481 640 833 C 637.258667 836.74707 635 846 635 846 C 635 846 633.110779 856.626343 633 862 C 632.917297 866.013 634 874 634 874 C 634 874 646.563538 867.771729 653 865 C 658.912781 862.453735 671 858 671 858 C 671 858 669.812927 862.713501 669 865 C 668.149597 867.391907 666 872 666 872 Z M 608 832 C 608 832 633.426758 813.702698 646.521484 805.653625 C 666.31543 793.486694 707 772 707 772 C 707 772 707.948181 775.222107 708 776.882629 C 708.074768 779.277222 707 784 707 784 C 707 784 724.226196 763.687805 710 748 C 696.136963 732.712646 674 745 674 745 C 674 745 655.131165 753.5578 646 758 C 627.890869 766.809875 601.894531 775.661255 593 786 C 590.276062 789.166199 588.411194 793.06897 587 797 C 584.018005 805.306396 582 823 582 823 C 582 823 594.129639 818.96759 600.194458 817.451416 C 606.129639 815.96759 618 814 618 814 C 618 814 613.74939 819.823486 612.015137 822.972717 C 610.426514 825.857544 608 832 608 832 Z M 526 785 C 526 785 539.485413 779.317383 546 776 C 553.184387 772.341553 567 764 567 764 C 567 764 563.965515 772.793762 562 777 C 560.547119 780.109192 558 787 558 787 C 558 787 577.071838 766.60376 590 757 C 600.405212 749.270447 618.178162 741.058472 631 734 C 645.497925 726.01886 672 712 672 712 C 672 712 668.152039 720.079712 666 724 C 664.129395 727.407654 660 734 660 734 C 660 734 667.571655 731.203369 675 724 C 679.26062 719.868408 685 710 685 710 C 685 710 692.563965 715.738403 696 719 C 699.593994 722.41156 706 730 706 730 C 706 730 713.954468 719.076355 703 708 C 699.171631 704.129028 692.635742 699.206177 686 694 C 678.210205 687.888367 669.928894 682.023804 661 681 C 652.500427 680.025452 635.856323 688.728027 619.499512 697.280518 C 612.001953 701.200684 604.564758 705.089355 598 708 C 581.910034 715.133789 567.013245 721.327576 550 731 C 537.20575 738.273804 533.78064 750.224915 531 760 C 527.432068 772.542847 526 785 526 785 Z M 540 619.655334 C 510.012268 619.674866 450 630 450 630 C 450 630 460 600.000427 540 600.000427 C 620 600.000427 630 630 630 630 C 630 630 570.328796 619.635498 540 619.655334 Z M 456 498 C 458.722229 503.51062 470 510 470 510 C 470 510 458.270477 514.729553 453 520 C 447.729523 525.270447 443.138763 533.239563 440 540 C 426.998413 568.00354 427 593 427 593 C 427 593 430.986023 575.774536 435 568 C 438.058411 562.076294 447 552 447 552 C 447 552 441.338715 566.421753 440 574 C 438.607117 581.884888 439 598 439 598 C 439 598 441.797699 587.788269 444 583 C 446.436493 577.702515 453 568 453 568 C 453 568 448.147034 581.312988 449 588 C 450.012756 595.939758 455 601 455 601 C 455 601 511.03833 583 540 583 C 568.96167 583 625 601 625 601 C 625 601 630.020203 595.997742 631 588 C 631.819763 581.308777 627 568 627 568 L 636 583 L 641 598 C 641 598 641.392883 581.884888 640 574 C 638.661316 566.421753 633 552 633 552 C 633 552 641.941589 562.076294 645 568 C 649.013977 575.774536 653 593 653 593 C 653 593 653.015747 568.008972 640 540 C 636.858887 533.240601 632.270447 525.270447 627 520 C 621.729553 514.729553 610 510 610 510 C 610 510 621.277771 503.51062 624 498 C 626.661499 492.612305 626.714111 485.759583 625 480 C 620.987366 466.517151 610.302795 455.578186 600 446 C 589.907654 436.617432 578.778503 424.20282 565 424 C 558.426331 423.903259 552.329102 429.052124 548 434 C 543.475037 439.171753 540 453 540 453 C 540 453 536.800049 439.339966 532 434 C 527.713684 429.231506 521.573669 423.903259 515 424 C 501.221497 424.20282 490.092346 436.617432 480 446 C 469.697235 455.578186 459.012634 466.517151 455 480 C 453.285889 485.759583 453.33847 492.612305 456 498 Z M 506.173767 450.06488 C 506.173767 450.06488 506.298157 454.621216 501.03064 459.322449 C 496.168335 463.662109 483.872742 470.063843 481.486847 474.75177 C 476.516266 484.518372 485.601318 492.238342 485.601318 492.238342 C 485.601318 492.238342 483.019958 482.424011 486.629944 480.923523 C 489.042938 479.920532 491.134552 482.534424 493.147888 485.050537 C 493.722717 485.76886 494.291168 486.479248 494.858887 487.095215 C 498.112305 490.625061 502.414246 492.936218 507.202393 496.352844 C 511.011169 499.070557 516.603027 500.974792 520.574463 502.524536 C 527.949951 505.402649 532.917908 506.639038 532.917908 506.639038 C 532.917908 506.639038 535.94989 492.037903 534.975098 484.009399 C 534.389038 479.182251 526.792175 476.998169 517.577332 470.107117 C 509.169678 463.819702 506.173767 450.06488 506.173767 450.06488 Z M 574.338257 450.06488 C 574.338257 450.06488 574.211487 454.621216 579.577271 459.32251 C 584.530151 463.662109 597.055054 470.063843 599.485474 474.75177 C 604.548706 484.518372 595.29425 492.238342 595.29425 492.238342 C 595.29425 492.238342 597.923706 482.424011 594.24646 480.923523 C 591.788452 479.920532 589.657898 482.534363 587.606934 485.050537 C 587.021362 485.768921 586.442383 486.479309 585.864014 487.095276 C 582.550049 490.625061 578.167847 492.936279 573.290405 496.352844 C 569.410645 499.070557 563.714478 500.974792 559.669067 502.524597 C 552.156006 505.40271 547.095459 506.639038 547.095459 506.639038 C 547.095459 506.639038 544.006958 492.037903 544.999878 484.009399 C 545.596802 479.182251 553.335327 476.99823 562.722046 470.107117 C 571.286377 463.819702 574.338257 450.06488 574.338257 450.06488 Z M 277 370.241943 C 277 370.241943 270.021149 357.431519 252.659576 368.22583 C 237.507813 377.646179 236.432617 393.427429 236.432617 393.427429 C 236.432617 393.427429 234.96991 377.166199 236.432617 369.233887 C 238.322906 358.982544 247.588654 340 247.588654 340 C 247.588654 340 218.627579 358.322144 226.290771 407.540344 C 233.334839 452.782104 264.829773 465 264.829773 465 C 264.829773 465 256.292572 453.763367 253.038116 448.145081 C 249.869385 442.674683 245.560272 431.733887 245.560272 431.733887 C 245.560272 431.733887 254.83194 439.11377 259.75885 441.814514 C 264.658997 444.500549 274.971619 447.862915 274.971619 447.862915 C 274.971619 447.862915 251.189941 429.102417 251.645386 406.532288 C 252.364288 370.905762 277 370.241943 277 370.241943 Z M 803 370.241943 C 803 370.241943 809.978882 357.431519 827.340454 368.22583 C 842.492188 377.646179 843.567383 393.427429 843.567383 393.427429 C 843.567383 393.427429 845.03009 377.166199 843.567383 369.233887 C 841.677063 358.982544 832.411377 340 832.411377 340 C 832.411377 340 861.372437 358.322144 853.709229 407.540344 C 846.665161 452.782104 815.170227 465 815.170227 465 C 815.170227 465 823.707458 453.763367 826.961853 448.145081 C 830.130615 442.674683 834.439697 431.733887 834.439697 431.733887 C 834.439697 431.733887 825.16803 439.11377 820.24115 441.814514 C 815.341003 444.500549 805.028381 447.862915 805.028381 447.862915 C 805.028381 447.862915 828.810059 429.102417 828.354614 406.532288 C 827.635742 370.905762 803 370.241943 803 370.241943 Z M 429 420 C 420.678497 416.397949 407 404 407 404 C 407 404 409.025299 413.778687 412 419 C 414.569427 423.509949 420 429 420 429 C 420 429 410.391632 425.295471 406 423 C 400.917542 420.343445 392 413 392 413 C 392 413 396.765717 426.622986 403 433 C 408.954559 439.090881 422 445 422 445 C 422 445 410.082581 443.211548 404 441 C 398.674408 439.063721 389 433 389 433 C 389 433 404.587402 463.575195 432 462 C 459.473816 460.421265 477 430 477 430 C 477 430 458.24115 443.730286 448 448 C 442.326935 450.365173 431 452 431 452 C 431 452 442.6875 445.163269 448 441 C 454.125 436.200012 465 425 465 425 C 465 425 452.290771 430.903076 446 433 C 441.290771 434.569763 432 436 432 436 L 442 431 L 450 424 C 450 424 435.53949 422.830688 429 420 Z M 651 420 C 659.321533 416.397949 673 404 673 404 C 673 404 670.974731 413.778687 668 419 C 665.430542 423.509949 660 429 660 429 C 660 429 669.608398 425.295471 674 423 C 679.082458 420.343445 688 413 688 413 C 688 413 683.234253 426.622986 677 433 C 671.04541 439.090881 658 445 658 445 C 658 445 669.917419 443.211548 676 441 C 681.325562 439.063721 691 433 691 433 C 691 433 675.412598 463.575195 648 462 C 620.526184 460.421265 603 430 603 430 C 603 430 621.75885 443.730286 632 448 C 637.673096 450.365173 649 452 649 452 C 649 452 637.3125 445.163269 632 441 C 625.875 436.200012 615 425 615 425 C 615 425 627.709229 430.903076 634 433 C 638.709229 434.569763 648 436 648 436 L 638 431 L 630 424 C 630 424 644.46051 422.830688 651 420 Z M 478 390 L 475 395 L 480 394 C 480 394 471.23938 407.040955 455 407 C 438.26004 406.957764 432 394 432 394 L 437 396 L 434 387 C 434 387 446.422699 398.312012 454 399 C 462.398193 399.762512 478 390 478 390 Z M 602 390 L 605 395 L 600 394 C 600 394 608.76062 407.040955 625 407 C 641.73999 406.957764 648 394 648 394 L 643 396 L 646 387 C 646 387 633.577271 398.312012 626 399 C 617.601807 399.762512 602 390 602 390 Z M 540 319 C 540 319 489.856323 285.235962 426.849792 296 C 400.544342 300.494019 385.369446 312.844238 372.778015 330 C 357.885162 350.291443 362.764709 389 362.764709 389 C 362.764709 389 368.839142 344.077271 397.811249 335 C 417.580261 328.806152 437.886444 330.830383 456.889679 336 C 471.745178 340.04126 502.950806 348 502.950806 348 C 502.950806 348 502.94104 343.90802 501.949463 341 C 499.853577 334.853149 496.658325 332.15863 495.437775 331.312927 C 497.612793 332.689209 506.337433 338.299988 509.960144 342 C 513.460388 345.575012 517.970764 354 517.970764 354 C 517.970764 354 521.321594 351.841248 522.977417 345 C 524.270752 339.656433 519.97345 330 519.97345 330 C 519.97345 330 526.369202 338.608276 529.986694 342 C 533.102966 344.921753 540 349 540 349 C 540 349 546.897034 344.921753 550.013306 342 C 553.630859 338.608276 560.026611 330 560.026611 330 C 560.026611 330 555.729248 339.656433 557.022583 345 C 558.678406 351.841248 562.029236 354 562.029236 354 C 562.029236 354 566.539612 345.575012 570.039917 342 C 573.662598 338.299988 582.387207 332.689209 584.562195 331.312927 C 583.341675 332.15863 580.146423 334.853149 578.050537 341 C 577.05896 343.90802 577.049194 348 577.049194 348 C 577.049194 348 608.254822 340.04126 623.110352 336 C 642.113586 330.830383 662.4198 328.806152 682.188782 335 C 711.160889 344.077271 717.235291 389 717.235291 389 C 717.235291 389 722.114868 350.291443 707.222046 330 C 694.630554 312.844238 679.455688 300.494019 653.150208 296 C 590.143677 285.235962 540 319 540 319 Z M 457 373 C 460.986786 373.498962 462.533051 375.451721 462 378 C 461.542175 380.188721 459.335144 382.851257 456 382 C 452.416687 381.085388 451.764313 379.121338 452 377 C 452.235687 374.878662 454.03833 372.629333 457 373 Z M 623 373 C 619.013184 373.498962 617.466919 375.451721 618 378 C 618.457825 380.188721 620.664856 382.851257 624 382 C 627.583313 381.085388 628.235718 379.121338 628 377 C 627.764282 374.878662 625.96167 372.629333 623 373 Z M 423 257 C 423 257 434.482178 247.033447 458 249 C 478.568176 250.719971 495 258 495 258 C 495 258 493.464233 252.908325 492 251 C 489.910828 248.277344 485 246 485 246 C 485 246 492.477966 247.473999 497 249 C 502.93396 251.002563 514 257 514 257 C 514 257 505.685425 239.921753 470 238 C 435.449707 236.139404 423 257 423 257 Z M 657 257 C 657 257 645.517822 247.033447 622 249 C 601.431824 250.719971 585 258 585 258 C 585 258 586.535767 252.908325 588 251 C 590.089172 248.277344 595 246 595 246 C 595 246 587.522034 247.473999 583 249 C 577.06604 251.002563 566 257 566 257 C 566 257 574.314575 239.921753 610 238 C 644.550293 236.139404 657 257 657 257 Z M 477 222 C 449.026184 219.142212 421 231 421 231 C 421 231 436.364594 219.902954 457 215 C 474.48233 210.846191 478 212 478 212 C 478 212 476.200806 208.733765 470.356445 207.533936 C 464.710876 206.375 452 207 452 207 C 452 207 482.039124 197.647339 504 208 C 524.371643 217.603516 534 235 534 235 L 512 222 L 523 238 C 523 238 501.465332 224.49939 477 222 Z M 603 222 C 630.973816 219.142212 659 231 659 231 C 659 231 643.635376 219.902954 623 215 C 605.5177 210.846191 602 212 602 212 C 602 212 603.799194 208.733765 609.643555 207.533936 C 615.289124 206.375 628 207 628 207 C 628 207 597.960876 197.647339 576 208 C 555.628357 217.603516 546 235 546 235 L 568 222 L 557 238 C 557 238 578.534668 224.49939 603 222 Z M 469.455444 191.70874 C 445.335968 188.387451 423 195.766968 423 195.766968 C 423 195.766968 440.047028 187.392212 449.257416 185.621338 C 466.903259 182.228638 475.514862 183.592163 475.514862 183.592163 C 475.514862 183.592163 465.200806 180.733765 459.356445 179.533936 C 453.710876 178.375 442.18811 177.504761 442.18811 177.504761 C 442.18811 177.504761 467.692566 170.195801 489.653442 180.548462 C 510.025085 190.151978 525 212 525 212 C 525 212 512.85022 203.571411 497.732666 197.796143 C 488.467041 194.25647 477.289368 192.787476 469.455444 191.70874 Z M 610.544556 191.70874 C 634.664063 188.387451 657 195.766968 657 195.766968 C 657 195.766968 639.952942 187.392212 630.742554 185.621338 C 613.096741 182.228638 604.485168 183.592163 604.485168 183.592163 C 604.485168 183.592163 614.799194 180.733765 620.643555 179.533936 C 626.289124 178.375 637.81189 177.504761 637.81189 177.504761 C 637.81189 177.504761 612.307434 170.195801 590.346558 180.548462 C 569.974915 190.151978 555 212 555 212 C 555 212 567.14978 203.571411 582.267334 197.796143 C 591.532959 194.25647 602.710632 192.787476 610.544556 191.70874 Z M 495.437775 331.312927 C 495.118347 331.11084 494.940186 331 494.940186 331 C 494.940186 331 495.123535 331.095215 495.437775 331.312927 Z M 584.562195 331.312927 C 584.876465 331.095215 585.059814 331 585.059814 331 C 585.059814 331 584.881653 331.11084 584.562195 331.312927 Z"/>
        <g id="g1">
            <path id="path3" fill="#000000" fill-opacity="0.286374" fill-rule="evenodd" stroke="none" d="M 1080 540 C 1080 241.766235 838.233765 0 540 0 C 241.766235 0 0 241.766235 0 540 C 0 838.233765 241.766235 1080 540 1080 C 838.233765 1080 1080 838.233765 1080 540 Z"/>
            <path id="path4" fill="#ffffff" fill-rule="evenodd" stroke="none" d="M 540 0 C 838.233765 0 1080 241.766235 1080 540 C 1080 838.233765 838.233765 1080 540 1080 C 241.766235 1080 0 838.233765 0 540 C 0 241.766235 241.766235 0 540 0 Z M 1064 540 C 1064 829.397217 829.397217 1064 540 1064 C 250.602798 1064 16 829.397217 16 540 C 16 250.602798 250.602798 16 540 16 C 829.397217 16 1064 250.602798 1064 540 Z"/>
        </g>
        <path id="BG" fill="#ffffff" fill-rule="evenodd" stroke="none" d="M 540 989.537598 C 540 989.537598 481.881897 993.268188 426 979.536133 C 377.024231 967.501221 326 932.529297 326 932.529297 C 326 932.529297 337.572449 918.219727 342 910.526062 C 346.239349 903.159546 352 887.522705 352 887.522705 C 352 887.522705 310.959442 865.103943 292 851.517456 C 271.0448 836.500732 233 801.510132 233 801.510132 L 265 752.50293 C 265 752.50293 247.251007 769.133667 230 772.505859 C 212.053345 776.014038 196 762.504395 196 762.504395 C 196 762.504395 208.416504 759.295105 221 751.502808 C 229.045166 746.520813 237.479034 739.147949 244 733.500183 C 251.69577 726.8349 259.633575 718.178284 266 709.496643 C 276.840149 694.714478 284 680.492371 284 680.492371 C 284 680.492371 274.092041 687.291382 269 689.493713 C 263.954132 691.676086 252 694.494446 252 694.494446 C 252 694.494446 266.202148 682.007935 281 659.489319 C 287.5242 649.561096 288.907227 645.759094 292 638.486267 C 295.300415 630.725037 300 614.482727 300 614.482727 C 300 614.482727 305.84433 648.416992 312 666.490356 C 319.213745 687.670349 336 710.496765 336 710.496765 C 336 710.496765 317.991699 672.440613 313 638.486267 C 308.774414 609.743164 308 551.473511 308 551.473511 C 308 551.473511 297.97937 574.201904 292 583.47821 C 287.004456 591.228149 276 602.480957 276 602.480957 C 276 602.480957 282.514893 584.80127 282 562.475098 C 281.531891 542.177124 287 507.467102 287 507.467102 C 287 507.467102 235.230042 485.432373 218 437.456848 C 196.269318 376.949707 208.216949 336.482361 226 316.439148 C 244.192413 295.93457 269 297.436401 269 297.436401 C 269 297.436401 255.837616 303.486206 251 306.437744 C 246.50061 309.182861 241 314.438843 241 314.438843 C 241 314.438843 259.397797 308.330322 275 316.439148 C 298.276489 328.536499 310 360.445618 310 360.445618 C 310 360.445618 320.186707 336.444275 316 320.439758 C 311.705017 304.021362 292 294.435913 292 294.435913 C 292 294.435913 306.851471 274.644897 316 265.431641 C 326.475525 254.88208 353 234.427124 353 234.427124 C 353 234.427124 336.802002 241.061035 331 244.428589 C 323.723541 248.651855 310 258.430664 310 258.430664 C 310 258.430664 335.11969 208.247803 401 173.418213 C 475.926086 133.806396 540 140.41333 540 140.41333 C 540 140.41333 604.073914 133.806274 679 173.418213 C 744.88031 208.247803 770 258.430664 770 258.430664 C 770 258.430664 756.276489 248.651855 749 244.428589 C 743.197998 241.061035 727 234.427124 727 234.427124 C 727 234.427124 753.524475 254.881958 764 265.431641 C 773.14856 274.644897 788 294.435913 788 294.435913 C 788 294.435913 768.294983 304.02124 764 320.439758 C 759.813293 336.444275 770 360.445618 770 360.445618 C 770 360.445618 781.723511 328.536499 805 316.439148 C 820.602173 308.330322 839 314.438843 839 314.438843 C 839 314.438843 833.49939 309.182861 829 306.437622 C 824.162354 303.486206 811 297.436279 811 297.436279 C 811 297.436279 835.807617 295.93457 854 316.439148 C 871.783081 336.482361 883.730713 376.949707 862 437.456848 C 844.769958 485.432312 793 507.467041 793 507.467041 C 793 507.467041 798.46814 542.177124 798 562.475098 C 797.485107 584.80127 804 602.480957 804 602.480957 C 804 602.480957 792.995544 591.228149 788 583.47821 C 782.02063 574.201843 772 551.473511 772 551.473511 C 772 551.473511 771.225586 609.743164 767 638.486206 C 762.008301 672.440613 744 710.496765 744 710.496765 C 744 710.496765 760.786255 687.670288 768 666.490356 C 774.15564 648.416931 780 614.482727 780 614.482727 C 780 614.482727 784.699585 630.725037 788 638.486206 C 791.092773 645.759094 792.47583 649.561096 799 659.489319 C 813.797852 682.007935 828 694.494446 828 694.494446 C 828 694.494446 816.045898 691.676086 811 689.493713 C 805.907959 687.291321 796 680.492371 796 680.492371 C 796 680.492371 803.159851 694.714417 814 709.496643 C 820.366455 718.178284 828.304199 726.834839 836 733.500122 C 842.520996 739.147949 850.954834 746.520813 859 751.502808 C 871.583496 759.295105 884 762.504395 884 762.504395 C 884 762.504395 867.946655 776.014038 850 772.505859 C 832.749023 769.133667 815 752.50293 815 752.50293 L 847 801.510071 C 847 801.510071 808.9552 836.500732 788 851.517456 C 769.040527 865.103943 748.20813 877.291382 727 887 C 712.002502 893.865479 681 903 681 903 C 681 903 658.055847 934.33606 630 960 C 599.762573 987.659546 540 989.537598 540 989.537598 Z"/>
        <path id="STROCK" fill="#ffffff" fill-rule="evenodd" stroke="none" d="M 539.093628 997.59967 C 539.673767 997.570435 540.105225 997.546143 540.381836 997.529297 C 541.348694 997.496094 542.982544 997.409851 545.193359 997.245911 C 548.998596 996.963745 553.226135 996.539063 557.773621 995.942688 C 570.788147 994.236023 583.816162 991.488281 596.0578 987.44165 C 611.90448 982.203369 625.287903 975.152527 635.399658 965.902893 C 639.643799 962.020508 643.909302 957.888794 648.182068 953.540039 C 658.028076 943.519165 667.479675 932.807922 676.215088 922.098083 C 679.272583 918.349487 682.024658 914.865784 684.429688 911.73407 C 684.930847 911.081482 685.395935 910.471375 685.823975 909.906067 C 687.639893 909.356934 689.651245 908.739746 691.810852 908.065918 C 698.205811 906.070801 704.60321 903.986084 710.590759 901.910278 C 713.699402 900.832581 716.621643 899.782898 719.32666 898.768188 C 723.610657 897.161194 727.300781 895.660706 730.329895 894.274048 C 751.80188 884.444641 773.093445 872.041626 792.659912 858.020203 C 798.855225 853.580505 806.727112 847.300293 815.924377 839.551392 C 817.313416 838.381042 818.727234 837.181824 820.163635 835.955627 C 827.486145 829.705017 835.096191 823.016602 842.554871 816.329346 C 845.164551 813.989502 847.56958 811.816406 849.714539 809.865173 C 850.46637 809.181335 851.132324 808.573669 851.705505 808.049194 C 852.051147 807.732971 852.290161 807.513672 852.415588 807.398315 L 857.403687 802.810669 L 853.698486 797.13623 L 841.49353 778.444702 C 843.254272 779.059143 845.006897 779.575684 846.749451 779.986877 C 847.323486 780.122314 847.895386 780.24585 848.46521 780.357239 C 859.122498 782.440491 869.651001 780.035706 879.501953 774.885437 C 882.03595 773.560669 884.338379 772.142029 886.380554 770.713623 C 887.648499 769.826843 888.583069 769.103394 889.151062 768.625366 L 901.016785 758.639832 L 886.001953 754.758911 C 885.962708 754.748779 885.833069 754.713745 885.61908 754.653259 C 885.228516 754.542786 884.765564 754.40564 884.236267 754.241211 C 882.68811 753.760376 880.946045 753.163574 879.059265 752.44696 C 873.66095 750.396667 868.245667 747.818481 863.211792 744.701294 C 862.021912 743.964417 860.780334 743.142822 859.486633 742.238159 C 856.616089 740.230652 853.55188 737.861267 850.129578 735.037109 C 847.57959 732.9328 846.123718 731.684875 841.237488 727.452881 C 833.993774 721.179138 826.462769 712.963379 820.451294 704.765747 C 819.277527 703.1651 818.124817 701.539795 816.995422 699.897278 C 818.947449 700.44989 820.992065 700.993042 823.034729 701.510437 C 823.847839 701.716431 824.603638 701.903748 825.283691 702.069214 C 825.696594 702.169678 825.996277 702.241394 826.164185 702.280945 L 857.32959 709.628662 L 833.282288 688.486328 C 833.220032 688.431641 833.053406 688.281555 832.789063 688.037354 C 832.319153 687.603271 831.764709 687.077515 831.132385 686.461487 C 829.29187 684.668396 827.219055 682.528748 824.96698 680.053101 C 818.486938 672.929626 811.919128 664.581726 805.685669 655.095886 C 802.06311 649.583313 800.065063 646.036072 798.283997 642.141846 C 798.014282 641.552124 797.739502 640.933777 797.440308 640.244873 C 797.158264 639.595581 796.870056 638.920166 796.459351 637.949097 C 796.348511 637.687073 795.957336 636.760864 795.929626 636.695313 C 795.710083 636.175781 795.536316 635.765442 795.362 635.35553 C 794.727173 633.862732 793.972168 631.862549 793.132385 629.462097 C 792.750854 628.371582 792.355286 627.208252 791.948181 625.982239 C 790.954163 622.988098 789.939148 619.765198 788.960144 616.540283 C 788.617004 615.409973 788.303162 614.360962 788.025452 613.420959 C 787.92865 613.093262 787.843445 612.803162 787.77063 612.553955 C 787.697815 612.304321 787.697815 612.304321 787.684814 612.259216 L 780.027466 585.794495 C 780.45929 586.518188 780.875549 587.191406 781.275879 587.8125 C 782.561157 589.806396 784.18512 592.005981 786.107727 594.400757 C 786.923096 595.416321 787.787048 596.460266 788.693726 597.528198 C 790.794678 600.002808 793.031494 602.498474 795.266785 604.899902 C 796.04834 605.739563 796.775146 606.508789 797.429443 607.192383 C 797.827515 607.608276 798.117065 607.907349 798.280396 608.074341 L 824.446838 634.83136 L 811.506592 599.714844 C 811.484619 599.655273 811.420837 599.474792 811.321167 599.179199 C 811.141113 598.645569 810.936646 598.008179 810.713684 597.272949 C 810.062927 595.126892 809.406982 592.657532 808.792114 589.91217 C 806.860474 581.286865 805.781494 572.040833 805.997864 562.659546 C 806.13269 556.814026 805.819641 549.667236 805.139709 541.467041 C 804.706421 536.240967 804.134644 530.720764 803.457947 525.044495 C 802.921143 520.541138 802.347656 516.182617 801.772583 512.117615 C 803.9245 511.009277 806.233337 509.746948 808.668213 508.32843 C 817.842224 502.983734 827.009827 496.491669 835.591614 488.797974 C 851.014038 474.971619 862.834229 458.802246 869.529175 440.160889 C 880.114014 410.688263 883.622681 383.989655 880.757324 360.793274 C 878.242065 340.430878 870.825989 323.349548 859.984192 311.129761 C 855.841858 306.460968 851.20636 302.573608 846.173828 299.417969 C 838.99585 294.917023 831.34613 292.085754 823.632263 290.588715 C 818.592102 289.610535 814.276123 289.326019 811.043274 289.428009 C 810.819641 289.435059 810.643433 289.443207 810.516602 289.450897 L 794.967529 290.392151 L 794.398743 289.634216 C 794.344543 289.561981 794.243713 289.42807 794.099121 289.236633 C 793.860962 288.921356 793.584595 288.556763 793.272705 288.146851 C 792.384521 286.979645 791.387634 285.680603 790.304077 284.282288 C 789.393677 283.107513 788.476379 281.932556 787.55658 280.763977 L 791.549805 283.609406 L 777.153809 254.849731 C 776.993103 254.528748 776.711731 253.992172 776.306091 253.254364 C 775.659912 252.079239 774.882385 250.731812 773.96991 249.22644 C 771.400635 244.9879 768.248718 240.291626 764.484985 235.252975 C 753.796936 220.944473 740.317444 206.666794 723.814148 193.355377 C 711.406738 183.347687 697.731262 174.271851 682.739075 166.345764 C 652.757385 150.495056 622.357666 140.642258 592.679504 135.655304 C 572.596863 132.280716 555.490479 131.510239 542.468384 132.21843 C 541.44989 132.273819 540.624634 132.330536 540 132.381271 C 539.375366 132.330536 538.550171 132.273819 537.531677 132.21843 C 524.509583 131.510269 507.40329 132.280762 487.320648 135.655334 C 457.642456 140.642288 427.242676 150.495071 397.260956 166.345764 C 382.268707 174.271851 368.593292 183.347687 356.185883 193.355377 C 339.682556 206.666794 326.203033 220.944473 315.514984 235.252975 C 311.751251 240.291626 308.599335 244.9879 306.03009 249.22644 C 305.117584 250.731812 304.340057 252.079239 303.693939 253.254364 C 303.288269 253.992172 303.006866 254.528748 302.846191 254.849731 L 288.450195 283.609314 L 292.443604 280.763794 C 291.523743 281.932434 290.606415 283.107422 289.695953 284.282288 C 288.612366 285.680603 287.615479 286.979614 286.727295 288.146851 C 286.415405 288.556732 286.139008 288.921356 285.900879 289.236633 C 285.756287 289.42807 285.655487 289.561981 285.601288 289.634216 L 285.032379 290.392334 L 269.483429 289.451019 C 269.356598 289.443329 269.180359 289.435181 268.956696 289.428131 C 265.723785 289.326141 261.407806 289.610626 256.367584 290.588806 C 248.653763 292.085846 241.004044 294.917084 233.82608 299.41803 C 228.793579 302.573669 224.158127 306.460968 220.015823 311.129761 C 209.173996 323.349548 201.75798 340.430878 199.242691 360.793274 C 196.377335 383.989655 199.885971 410.688263 210.47084 440.160889 C 217.165756 458.802277 228.985992 474.971649 244.408386 488.798004 C 252.990204 496.491699 262.157776 502.983795 271.331818 508.328491 C 273.766663 509.747009 276.075562 511.009338 278.227478 512.117676 C 277.652374 516.182678 277.078918 520.54126 276.542023 525.044617 C 275.865326 530.720825 275.293579 536.241028 274.86026 541.467102 C 274.180389 549.667236 273.86731 556.814026 274.002136 562.659546 C 274.218475 572.040833 273.139526 581.286865 271.207855 589.91217 C 270.593048 592.657532 269.937103 595.126892 269.286316 597.272949 C 269.063324 598.008179 268.858917 598.645569 268.678864 599.179199 C 268.579132 599.474792 268.515381 599.655273 268.493439 599.714844 L 255.553131 634.83136 L 281.719604 608.074341 C 281.882904 607.907349 282.172485 607.608276 282.570557 607.192383 C 283.224884 606.508789 283.95163 605.739563 284.733215 604.899902 C 286.968536 602.498474 289.205322 600.002808 291.306274 597.528198 C 292.212982 596.460266 293.076935 595.416321 293.892273 594.400757 C 295.81488 592.005981 297.438873 589.806396 298.724121 587.8125 C 299.124481 587.191406 299.54071 586.51825 299.972565 585.794556 L 292.315216 612.259216 L 292.22937 612.553955 C 292.156555 612.803162 292.07132 613.093323 291.974518 613.420959 C 291.696808 614.360962 291.382965 615.409973 291.039856 616.540283 C 290.060852 619.765259 289.045837 622.988159 288.051788 625.9823 C 287.644745 627.208313 287.249115 628.371643 286.867584 629.462158 C 286.027802 631.86261 285.272827 633.862793 284.638 635.355652 C 284.463684 635.765503 284.289886 636.175842 284.070343 636.695374 C 284.042419 636.761475 283.651459 637.687195 283.540649 637.949158 C 283.129944 638.920227 282.841736 639.595642 282.559692 640.244934 C 282.260498 640.933777 281.985718 641.552063 281.716034 642.141785 C 279.934967 646.036072 277.93689 649.583313 274.314331 655.095947 C 268.080841 664.581726 261.513092 672.929626 255.03302 680.053101 C 252.78096 682.528748 250.708115 684.668396 248.867645 686.461487 C 248.235321 687.077515 247.680862 687.603271 247.210907 688.037354 C 246.946564 688.281555 246.779938 688.431641 246.717697 688.486328 L 222.670471 709.628662 L 253.835785 702.280945 C 254.003723 702.241394 254.303406 702.169678 254.716339 702.069214 C 255.396378 701.903748 256.15213 701.716431 256.96524 701.510437 C 259.007874 700.993042 261.052551 700.449951 263.004608 699.897339 C 261.875183 701.539856 260.722534 703.1651 259.548737 704.765747 C 253.537308 712.963318 246.006241 721.179199 238.762527 727.452942 C 233.875961 731.685181 232.420273 732.932922 229.870239 735.037292 C 226.448059 737.861328 223.383972 740.230591 220.513489 742.238037 C 219.219742 743.142761 217.978134 743.964417 216.788147 744.701294 C 211.754349 747.818481 206.339035 750.396667 200.940735 752.44696 C 199.05397 753.163574 197.311859 753.760376 195.763702 754.241211 C 195.234451 754.40564 194.771469 754.542786 194.38092 754.653259 C 194.166931 754.713745 194.037277 754.748779 193.998032 754.758911 L 178.9832 758.639832 L 190.848907 768.625366 C 191.416931 769.103394 192.351471 769.826843 193.619415 770.713623 C 195.661636 772.142029 197.964066 773.560669 200.498032 774.885437 C 210.349014 780.035706 220.877518 782.440491 231.534775 780.357239 C 232.104523 780.245911 232.676376 780.122375 233.25032 779.986938 C 234.992966 779.575745 236.745682 779.059143 238.506531 778.444641 L 226.301544 797.136292 L 222.596329 802.81073 L 227.584442 807.398376 C 227.709854 807.513733 227.948853 807.733032 228.29451 808.049255 C 228.867691 808.57373 229.533646 809.181396 230.285446 809.865234 C 232.43045 811.816467 234.835464 813.989563 237.445175 816.329407 C 244.903839 823.016663 252.513885 829.705017 259.836365 835.955688 C 261.272827 837.181824 262.686584 838.381104 264.075592 839.551392 C 273.272858 847.300293 281.144745 853.580505 287.340088 858.020142 C 292.511261 861.725891 299.428131 866.192322 307.779236 871.280029 C 309.531799 872.347717 311.339722 873.437866 313.198364 874.548279 C 320.853668 879.121765 329.042847 883.846558 337.230255 888.458679 C 338.903168 889.401001 340.50647 890.299438 342.026733 891.147217 C 341.127014 893.403198 340.208984 895.626648 339.300873 897.727722 C 338.691803 899.136902 338.102295 900.455261 337.538544 901.664978 C 336.612762 903.651489 335.775269 905.30365 335.066223 906.535767 C 333.943634 908.486389 332.112915 911.213135 329.766266 914.459045 C 329.329254 915.063477 328.876831 915.682556 328.410461 916.314575 C 326.525726 918.868469 324.497406 921.520813 322.468048 924.110352 C 321.757111 925.017517 321.097473 925.851196 320.506653 926.591797 C 320.300934 926.84967 320.118896 927.076965 319.962677 927.271362 C 319.870758 927.385742 319.806641 927.465271 319.779602 927.498718 L 314.334076 934.232239 L 321.477203 939.128113 C 321.647278 939.24469 321.957428 939.454712 322.401978 939.752075 C 323.127777 940.237488 323.976593 940.797729 324.942749 941.426514 C 327.686035 943.211914 330.830292 945.196655 334.330475 947.331116 C 344.316193 953.420532 355.178314 959.507446 366.562225 965.195068 C 384.332031 974.073181 401.716675 981.146729 418.168213 985.747803 C 420.161133 986.305115 422.13559 986.824524 424.090942 987.304993 C 426.199127 987.823059 428.32843 988.32135 430.478119 988.800232 C 450.711578 993.307617 472.233429 996.006592 494.151489 997.240356 C 509.587585 998.109253 523.576172 998.174744 535.209106 997.763794 C 536.68158 997.711792 537.979797 997.655884 539.093628 997.59967 Z M 426 979.536133 C 481.881897 993.268188 540 989.537598 540 989.537598 C 540 989.537598 599.762573 987.659546 630 960 C 658.055847 934.33606 681 903 681 903 C 681 903 712.002502 893.865479 727 887 C 748.20813 877.291382 769.040527 865.103943 788 851.517456 C 808.9552 836.500732 847 801.510071 847 801.510071 L 815 752.50293 C 815 752.50293 832.749023 769.133667 850 772.505859 C 867.946655 776.014038 884 762.504395 884 762.504395 C 884 762.504395 871.583496 759.295105 859 751.502808 C 850.954834 746.520813 842.520996 739.147949 836 733.500122 C 828.304199 726.834839 820.366455 718.178284 814 709.496643 C 803.159851 694.714417 796 680.492371 796 680.492371 C 796 680.492371 805.907959 687.291321 811 689.493713 C 816.045898 691.676086 828 694.494446 828 694.494446 C 828 694.494446 813.797852 682.007935 799 659.489319 C 792.47583 649.561096 791.092773 645.759094 788 638.486206 C 784.699585 630.725037 780 614.482727 780 614.482727 C 780 614.482727 774.15564 648.416931 768 666.490356 C 760.786255 687.670288 744 710.496765 744 710.496765 C 744 710.496765 762.008301 672.440613 767 638.486206 C 771.225586 609.743164 772 551.473511 772 551.473511 C 772 551.473511 782.02063 574.201843 788 583.47821 C 792.995544 591.228149 804 602.480957 804 602.480957 C 804 602.480957 797.485107 584.80127 798 562.475098 C 798.46814 542.177124 793 507.467041 793 507.467041 C 793 507.467041 844.769958 485.432312 862 437.456848 C 883.730713 376.949707 871.783081 336.482361 854 316.439148 C 835.807617 295.93457 811 297.436279 811 297.436279 C 811 297.436279 824.162354 303.486206 829 306.437622 C 833.49939 309.182861 839 314.438843 839 314.438843 C 839 314.438843 820.602173 308.330322 805 316.439148 C 781.723511 328.536499 770 360.445618 770 360.445618 C 770 360.445618 759.813293 336.444275 764 320.439758 C 768.294983 304.02124 788 294.435913 788 294.435913 C 788 294.435913 773.14856 274.644897 764 265.431641 C 753.524475 254.881958 727 234.427124 727 234.427124 C 727 234.427124 743.197998 241.061035 749 244.428589 C 756.276489 248.651855 770 258.430664 770 258.430664 C 770 258.430664 744.88031 208.247803 679 173.418213 C 604.073914 133.806274 540 140.41333 540 140.41333 C 540 140.41333 475.926086 133.806396 401 173.418213 C 335.11969 208.247803 310 258.430664 310 258.430664 C 310 258.430664 323.723541 248.651855 331 244.428589 C 336.802002 241.061035 353 234.427124 353 234.427124 C 353 234.427124 326.475525 254.88208 316 265.431641 C 306.851471 274.644897 292 294.435913 292 294.435913 C 292 294.435913 311.705017 304.021362 316 320.439758 C 320.186707 336.444275 310 360.445618 310 360.445618 C 310 360.445618 298.276489 328.536499 275 316.439148 C 259.397797 308.330322 241 314.438843 241 314.438843 C 241 314.438843 246.50061 309.182861 251 306.437744 C 255.837616 303.486206 269 297.436401 269 297.436401 C 269 297.436401 244.192413 295.93457 226 316.439148 C 208.216949 336.482361 196.269318 376.949707 218 437.456848 C 235.230042 485.432373 287 507.467102 287 507.467102 C 287 507.467102 281.531891 542.177124 282 562.475098 C 282.514893 584.80127 276 602.480957 276 602.480957 C 276 602.480957 287.004456 591.228149 292 583.47821 C 297.97937 574.201904 308 551.473511 308 551.473511 C 308 551.473511 308.774414 609.743164 313 638.486267 C 317.991699 672.440613 336 710.496765 336 710.496765 C 336 710.496765 319.213745 687.670349 312 666.490356 C 305.84433 648.416992 300 614.482727 300 614.482727 C 300 614.482727 295.300415 630.725037 292 638.486267 C 288.907227 645.759094 287.5242 649.561096 281 659.489319 C 266.202148 682.007935 252 694.494446 252 694.494446 C 252 694.494446 263.954132 691.676086 269 689.493713 C 274.092041 687.291382 284 680.492371 284 680.492371 C 284 680.492371 276.840149 694.714478 266 709.496643 C 259.633575 718.178284 251.69577 726.8349 244 733.500183 C 237.479034 739.147949 229.045166 746.520813 221 751.502808 C 208.416504 759.295105 196 762.504395 196 762.504395 C 196 762.504395 212.053345 776.014038 230 772.505859 C 247.251007 769.133667 265 752.50293 265 752.50293 L 233 801.510132 C 233 801.510132 271.0448 836.500732 292 851.517456 C 310.959442 865.103943 352 887.522705 352 887.522705 C 352 887.522705 346.239349 903.159546 342 910.526062 C 337.572449 918.219727 326 932.529297 326 932.529297 C 326 932.529297 377.024231 967.501221 426 979.536133 Z M 791.499451 301.629913 L 796.099731 299.392151 L 807.658936 304.7052 C 807.803894 304.771851 808.083679 304.901062 808.478882 305.084625 C 809.018372 305.335205 809.608704 305.61087 810.239441 305.907135 C 809.828308 306.016632 809.417786 306.131775 809.007935 306.252686 C 806.338867 307.04007 803.767029 308.064026 801.31073 309.340607 C 792.020996 314.168732 783.932495 321.804016 776.889893 331.431519 C 775.133667 333.832367 773.486389 336.297455 771.945984 338.799774 C 771.573669 336.735504 771.301758 334.723938 771.144531 332.789764 C 770.815979 328.747833 771.011536 325.247345 771.739563 322.464386 C 772.965332 317.778687 776.195435 313.196686 780.923523 308.967346 C 783.2677 306.870514 785.810059 305.011292 788.349426 303.430634 C 789.231995 302.881256 790.044067 302.40979 790.760437 302.019531 C 790.999634 301.889221 791.206055 301.780121 791.376465 301.692596 C 791.457458 301.651001 791.499451 301.629974 791.499451 301.629913 Z M 270.992188 306.252716 C 270.582336 306.131805 270.171814 306.016663 269.760712 305.907166 C 270.391357 305.610931 270.981659 305.335327 271.521088 305.084747 C 271.91626 304.901215 272.196045 304.771973 272.341003 304.705353 L 283.900513 299.392273 L 288.500488 301.629913 C 288.500488 301.629913 288.54248 301.65094 288.623535 301.692596 C 288.793945 301.780121 289.000305 301.889221 289.239532 302.019531 C 289.955902 302.40979 290.767944 302.881256 291.650513 303.430634 C 294.189911 305.011322 296.7323 306.870544 299.076447 308.967377 C 303.804596 313.196747 307.034698 317.778748 308.260437 322.464386 C 308.988434 325.247345 309.184052 328.747833 308.855438 332.789764 C 308.698212 334.723938 308.426331 336.735504 308.053986 338.799774 C 306.513611 336.297455 304.866333 333.832367 303.110107 331.431519 C 296.067474 321.804016 287.979034 314.168732 278.68927 309.340607 C 276.233032 308.064056 273.661194 307.0401 270.992188 306.252716 Z"/>
        <path id="FRONT" fill="#000000" fill-rule="evenodd" stroke="none" d="M 540 989.537598 C 540 989.537598 481.881897 993.268188 426 979.536133 C 377.024231 967.501221 326 932.529297 326 932.529297 C 326 932.529297 337.572449 918.219727 342 910.526062 C 346.239349 903.159546 352 887.522705 352 887.522705 C 352 887.522705 310.959442 865.103943 292 851.517456 C 271.0448 836.500732 233 801.510132 233 801.510132 L 265 752.50293 C 265 752.50293 247.251007 769.133667 230 772.505859 C 212.053345 776.014038 196 762.504395 196 762.504395 C 196 762.504395 208.416504 759.295105 221 751.502808 C 229.045166 746.520813 237.479034 739.147949 244 733.500183 C 251.69577 726.8349 259.633575 718.178284 266 709.496643 C 276.840149 694.714478 284 680.492371 284 680.492371 C 284 680.492371 274.092041 687.291382 269 689.493713 C 263.954132 691.676086 252 694.494446 252 694.494446 C 252 694.494446 266.202148 682.007935 281 659.489319 C 287.5242 649.561096 288.907227 645.759094 292 638.486267 C 295.300415 630.725037 300 614.482727 300 614.482727 C 300 614.482727 305.84433 648.416992 312 666.490356 C 319.213745 687.670349 336 710.496765 336 710.496765 C 336 710.496765 317.991699 672.440613 313 638.486267 C 308.774414 609.743164 308 551.473511 308 551.473511 C 308 551.473511 297.97937 574.201904 292 583.47821 C 287.004456 591.228149 276 602.480957 276 602.480957 C 276 602.480957 282.514893 584.80127 282 562.475098 C 281.531891 542.177124 287 507.467102 287 507.467102 C 287 507.467102 235.230042 485.432373 218 437.456848 C 196.269318 376.949707 208.216949 336.482361 226 316.439148 C 244.192413 295.93457 269 297.436401 269 297.436401 C 269 297.436401 255.837616 303.486206 251 306.437744 C 246.50061 309.182861 241 314.438843 241 314.438843 C 241 314.438843 259.397797 308.330322 275 316.439148 C 298.276489 328.536499 310 360.445618 310 360.445618 C 310 360.445618 320.186707 336.444275 316 320.439758 C 311.705017 304.021362 292 294.435913 292 294.435913 C 292 294.435913 306.851471 274.644897 316 265.431641 C 326.475525 254.88208 353 234.427124 353 234.427124 C 353 234.427124 336.802002 241.061035 331 244.428589 C 323.723541 248.651855 310 258.430664 310 258.430664 C 310 258.430664 335.11969 208.247803 401 173.418213 C 475.926086 133.806396 540 140.41333 540 140.41333 C 540 140.41333 604.073914 133.806274 679 173.418213 C 744.88031 208.247803 770 258.430664 770 258.430664 C 770 258.430664 756.276489 248.651855 749 244.428589 C 743.197998 241.061035 727 234.427124 727 234.427124 C 727 234.427124 753.524475 254.881958 764 265.431641 C 773.14856 274.644897 788 294.435913 788 294.435913 C 788 294.435913 768.294983 304.02124 764 320.439758 C 759.813293 336.444275 770 360.445618 770 360.445618 C 770 360.445618 781.723511 328.536499 805 316.439148 C 820.602173 308.330322 839 314.438843 839 314.438843 C 839 314.438843 833.49939 309.182861 829 306.437622 C 824.162354 303.486206 811 297.436279 811 297.436279 C 811 297.436279 835.807617 295.93457 854 316.439148 C 871.783081 336.482361 883.730713 376.949707 862 437.456848 C 844.769958 485.432312 793 507.467041 793 507.467041 C 793 507.467041 798.46814 542.177124 798 562.475098 C 797.485107 584.80127 804 602.480957 804 602.480957 C 804 602.480957 792.995544 591.228149 788 583.47821 C 782.02063 574.201843 772 551.473511 772 551.473511 C 772 551.473511 771.225586 609.743164 767 638.486206 C 762.008301 672.440613 744 710.496765 744 710.496765 C 744 710.496765 760.786255 687.670288 768 666.490356 C 774.15564 648.416931 780 614.482727 780 614.482727 C 780 614.482727 784.699585 630.725037 788 638.486206 C 791.092773 645.759094 792.47583 649.561096 799 659.489319 C 813.797852 682.007935 828 694.494446 828 694.494446 C 828 694.494446 816.045898 691.676086 811 689.493713 C 805.907959 687.291321 796 680.492371 796 680.492371 C 796 680.492371 803.159851 694.714417 814 709.496643 C 820.366455 718.178284 828.304199 726.834839 836 733.500122 C 842.520996 739.147949 850.954834 746.520813 859 751.502808 C 871.583496 759.295105 884 762.504395 884 762.504395 C 884 762.504395 867.946655 776.014038 850 772.505859 C 832.749023 769.133667 815 752.50293 815 752.50293 L 847 801.510071 C 847 801.510071 808.9552 836.500732 788 851.517456 C 769.040527 865.103943 748.20813 877.291382 727 887 C 712.002502 893.865479 681 903 681 903 C 681 903 658.055847 934.33606 630 960 C 599.762573 987.659546 540 989.537598 540 989.537598 Z M 394 752 C 374.818787 811.063965 368 921 368 921 C 368 921 378.075836 901.313965 382 891 C 389.115295 872.298584 392.7948 846.904724 399.192932 833.487183 C 401.212769 829.251343 419 801 419 801 C 419 801 415.156799 814.376892 414.276947 821.150513 C 413.551392 826.736206 414 838 414 838 C 414 838 427.841827 805.31842 437 791 C 447.772827 774.157104 465 758 465 758 C 465 758 459.916718 769.854248 458 776 C 455.857605 782.869324 453 797 453 797 C 453 797 472.333832 769.806641 483 757 C 486.774109 752.468567 490.538208 747.85614 495 744 C 500.80603 738.982117 532.554321 722.352051 568 706 C 598.7099 691.832703 634.78656 670.012268 639 669 C 643.225891 667.984741 652 668 652 668 L 685 672 C 685 672 698.3927 675.278015 701 664 C 703.041382 655.169983 691 651 691 651 C 691 651 653.13678 643.521545 634 644 C 626.220703 644.194519 615.142639 646.445068 611 648 C 586.296814 657.272278 563.177856 671.027405 540 683 C 524.896057 690.802002 507.865295 698.904785 496 707 C 483.216064 715.721924 459 737 459 737 L 422 765 C 422 765 464.525421 722.751465 444 681 C 436.610321 665.968445 428.558807 656.63324 400 655 C 396.542999 654.802307 382.874542 656.982544 380 672 C 378.296356 680.90033 395 694 395 694 C 395 694 400.393463 690.759216 403 689 C 406.757996 686.463623 414 681 414 681 C 414 681 417.405029 687.828918 411 693 C 402.137939 700.154724 402 710 402 710 C 402 710 408.867737 705.204956 412 704 C 414.904175 702.882813 421 702 421 702 C 421 702 413.058258 707.013916 407 716 C 404.993103 718.976746 403 727 403 727 C 403 727 407.696747 724.269592 410.045135 723.404419 C 414.03009 721.936279 422 720 422 720 C 422 720 401.764832 728.090088 394 752 Z M 666 872 C 666 872 681.169312 861.089478 689 856 C 699.78479 848.99054 722 836 722 836 C 722 836 735.128174 824.226196 725 810 C 716.622253 798.232483 702 803 702 803 C 702 803 667.90332 815.244507 650 825 C 646.251648 827.04248 642.520508 829.55481 640 833 C 637.258667 836.74707 635 846 635 846 C 635 846 633.110779 856.626343 633 862 C 632.917297 866.013 634 874 634 874 C 634 874 646.563538 867.771729 653 865 C 658.912781 862.453735 671 858 671 858 C 671 858 669.812927 862.713501 669 865 C 668.149597 867.391907 666 872 666 872 Z M 608 832 C 608 832 633.426758 813.702698 646.521484 805.653625 C 666.31543 793.486694 707 772 707 772 C 707 772 707.948181 775.222107 708 776.882629 C 708.074768 779.277222 707 784 707 784 C 707 784 724.226196 763.687805 710 748 C 696.136963 732.712646 674 745 674 745 C 674 745 655.131165 753.5578 646 758 C 627.890869 766.809875 601.894531 775.661255 593 786 C 590.276062 789.166199 588.411194 793.06897 587 797 C 584.018005 805.306396 582 823 582 823 C 582 823 594.129639 818.96759 600.194458 817.451416 C 606.129639 815.96759 618 814 618 814 C 618 814 613.74939 819.823486 612.015137 822.972717 C 610.426514 825.857544 608 832 608 832 Z M 526 785 C 526 785 539.485413 779.317383 546 776 C 553.184387 772.341553 567 764 567 764 C 567 764 563.965515 772.793762 562 777 C 560.547119 780.109192 558 787 558 787 C 558 787 577.071838 766.60376 590 757 C 600.405212 749.270447 618.178162 741.058472 631 734 C 645.497925 726.01886 672 712 672 712 C 672 712 668.152039 720.079712 666 724 C 664.129395 727.407654 660 734 660 734 C 660 734 667.571655 731.203369 675 724 C 679.26062 719.868408 685 710 685 710 C 685 710 692.563965 715.738403 696 719 C 699.593994 722.41156 706 730 706 730 C 706 730 713.954468 719.076355 703 708 C 699.171631 704.129028 692.635742 699.206177 686 694 C 678.210205 687.888367 669.928894 682.023804 661 681 C 652.500427 680.025452 635.856323 688.728027 619.499512 697.280518 C 612.001953 701.200684 604.564758 705.089355 598 708 C 581.910034 715.133789 567.013245 721.327576 550 731 C 537.20575 738.273804 533.78064 750.224915 531 760 C 527.432068 772.542847 526 785 526 785 Z M 540 619.655334 C 510.012268 619.674866 450 630 450 630 C 450 630 460 600.000427 540 600.000427 C 620 600.000427 630 630 630 630 C 630 630 570.328796 619.635498 540 619.655334 Z M 456 498 C 458.722229 503.51062 470 510 470 510 C 470 510 458.270477 514.729553 453 520 C 447.729523 525.270447 443.138763 533.239563 440 540 C 426.998413 568.00354 427 593 427 593 C 427 593 430.986023 575.774536 435 568 C 438.058411 562.076294 447 552 447 552 C 447 552 441.338715 566.421753 440 574 C 438.607117 581.884888 439 598 439 598 C 439 598 441.797699 587.788269 444 583 C 446.436493 577.702515 453 568 453 568 C 453 568 448.147034 581.312988 449 588 C 450.012756 595.939758 455 601 455 601 C 455 601 511.03833 583 540 583 C 568.96167 583 625 601 625 601 C 625 601 630.020203 595.997742 631 588 C 631.819763 581.308777 627 568 627 568 L 636 583 L 641 598 C 641 598 641.392883 581.884888 640 574 C 638.661316 566.421753 633 552 633 552 C 633 552 641.941589 562.076294 645 568 C 649.013977 575.774536 653 593 653 593 C 653 593 653.015747 568.008972 640 540 C 636.858887 533.240601 632.270447 525.270447 627 520 C 621.729553 514.729553 610 510 610 510 C 610 510 621.277771 503.51062 624 498 C 626.661499 492.612305 626.714111 485.759583 625 480 C 620.987366 466.517151 610.302795 455.578186 600 446 C 589.907654 436.617432 578.778503 424.20282 565 424 C 558.426331 423.903259 552.329102 429.052124 548 434 C 543.475037 439.171753 540 453 540 453 C 540 453 536.800049 439.339966 532 434 C 527.713684 429.231506 521.573669 423.903259 515 424 C 501.221497 424.20282 490.092346 436.617432 480 446 C 469.697235 455.578186 459.012634 466.517151 455 480 C 453.285889 485.759583 453.33847 492.612305 456 498 Z M 506.173767 450.06488 C 506.173767 450.06488 506.298157 454.621216 501.03064 459.322449 C 496.168335 463.662109 483.872742 470.063843 481.486847 474.75177 C 476.516266 484.518372 485.601318 492.238342 485.601318 492.238342 C 485.601318 492.238342 483.019958 482.424011 486.629944 480.923523 C 489.042938 479.920532 491.134552 482.534424 493.147888 485.050537 C 493.722717 485.76886 494.291168 486.479248 494.858887 487.095215 C 498.112305 490.625061 502.414246 492.936218 507.202393 496.352844 C 511.011169 499.070557 516.603027 500.974792 520.574463 502.524536 C 527.949951 505.402649 532.917908 506.639038 532.917908 506.639038 C 532.917908 506.639038 535.94989 492.037903 534.975098 484.009399 C 534.389038 479.182251 526.792175 476.998169 517.577332 470.107117 C 509.169678 463.819702 506.173767 450.06488 506.173767 450.06488 Z M 574.338257 450.06488 C 574.338257 450.06488 574.211487 454.621216 579.577271 459.32251 C 584.530151 463.662109 597.055054 470.063843 599.485474 474.75177 C 604.548706 484.518372 595.29425 492.238342 595.29425 492.238342 C 595.29425 492.238342 597.923706 482.424011 594.24646 480.923523 C 591.788452 479.920532 589.657898 482.534363 587.606934 485.050537 C 587.021362 485.768921 586.442383 486.479309 585.864014 487.095276 C 582.550049 490.625061 578.167847 492.936279 573.290405 496.352844 C 569.410645 499.070557 563.714478 500.974792 559.669067 502.524597 C 552.156006 505.40271 547.095459 506.639038 547.095459 506.639038 C 547.095459 506.639038 544.006958 492.037903 544.999878 484.009399 C 545.596802 479.182251 553.335327 476.99823 562.722046 470.107117 C 571.286377 463.819702 574.338257 450.06488 574.338257 450.06488 Z M 277 370.241943 C 277 370.241943 270.021149 357.431519 252.659576 368.22583 C 237.507813 377.646179 236.432617 393.427429 236.432617 393.427429 C 236.432617 393.427429 234.96991 377.166199 236.432617 369.233887 C 238.322906 358.982544 247.588654 340 247.588654 340 C 247.588654 340 218.627579 358.322144 226.290771 407.540344 C 233.334839 452.782104 264.829773 465 264.829773 465 C 264.829773 465 256.292572 453.763367 253.038116 448.145081 C 249.869385 442.674683 245.560272 431.733887 245.560272 431.733887 C 245.560272 431.733887 254.83194 439.11377 259.75885 441.814514 C 264.658997 444.500549 274.971619 447.862915 274.971619 447.862915 C 274.971619 447.862915 251.189941 429.102417 251.645386 406.532288 C 252.364288 370.905762 277 370.241943 277 370.241943 Z M 803 370.241943 C 803 370.241943 809.978882 357.431519 827.340454 368.22583 C 842.492188 377.646179 843.567383 393.427429 843.567383 393.427429 C 843.567383 393.427429 845.03009 377.166199 843.567383 369.233887 C 841.677063 358.982544 832.411377 340 832.411377 340 C 832.411377 340 861.372437 358.322144 853.709229 407.540344 C 846.665161 452.782104 815.170227 465 815.170227 465 C 815.170227 465 823.707458 453.763367 826.961853 448.145081 C 830.130615 442.674683 834.439697 431.733887 834.439697 431.733887 C 834.439697 431.733887 825.16803 439.11377 820.24115 441.814514 C 815.341003 444.500549 805.028381 447.862915 805.028381 447.862915 C 805.028381 447.862915 828.810059 429.102417 828.354614 406.532288 C 827.635742 370.905762 803 370.241943 803 370.241943 Z M 429 420 C 420.678497 416.397949 407 404 407 404 C 407 404 409.025299 413.778687 412 419 C 414.569427 423.509949 420 429 420 429 C 420 429 410.391632 425.295471 406 423 C 400.917542 420.343445 392 413 392 413 C 392 413 396.765717 426.622986 403 433 C 408.954559 439.090881 422 445 422 445 C 422 445 410.082581 443.211548 404 441 C 398.674408 439.063721 389 433 389 433 C 389 433 404.587402 463.575195 432 462 C 459.473816 460.421265 477 430 477 430 C 477 430 458.24115 443.730286 448 448 C 442.326935 450.365173 431 452 431 452 C 431 452 442.6875 445.163269 448 441 C 454.125 436.200012 465 425 465 425 C 465 425 452.290771 430.903076 446 433 C 441.290771 434.569763 432 436 432 436 L 442 431 L 450 424 C 450 424 435.53949 422.830688 429 420 Z M 651 420 C 659.321533 416.397949 673 404 673 404 C 673 404 670.974731 413.778687 668 419 C 665.430542 423.509949 660 429 660 429 C 660 429 669.608398 425.295471 674 423 C 679.082458 420.343445 688 413 688 413 C 688 413 683.234253 426.622986 677 433 C 671.04541 439.090881 658 445 658 445 C 658 445 669.917419 443.211548 676 441 C 681.325562 439.063721 691 433 691 433 C 691 433 675.412598 463.575195 648 462 C 620.526184 460.421265 603 430 603 430 C 603 430 621.75885 443.730286 632 448 C 637.673096 450.365173 649 452 649 452 C 649 452 637.3125 445.163269 632 441 C 625.875 436.200012 615 425 615 425 C 615 425 627.709229 430.903076 634 433 C 638.709229 434.569763 648 436 648 436 L 638 431 L 630 424 C 630 424 644.46051 422.830688 651 420 Z M 478 390 L 475 395 L 480 394 C 480 394 471.23938 407.040955 455 407 C 438.26004 406.957764 432 394 432 394 L 437 396 L 434 387 C 434 387 446.422699 398.312012 454 399 C 462.398193 399.762512 478 390 478 390 Z M 602 390 L 605 395 L 600 394 C 600 394 608.76062 407.040955 625 407 C 641.73999 406.957764 648 394 648 394 L 643 396 L 646 387 C 646 387 633.577271 398.312012 626 399 C 617.601807 399.762512 602 390 602 390 Z M 540 319 C 540 319 489.856323 285.235962 426.849792 296 C 400.544342 300.494019 385.369446 312.844238 372.778015 330 C 357.885162 350.291443 362.764709 389 362.764709 389 C 362.764709 389 368.839142 344.077271 397.811249 335 C 417.580261 328.806152 437.886444 330.830383 456.889679 336 C 471.745178 340.04126 502.950806 348 502.950806 348 C 502.950806 348 502.94104 343.90802 501.949463 341 C 499.853577 334.853149 496.658325 332.15863 495.437775 331.312927 C 497.612793 332.689209 506.337433 338.299988 509.960144 342 C 513.460388 345.575012 517.970764 354 517.970764 354 C 517.970764 354 521.321594 351.841248 522.977417 345 C 524.270752 339.656433 519.97345 330 519.97345 330 C 519.97345 330 526.369202 338.608276 529.986694 342 C 533.102966 344.921753 540 349 540 349 C 540 349 546.897034 344.921753 550.013306 342 C 553.630859 338.608276 560.026611 330 560.026611 330 C 560.026611 330 555.729248 339.656433 557.022583 345 C 558.678406 351.841248 562.029236 354 562.029236 354 C 562.029236 354 566.539612 345.575012 570.039917 342 C 573.662598 338.299988 582.387207 332.689209 584.562195 331.312927 C 583.341675 332.15863 580.146423 334.853149 578.050537 341 C 577.05896 343.90802 577.049194 348 577.049194 348 C 577.049194 348 608.254822 340.04126 623.110352 336 C 642.113586 330.830383 662.4198 328.806152 682.188782 335 C 711.160889 344.077271 717.235291 389 717.235291 389 C 717.235291 389 722.114868 350.291443 707.222046 330 C 694.630554 312.844238 679.455688 300.494019 653.150208 296 C 590.143677 285.235962 540 319 540 319 Z M 457 373 C 460.986786 373.498962 462.533051 375.451721 462 378 C 461.542175 380.188721 459.335144 382.851257 456 382 C 452.416687 381.085388 451.764313 379.121338 452 377 C 452.235687 374.878662 454.03833 372.629333 457 373 Z M 623 373 C 619.013184 373.498962 617.466919 375.451721 618 378 C 618.457825 380.188721 620.664856 382.851257 624 382 C 627.583313 381.085388 628.235718 379.121338 628 377 C 627.764282 374.878662 625.96167 372.629333 623 373 Z M 423 257 C 423 257 434.482178 247.033447 458 249 C 478.568176 250.719971 495 258 495 258 C 495 258 493.464233 252.908325 492 251 C 489.910828 248.277344 485 246 485 246 C 485 246 492.477966 247.473999 497 249 C 502.93396 251.002563 514 257 514 257 C 514 257 505.685425 239.921753 470 238 C 435.449707 236.139404 423 257 423 257 Z M 657 257 C 657 257 645.517822 247.033447 622 249 C 601.431824 250.719971 585 258 585 258 C 585 258 586.535767 252.908325 588 251 C 590.089172 248.277344 595 246 595 246 C 595 246 587.522034 247.473999 583 249 C 577.06604 251.002563 566 257 566 257 C 566 257 574.314575 239.921753 610 238 C 644.550293 236.139404 657 257 657 257 Z M 477 222 C 449.026184 219.142212 421 231 421 231 C 421 231 436.364594 219.902954 457 215 C 474.48233 210.846191 478 212 478 212 C 478 212 476.200806 208.733765 470.356445 207.533936 C 464.710876 206.375 452 207 452 207 C 452 207 482.039124 197.647339 504 208 C 524.371643 217.603516 534 235 534 235 L 512 222 L 523 238 C 523 238 501.465332 224.49939 477 222 Z M 603 222 C 630.973816 219.142212 659 231 659 231 C 659 231 643.635376 219.902954 623 215 C 605.5177 210.846191 602 212 602 212 C 602 212 603.799194 208.733765 609.643555 207.533936 C 615.289124 206.375 628 207 628 207 C 628 207 597.960876 197.647339 576 208 C 555.628357 217.603516 546 235 546 235 L 568 222 L 557 238 C 557 238 578.534668 224.49939 603 222 Z M 469.455444 191.70874 C 445.335968 188.387451 423 195.766968 423 195.766968 C 423 195.766968 440.047028 187.392212 449.257416 185.621338 C 466.903259 182.228638 475.514862 183.592163 475.514862 183.592163 C 475.514862 183.592163 465.200806 180.733765 459.356445 179.533936 C 453.710876 178.375 442.18811 177.504761 442.18811 177.504761 C 442.18811 177.504761 467.692566 170.195801 489.653442 180.548462 C 510.025085 190.151978 525 212 525 212 C 525 212 512.85022 203.571411 497.732666 197.796143 C 488.467041 194.25647 477.289368 192.787476 469.455444 191.70874 Z M 610.544556 191.70874 C 634.664063 188.387451 657 195.766968 657 195.766968 C 657 195.766968 639.952942 187.392212 630.742554 185.621338 C 613.096741 182.228638 604.485168 183.592163 604.485168 183.592163 C 604.485168 183.592163 614.799194 180.733765 620.643555 179.533936 C 626.289124 178.375 637.81189 177.504761 637.81189 177.504761 C 637.81189 177.504761 612.307434 170.195801 590.346558 180.548462 C 569.974915 190.151978 555 212 555 212 C 555 212 567.14978 203.571411 582.267334 197.796143 C 591.532959 194.25647 602.710632 192.787476 610.544556 191.70874 Z M 495.437775 331.312927 C 495.118347 331.11084 494.940186 331 494.940186 331 C 494.940186 331 495.123535 331.095215 495.437775 331.312927 Z M 584.562195 331.312927 C 584.876465 331.095215 585.059814 331 585.059814 331 C 585.059814 331 584.881653 331.11084 584.562195 331.312927 Z"/>
    </g>
</svg>
